<svg width="32" height="32" viewBox="0 0 32 32" fill="none" xmlns="http://www.w3.org/2000/svg">
<rect width="32" height="32" rx="6" fill="#EFAB5D"/>
<path d="M7.22406 3.04132H19.2307C22.2554 3.04132 24.7714 5.30665 24.7801 8.57999C24.7821 9.28465 24.7714 10.0793 24.7714 10.9447C20.6361 10.9447 24.1141 11.0733 12.4481 10.9447C11.1281 10.9307 7.49673 9.60465 7.33673 6.10465C7.15939 2.22265 7.24206 3.08665 7.22473 3.07265M24.7714 12.7833C24.7954 14.27 24.7281 13.2433 24.7514 15.7653C24.7701 17.744 22.6841 20.7387 19.1761 20.692C17.8561 20.6747 17.1827 20.6933 15.1907 20.6933V23.7647C15.1921 26.1013 12.7787 28.992 10.3281 29H7.22473V20.6933C7.21139 18.9813 7.22473 20.0867 7.22339 17.8907C7.22139 14.814 10.0634 12.7853 12.3214 12.784L15.1907 12.7833H24.7714Z" stroke="black" stroke-width="0.7" stroke-linecap="round" stroke-linejoin="round"/>
</svg>
