<svg width="53" height="52" viewBox="0 0 53 52" fill="none" xmlns="http://www.w3.org/2000/svg">
<g clip-path="url(#clip0_6247_21443)">
<path fill-rule="evenodd" clip-rule="evenodd" d="M10.575 36.4C10.7264 36.1982 10.9226 36.0344 11.1483 35.9216C11.3739 35.8087 11.6227 35.75 11.875 35.75H20C20.431 35.75 20.8443 35.9212 21.149 36.226C21.4538 36.5307 21.625 36.944 21.625 37.375C21.625 37.806 21.4538 38.2193 21.149 38.524C20.8443 38.8288 20.431 39 20 39H12.6875L5.375 48.75H47.625L40.3125 39H33C32.569 39 32.1557 38.8288 31.851 38.524C31.5462 38.2193 31.375 37.806 31.375 37.375C31.375 36.944 31.5462 36.5307 31.851 36.226C32.1557 35.9212 32.569 35.75 33 35.75H41.125C41.3773 35.75 41.6261 35.8087 41.8517 35.9216C42.0774 36.0344 42.2736 36.1982 42.425 36.4L52.175 49.4C52.3561 49.6414 52.4663 49.9285 52.4934 50.2291C52.5205 50.5296 52.4634 50.8318 52.3284 51.1017C52.1935 51.3716 51.986 51.5987 51.7293 51.7573C51.4726 51.916 51.1768 52 50.875 52H2.125C1.82322 52 1.5274 51.916 1.27069 51.7573C1.01398 51.5987 0.806518 51.3716 0.671557 51.1017C0.536596 50.8318 0.479465 50.5296 0.506567 50.2291C0.533669 49.9285 0.643932 49.6414 0.825001 49.4L10.575 36.4Z" fill="black"/>
<path fill-rule="evenodd" clip-rule="evenodd" d="M13.5 12.9998C13.5002 10.498 14.2223 8.04944 15.5797 5.94789C16.937 3.84635 18.8719 2.18108 21.1521 1.15192C23.4324 0.122757 25.9612 -0.226583 28.4351 0.145816C30.909 0.518215 33.2229 1.59654 35.0991 3.25139C36.9754 4.90624 38.3343 7.06732 39.0128 9.47532C39.6913 11.8833 39.6605 14.436 38.9243 16.8269C38.188 19.2179 36.7774 21.3456 34.8619 22.9548C32.9463 24.564 30.6071 25.5863 28.125 25.899V43.8748C28.125 44.3057 27.9538 44.7191 27.6491 45.0238C27.3443 45.3286 26.931 45.4998 26.5 45.4998C26.069 45.4998 25.6557 45.3286 25.351 45.0238C25.0462 44.7191 24.875 44.3057 24.875 43.8748V25.9023C21.7321 25.5063 18.842 23.9764 16.7474 21.6C14.6529 19.2236 13.4981 16.1675 13.5 12.9998Z" fill="black"/>
</g>
<defs>
<clipPath id="clip0_6247_21443">
<rect width="52" height="52" fill="white" transform="translate(0.5)"/>
</clipPath>
</defs>
</svg>
