<svg width="16" height="17" viewBox="0 0 16 17" fill="none" xmlns="http://www.w3.org/2000/svg">
<path d="M15.3321 12.4399C15.3455 12.9399 15.2121 13.4132 14.9721 13.8199C14.8388 14.0599 14.6588 14.2799 14.4588 14.4599C13.9988 14.8866 13.3921 15.1465 12.7188 15.1665C11.7455 15.1865 10.8855 14.6866 10.4121 13.9199C10.1588 13.5266 10.0055 13.0532 9.99881 12.5532C9.97881 11.7132 10.3521 10.9532 10.9521 10.4532C11.4055 10.0799 11.9788 9.84655 12.6055 9.83322C14.0788 9.79988 15.2988 10.9665 15.3321 12.4399Z" stroke="#F1F1F1" stroke-miterlimit="10" stroke-linecap="round" stroke-linejoin="round"/>
<path d="M11.627 12.5202L12.3003 13.1602L13.6936 11.8135" stroke="#F1F1F1" stroke-linecap="round" stroke-linejoin="round"/>
<path d="M2.11328 5.45996L7.99994 8.86662L13.8466 5.47994" stroke="#F1F1F1" stroke-linecap="round" stroke-linejoin="round"/>
<path d="M8 14.9065V8.85986" stroke="#F1F1F1" stroke-linecap="round" stroke-linejoin="round"/>
<path d="M14.4071 6.6135V10.3869C14.4071 10.4202 14.4071 10.4468 14.4004 10.4802C13.9337 10.0735 13.3337 9.83351 12.6671 9.83351C12.0404 9.83351 11.4604 10.0535 11.0004 10.4202C10.3871 10.9068 10.0004 11.6602 10.0004 12.5002C10.0004 13.0002 10.1404 13.4735 10.3871 13.8735C10.4471 13.9802 10.5204 14.0802 10.6004 14.1735L9.38041 14.8469C8.62041 15.2735 7.3804 15.2735 6.6204 14.8469L3.0604 12.8735C2.25374 12.4268 1.59375 11.3069 1.59375 10.3869V6.6135C1.59375 5.6935 2.25374 4.57351 3.0604 4.12684L6.6204 2.1535C7.3804 1.72683 8.62041 1.72683 9.38041 2.1535L12.9404 4.12684C13.7471 4.57351 14.4071 5.6935 14.4071 6.6135Z" stroke="#F1F1F1" stroke-linecap="round" stroke-linejoin="round"/>
</svg>
