<svg width="53" height="52" viewBox="0 0 53 52" fill="none" xmlns="http://www.w3.org/2000/svg">
<path d="M30.701 40.3815C29.8851 40.3811 29.0722 40.2827 28.2797 40.0882C25.3133 39.357 24.1124 37.9757 23.633 37.082C21.731 37.4695 16.6366 38.057 14.52 33.8222C13.9906 32.922 13.7846 31.8678 13.9362 30.8345C14.0878 29.8012 14.5879 28.8506 15.3537 28.1404C16.5043 27.0465 18.0392 26.4491 19.6266 26.4772C20.1866 25.3165 21.1527 24.4013 22.342 23.9049C23.8256 23.3507 25.527 23.6351 27.399 24.749C27.5815 24.8605 27.7127 25.0394 27.7642 25.2469C27.8157 25.4544 27.7832 25.6739 27.674 25.8577C27.5647 26.0415 27.3874 26.1748 27.1804 26.2287C26.9735 26.2827 26.7537 26.2528 26.5686 26.1457C25.1451 25.2983 23.9174 25.0537 22.9213 25.4234C22.4457 25.6478 22.019 25.9637 21.6656 26.3531C21.3122 26.7425 21.039 27.1977 20.8616 27.6927C20.8237 27.8065 20.761 27.9104 20.6782 27.9971C20.5953 28.0838 20.4943 28.151 20.3824 28.194C20.2705 28.2371 20.1504 28.2548 20.0309 28.2459C19.9113 28.2371 19.7952 28.2019 19.6908 28.1429C19.3357 27.943 17.6595 28.1892 16.4733 29.3185C15.9558 29.7866 15.6215 30.4233 15.53 31.115C15.4384 31.8068 15.5957 32.5085 15.9736 33.095C17.9366 37.0235 23.8402 35.3652 23.9004 35.3489C24.0121 35.3165 24.1295 35.3084 24.2446 35.3252C24.3597 35.342 24.4699 35.3834 24.5677 35.4465C24.6654 35.5096 24.7485 35.5929 24.8112 35.6909C24.874 35.7889 24.915 35.8992 24.9314 36.0144C24.942 36.0615 25.3019 37.6792 28.6689 38.5079C31.2795 39.1514 33.7349 38.4551 34.6002 37.411C34.8026 37.1707 34.9262 36.8739 34.9539 36.5609C34.9817 36.2479 34.9124 35.9339 34.7554 35.6617C34.6653 35.466 34.6567 35.2424 34.7314 35.0403C34.8062 34.8382 34.9581 34.674 35.1539 34.5839C35.3497 34.4939 35.5732 34.4853 35.7753 34.56C35.9774 34.6347 36.1416 34.7867 36.2317 34.9825C36.5182 35.5325 36.6352 36.1552 36.5678 36.7718C36.5004 37.3883 36.2517 37.971 35.8531 38.4462C34.8326 39.6787 32.8582 40.3815 30.701 40.3815Z" fill="black"/>
<path d="M13.4575 32.9064C11.6397 32.9406 9.8585 32.3932 8.37367 31.3439C6.5293 29.9684 5.43567 27.7819 5.12367 24.8439C4.60611 19.9803 8.43461 17.7801 10.9257 17.1715C11.3125 15.9097 12.6092 12.8514 16.1883 12.3412C18.3319 12.0129 20.5242 12.2573 22.5429 13.0497C23.5601 11.8114 25.7807 10.3871 29.2273 11.2386C32.6057 12.0714 33.9227 13.4405 34.4273 14.2977C36.3123 14.0775 41.635 14.0109 43.6451 19.7057C44.9727 23.4668 43.1235 24.9609 42.2639 25.4298C40.0555 26.6363 36.6796 25.7629 35.4657 24.2004C33.3613 21.4964 34.784 19.6163 34.8457 19.5375C34.9105 19.4507 34.992 19.3777 35.0854 19.3228C35.1787 19.2679 35.2821 19.2323 35.3895 19.2179C35.4969 19.2036 35.606 19.2109 35.7105 19.2393C35.815 19.2678 35.9128 19.3169 35.9981 19.3837C36.0833 19.4505 36.1544 19.5336 36.207 19.6283C36.2597 19.7229 36.2929 19.8272 36.3047 19.9348C36.3165 20.0425 36.3066 20.1515 36.2757 20.2553C36.2448 20.3591 36.1934 20.4557 36.1246 20.5393C36.1092 20.5637 35.4535 21.5395 36.7478 23.2027C37.5213 24.198 40.0522 24.7854 41.4847 24.0038C42.8367 23.2653 42.5702 21.5525 42.1095 20.2468C40.1481 14.6901 34.3591 15.9316 34.1153 15.9861C34.0083 16.0106 33.8975 16.0132 33.7895 15.9937C33.6815 15.9742 33.5786 15.933 33.487 15.8726C33.3953 15.8123 33.3168 15.734 33.2563 15.6424C33.1957 15.5509 33.1543 15.4481 33.1346 15.3401C33.1346 15.3401 32.656 13.759 28.8284 12.8157C25.0007 11.8724 23.5861 14.3594 23.5276 14.4626C23.4756 14.5575 23.4054 14.6411 23.3209 14.7085C23.2363 14.776 23.1393 14.8261 23.0353 14.8558C22.9313 14.8855 22.8225 14.8942 22.7151 14.8816C22.6077 14.8689 22.5038 14.835 22.4096 14.7819C20.5372 13.9095 18.446 13.6194 16.4069 13.9491C13.13 14.4171 12.3996 17.8751 12.3695 18.0214C12.3377 18.1833 12.2572 18.3317 12.139 18.4468C12.0207 18.5619 11.8701 18.6383 11.7074 18.6657C11.4839 18.7047 6.1978 19.6789 6.72917 24.6725C6.99974 27.1376 7.87399 28.9414 9.33405 30.0358C10.8721 31.0591 12.735 31.4757 14.5625 31.205C14.7745 31.166 14.9934 31.2128 15.1709 31.3352C15.3484 31.4575 15.47 31.6454 15.509 31.8574C15.5481 32.0695 15.5012 32.2883 15.3789 32.4658C15.2565 32.6434 15.0687 32.765 14.8566 32.804C14.3939 32.8771 13.9259 32.9113 13.4575 32.9064Z" fill="black"/>
<path d="M43.1953 35.9484H43.1782C42.9629 35.9437 42.7582 35.8537 42.6092 35.6982C42.4602 35.5426 42.379 35.3342 42.3836 35.1189C42.3837 35.0116 42.4055 34.9054 42.4477 34.8068C42.4899 34.7081 42.5516 34.619 42.6291 34.5448C42.7065 34.4706 42.7982 34.4128 42.8986 34.3749C42.999 34.337 43.106 34.3198 43.2132 34.3242C43.2863 34.3242 45.3785 34.2373 46.1853 30.2552C47.0246 26.1115 42.8476 23.7626 42.8045 23.7398C42.7109 23.6884 42.6284 23.6191 42.5616 23.5359C42.4948 23.4526 42.4451 23.357 42.4152 23.2545C42.3854 23.152 42.376 23.0446 42.3877 22.9385C42.3993 22.8324 42.4318 22.7296 42.4831 22.636C42.5345 22.5425 42.6038 22.4599 42.6871 22.3931C42.7704 22.3263 42.866 22.2766 42.9685 22.2468C43.071 22.2169 43.1783 22.2076 43.2845 22.2192C43.3906 22.2309 43.4933 22.2633 43.5869 22.3147C45.4118 23.3165 48.6366 26.3317 47.7778 30.5778C46.7159 35.8241 43.4927 35.9484 43.1953 35.9484Z" fill="black"/>
<path d="M38.4823 41.0157C36.7386 40.9295 35.0369 40.4506 33.5041 39.615C33.3162 39.5094 33.178 39.3335 33.1198 39.1259C33.0615 38.9184 33.0882 38.6963 33.1938 38.5084C33.2993 38.3205 33.4753 38.1822 33.6828 38.124C33.8903 38.0658 34.1125 38.0924 34.3004 38.198C34.3321 38.2159 37.5309 39.9855 39.7596 39.1925C40.1676 39.0406 40.5364 38.799 40.8386 38.4855C41.1408 38.1721 41.3687 37.7948 41.5056 37.3814C41.8736 36.6024 42.0439 35.7447 42.0014 34.8842C41.9588 34.0236 41.7049 33.1869 41.2619 32.4479C40.7073 31.6671 39.9758 31.0286 39.1273 30.5845C38.2788 30.1404 37.3372 29.9033 36.3796 29.8926C36.1641 29.8818 35.9617 29.7859 35.8169 29.6259C35.6722 29.4659 35.5969 29.255 35.6077 29.0395C35.6185 28.824 35.7144 28.6216 35.8744 28.4769C36.0344 28.3321 36.2453 28.2568 36.4608 28.2676C37.6765 28.2913 38.8693 28.6027 39.9414 29.1764C41.0135 29.7501 41.9344 30.5697 42.6285 31.568C43.2088 32.5251 43.5471 33.6092 43.6141 34.7266C43.6811 35.8439 43.4747 36.9607 43.0128 37.9802C42.7916 38.6105 42.4329 39.1836 41.9629 39.6582C41.4928 40.1327 40.9231 40.4968 40.295 40.724C39.7117 40.9235 39.0987 41.0221 38.4823 41.0157ZM25.2369 20.795C25.0407 20.7954 24.851 20.7248 24.7028 20.5962C24.5546 20.4676 24.458 20.2897 24.4307 20.0953C24.4035 19.901 24.4475 19.7034 24.5546 19.539C24.6617 19.3746 24.8247 19.2545 25.0135 19.2009C25.2788 19.149 25.527 19.032 25.736 18.8606C25.9451 18.6892 26.1083 18.4686 26.2111 18.2186C26.3024 17.8539 26.309 17.4732 26.2302 17.1056C26.1515 16.738 25.9896 16.3933 25.7569 16.098C25.6342 15.9208 25.5869 15.7022 25.6254 15.4902C25.6638 15.2782 25.785 15.0901 25.9621 14.9674C26.1392 14.8447 26.3579 14.7973 26.5699 14.8358C26.7819 14.8743 26.97 14.9954 27.0927 15.1725C27.476 15.6781 27.7347 16.2669 27.8476 16.8912C27.9606 17.5155 27.9246 18.1576 27.7427 18.7654C27.5536 19.2586 27.2472 19.6984 26.85 20.0465C26.4527 20.3946 25.9766 20.6407 25.4628 20.7634C25.3895 20.7848 25.3134 20.7954 25.2369 20.795Z" fill="black"/>
<path d="M31.2069 25.2566C30.9959 25.2567 30.793 25.1746 30.6414 25.0279C30.4898 24.8811 30.4012 24.681 30.3944 24.4701C30.2319 19.4911 27.0892 19.2116 26.9551 19.2018C26.7406 19.1878 26.5405 19.0894 26.3984 18.9282C26.2563 18.7669 26.1839 18.5559 26.197 18.3414C26.2088 18.1278 26.3048 17.9276 26.464 17.7847C26.6232 17.6419 26.8325 17.568 27.0461 17.5793C27.0932 17.5793 31.8098 17.8986 32.0178 24.4181C32.0246 24.6333 31.9457 24.8424 31.7983 24.9995C31.651 25.1566 31.4473 25.2488 31.2321 25.2558L31.2069 25.2566ZM25.6795 34.2063C25.5319 34.2061 25.3871 34.1657 25.2608 34.0895C25.1344 34.0133 25.0311 33.904 24.9622 33.7736C24.8932 33.6431 24.861 33.4963 24.8691 33.3489C24.8773 33.2016 24.9254 33.0592 25.0084 32.9371C25.2441 32.6596 25.417 32.3344 25.5151 31.9838C25.6133 31.6332 25.6345 31.2654 25.5771 30.9059C25.4534 30.6583 25.2821 30.4376 25.073 30.2563C24.8638 30.0751 24.621 29.9369 24.3584 29.8496C24.1524 29.7861 23.98 29.6433 23.8793 29.4526C23.7786 29.262 23.7577 29.0392 23.8213 28.8332C23.8849 28.6272 24.0277 28.4549 24.2183 28.3541C24.4089 28.2534 24.6317 28.2326 24.8377 28.2961C25.3426 28.4588 25.8069 28.7276 26.1993 29.0845C26.5917 29.4415 26.9031 29.8783 27.1127 30.3656C27.2757 30.9637 27.292 31.5923 27.1603 32.1981C27.0286 32.8039 26.7528 33.369 26.3563 33.8455C26.2819 33.9567 26.1812 34.0478 26.0631 34.1108C25.9451 34.1737 25.8133 34.2065 25.6795 34.2063Z" fill="black"/>
<path d="M32.4478 34.2066C32.268 34.2064 32.0933 34.1466 31.9511 34.0365C31.8089 33.9263 31.7073 33.7721 31.6621 33.598C31.5849 33.1382 31.4054 32.7016 31.137 32.3204C30.8685 31.9392 30.5179 31.6231 30.1111 31.3954C28.6892 30.7218 26.8164 31.5749 26.7977 31.5839C26.7011 31.6292 26.5965 31.655 26.4899 31.6598C26.3833 31.6647 26.2768 31.6485 26.1764 31.6123C26.0761 31.576 25.9839 31.5203 25.9051 31.4483C25.8263 31.3764 25.7624 31.2897 25.7171 31.193C25.6718 31.0964 25.646 30.9918 25.6411 30.8852C25.6362 30.7786 25.6524 30.6721 25.6887 30.5718C25.725 30.4714 25.7807 30.3792 25.8526 30.3004C25.9245 30.2216 26.0113 30.1577 26.1079 30.1124C26.2119 30.0629 28.6778 28.9278 30.7952 29.9207C31.4234 30.2442 31.9695 30.7068 32.3919 31.2732C32.8143 31.8396 33.1018 32.495 33.2327 33.1894C33.264 33.3096 33.2673 33.4354 33.2424 33.5571C33.2175 33.6788 33.165 33.7932 33.089 33.8914C33.0129 33.9896 32.9154 34.0691 32.8038 34.1238C32.6922 34.1784 32.5696 34.2068 32.4454 34.2066H32.4478ZM10.2617 26.6926C10.1479 26.6927 10.0354 26.6683 9.93183 26.6211C9.73663 26.5335 9.58389 26.3724 9.50677 26.1728C9.42964 25.9732 9.43436 25.7512 9.51989 25.5551C9.73879 25.0726 10.0602 24.6436 10.4618 24.298C10.8634 23.9524 11.3355 23.6985 11.8453 23.5539C12.9332 23.3256 14.0845 23.7635 15.2578 24.8539C15.3361 24.9264 15.3995 25.0135 15.4441 25.1105C15.4888 25.2074 15.514 25.3122 15.5182 25.4188C15.5224 25.5255 15.5055 25.6319 15.4686 25.732C15.4316 25.8321 15.3753 25.924 15.3029 26.0024C15.2304 26.0808 15.1432 26.1441 15.0463 26.1888C14.9494 26.2335 14.8446 26.2586 14.738 26.2628C14.6313 26.267 14.5249 26.2501 14.4248 26.2132C14.3246 26.1762 14.2328 26.1199 14.1544 26.0475C13.9099 25.7636 13.6068 25.5361 13.266 25.3806C12.9251 25.225 12.5547 25.1451 12.18 25.1464C11.9203 25.234 11.6815 25.3745 11.4788 25.5589C11.276 25.7434 11.1136 25.9678 11.0019 26.2181C10.9365 26.3595 10.8322 26.4793 10.701 26.5634C10.5699 26.6474 10.4175 26.6923 10.2617 26.6926ZM19.7176 21.4788C19.5806 21.4788 19.4459 21.4441 19.326 21.378C18.8244 21.1455 18.3814 20.8032 18.0299 20.3766C17.6783 19.9499 17.4271 19.4497 17.2947 18.9129C17.2193 18.3803 17.25 17.838 17.3852 17.3173C17.5203 16.7966 17.7571 16.3078 18.082 15.879C18.2172 15.717 18.4101 15.6138 18.6199 15.5915C18.8298 15.5691 19.0401 15.6293 19.2064 15.7593C19.3726 15.8892 19.4818 16.0788 19.5108 16.2878C19.5398 16.4968 19.4863 16.7089 19.3617 16.8792C18.9934 17.3718 18.8245 17.9852 18.8888 18.5969C18.9815 18.8979 19.1385 19.1753 19.3489 19.4097C19.5593 19.6441 19.8182 19.83 20.1076 19.9545C20.2655 20.0415 20.3901 20.1786 20.4616 20.3441C20.5331 20.5096 20.5475 20.6943 20.5025 20.8689C20.4576 21.0435 20.3558 21.1982 20.2133 21.3086C20.0707 21.4191 19.8955 21.4789 19.7151 21.4788H19.7176Z" fill="black"/>
<path d="M12.4865 25.1201H12.4638C12.2491 25.1141 12.0456 25.0234 11.8976 24.8678C11.7496 24.7122 11.6692 24.5044 11.674 24.2897C11.6825 22.589 12.3457 20.9568 13.5258 19.7321C14.7059 18.5074 16.3123 17.7841 18.0115 17.7125C18.227 17.6991 18.439 17.7717 18.6009 17.9146C18.7628 18.0574 18.8613 18.2588 18.8748 18.4742C18.8883 18.6897 18.8156 18.9017 18.6727 19.0636C18.5299 19.2255 18.3286 19.3241 18.1131 19.3375C13.4965 19.6268 13.3031 24.1427 13.2974 24.3352C13.2903 24.5456 13.2017 24.745 13.0505 24.8914C12.8992 25.0378 12.697 25.1198 12.4865 25.1201Z" fill="black"/>
</svg>
