<svg width="17" height="16" viewBox="0 0 17 16" fill="none" xmlns="http://www.w3.org/2000/svg">
<path d="M15.0397 2.62658C14.013 5.18658 11.4397 8.66658 9.28635 10.3933L7.97302 11.4466C7.80635 11.5666 7.63969 11.6733 7.45302 11.7466C7.45302 11.6266 7.44635 11.4933 7.42635 11.3666C7.35302 10.8066 7.09969 10.2866 6.65302 9.83992C6.19969 9.38658 5.64635 9.11992 5.07969 9.04658C4.94635 9.03992 4.81302 9.02658 4.67969 9.03992C4.75302 8.83325 4.86635 8.63992 5.00635 8.47992L6.04635 7.16658C7.76635 5.01325 11.2597 2.42658 13.813 1.40658C14.2064 1.25992 14.5864 1.36658 14.8264 1.61325C15.0797 1.85992 15.1997 2.23992 15.0397 2.62658Z" stroke="#125401" stroke-width="1.5" stroke-linecap="round" stroke-linejoin="round"/>
<path d="M7.45417 11.7465C7.45417 12.4799 7.17417 13.1799 6.6475 13.7132C6.24083 14.1199 5.6875 14.3999 5.0275 14.4865L3.3875 14.6665C2.49417 14.7665 1.7275 14.0065 1.83417 13.0999L2.01417 11.4599C2.17417 9.99987 3.39417 9.06654 4.6875 9.03987C4.82083 9.0332 4.96083 9.03987 5.0875 9.04654C5.65417 9.11987 6.2075 9.37987 6.66083 9.83987C7.1075 10.2865 7.36083 10.8065 7.43417 11.3665C7.44083 11.4932 7.45417 11.6199 7.45417 11.7465Z" stroke="#125401" stroke-width="1.5" stroke-linecap="round" stroke-linejoin="round"/>
<path d="M9.99318 9.6465C9.99318 7.9065 8.57984 6.49316 6.83984 6.49316" stroke="#125401" stroke-width="1.5" stroke-linecap="round" stroke-linejoin="round"/>
</svg>
