<svg width="362" height="140" viewBox="0 0 362 140" fill="none" xmlns="http://www.w3.org/2000/svg">
<path d="M43.2346 60.7148L1 42.148V140H361V7.52347L355.972 6.01805L328.821 36.6282L317.76 33.6173L283.57 62.2202L279.547 64.7292L244.855 31.1083L234.296 36.6282L215.19 6.01805H211.67L189.547 31.1083H187.034L171.95 50.1769L154.352 72.7581L149.827 75.769L139.771 64.2274L118.654 5.01444L113.626 1L105.581 5.01444L91 37.6318L85.4693 42.148L74.4078 35.1227L64.352 37.6318L43.2346 60.7148Z" fill="url(#paint0_linear_6247_24218)"/>
<path d="M1 42.2217L39.9251 59.3851C42.7597 60.635 46.0869 59.5382 47.7875 56.9488C53.9069 47.6315 68.6948 28.395 80.7756 38.7447C96.4278 52.154 97.3403 -2.49632 115.614 1.4973C124.703 3.48348 126.617 28.9335 134.801 50.1676C140.526 65.022 143.217 72.9769 149.992 74.6598C151.83 75.1166 153.645 74.1052 154.777 72.5863L185.22 31.7531C185.828 30.9381 186.965 30.7372 187.815 31.2946V31.2946C188.666 31.8529 189.805 31.6504 190.412 30.833L207.019 8.46038C209.616 4.96197 214.958 5.31054 217.078 9.11673L229.938 32.2022C231.509 35.0224 235.03 36.094 237.906 34.6273L242.355 32.3582C244.741 31.1413 247.644 31.6531 249.47 33.6125L275.734 61.7943C277.948 64.1699 281.65 64.3531 284.087 62.2078L315.133 34.8853C316.924 33.3085 319.48 32.9435 321.642 33.9559L324.346 35.2224C326.884 36.4113 329.907 35.6844 331.628 33.4716L351.162 8.34456C353.233 5.68059 357.093 5.24778 359.703 7.38688L361 8.45026" stroke="#1C8B00" stroke-width="2"/>
<defs>
<linearGradient id="paint0_linear_6247_24218" x1="181" y1="1" x2="181" y2="140" gradientUnits="userSpaceOnUse">
<stop stop-color="#19DA07"/>
<stop offset="1" stop-color="#7DEF6E"/>
</linearGradient>
</defs>
</svg>
