<svg width="16" height="17" viewBox="0 0 16 17" fill="none" xmlns="http://www.w3.org/2000/svg">
<path d="M14.6667 10.5C14.6667 13.08 12.58 15.1667 10 15.1667L10.7 14" stroke="#F1F1F1" stroke-linecap="round" stroke-linejoin="round"/>
<path d="M1.33398 6.50016C1.33398 3.92016 3.42065 1.8335 6.00065 1.8335L5.30065 3.00016" stroke="#F1F1F1" stroke-linecap="round" stroke-linejoin="round"/>
<path d="M9.13281 3.4668L11.7861 5.00012L14.4128 3.47347" stroke="#F1F1F1" stroke-linecap="round" stroke-linejoin="round"/>
<path d="M11.7871 7.71366V4.99365" stroke="#F1F1F1" stroke-linecap="round" stroke-linejoin="round"/>
<path d="M11.1604 1.9735L9.56038 2.86013C9.20038 3.06013 8.90039 3.5668 8.90039 3.98013V5.67349C8.90039 6.08682 9.19372 6.59348 9.56038 6.79348L11.1604 7.68016C11.5004 7.87349 12.0604 7.87349 12.4071 7.68016L14.007 6.79348C14.367 6.59348 14.6671 6.08682 14.6671 5.67349V3.98013C14.6671 3.5668 14.3737 3.06013 14.007 2.86013L12.4071 1.9735C12.0671 1.78683 11.5071 1.78683 11.1604 1.9735Z" stroke="#F1F1F1" stroke-linecap="round" stroke-linejoin="round"/>
<path d="M1.56641 10.8003L4.21307 12.3336L6.84641 10.807" stroke="#F1F1F1" stroke-linecap="round" stroke-linejoin="round"/>
<path d="M4.21289 15.0467V12.3267" stroke="#F1F1F1" stroke-linecap="round" stroke-linejoin="round"/>
<path d="M3.59398 9.3065L1.99399 10.1931C1.63399 10.3931 1.33398 10.8998 1.33398 11.3131V13.0065C1.33398 13.4198 1.62732 13.9265 1.99399 14.1265L3.59398 15.0132C3.93398 15.2065 4.49398 15.2065 4.84065 15.0132L6.44065 14.1265C6.80065 13.9265 7.10065 13.4198 7.10065 13.0065V11.3131C7.10065 10.8998 6.80732 10.3931 6.44065 10.1931L4.84065 9.3065C4.49398 9.11984 3.93398 9.11984 3.59398 9.3065Z" stroke="#F1F1F1" stroke-linecap="round" stroke-linejoin="round"/>
</svg>
