<svg width="53" height="52" viewBox="0 0 53 52" fill="none" xmlns="http://www.w3.org/2000/svg">
<path d="M34.6254 48.75H18.3754C17.0824 48.75 15.8425 48.2364 14.9282 47.3221C14.014 46.4079 13.5004 45.1679 13.5004 43.875V41.4375C13.2323 41.4375 12.9641 41.4375 12.6879 41.4375C10.7458 41.4402 8.87394 40.7115 7.44488 39.3965C6.01581 38.0814 5.13435 36.2764 4.97595 34.3408C4.81756 32.4052 5.39385 30.481 6.59011 28.9511C7.78637 27.4212 9.51487 26.3979 11.4315 26.0848C13.3482 25.7718 15.3125 26.1919 16.9333 27.2617C18.5542 28.3314 19.7128 29.9723 20.1785 31.8577C20.6442 33.7431 20.3829 35.7348 19.4465 37.4362C18.5101 39.1376 16.9674 40.424 15.1254 41.0394V43.875C15.1254 44.737 15.4678 45.5636 16.0773 46.1731C16.6868 46.7826 17.5134 47.125 18.3754 47.125H34.6254C35.4873 47.125 36.314 46.7826 36.9235 46.1731C37.533 45.5636 37.8754 44.737 37.8754 43.875V28.4375C37.8754 28.222 37.961 28.0153 38.1133 27.863C38.2657 27.7106 38.4724 27.625 38.6879 27.625C38.9034 27.625 39.11 27.7106 39.2624 27.863C39.4148 28.0153 39.5004 28.222 39.5004 28.4375V43.875C39.5004 45.1679 38.9868 46.4079 38.0725 47.3221C37.1583 48.2364 35.9183 48.75 34.6254 48.75ZM12.6879 27.625C11.4826 27.625 10.3045 27.9824 9.30237 28.652C8.30026 29.3216 7.51921 30.2733 7.05799 31.3868C6.59676 32.5003 6.47609 33.7255 6.71122 34.9076C6.94634 36.0897 7.52672 37.1755 8.37894 38.0277C9.23117 38.8799 10.317 39.4603 11.499 39.6954C12.6811 39.9305 13.9064 39.8099 15.0199 39.3486C16.1333 38.8874 17.0851 38.1064 17.7546 37.1043C18.4242 36.1021 18.7816 34.924 18.7816 33.7188C18.7816 32.1026 18.1396 30.5526 16.9968 29.4098C15.854 28.267 14.304 27.625 12.6879 27.625ZM12.6879 38.1875C12.4724 38.1875 12.2657 38.1019 12.1134 37.9495C11.961 37.7972 11.8754 37.5905 11.8754 37.375V37.1719C11.453 37.0686 11.0642 36.8588 10.746 36.5625C10.5947 36.4103 10.5097 36.2043 10.5097 35.9897C10.5097 35.775 10.5947 35.5691 10.746 35.4169C10.8975 35.2704 11.1 35.1886 11.3107 35.1886C11.5214 35.1886 11.7239 35.2704 11.8754 35.4169C12.1121 35.5844 12.3983 35.6674 12.6879 35.6525C12.9122 35.6144 13.1231 35.5198 13.3008 35.3777C13.4785 35.2355 13.6171 35.0505 13.7035 34.84C13.7024 34.7973 13.693 34.7553 13.6757 34.7162C13.6584 34.6772 13.6335 34.642 13.6026 34.6125C13.5717 34.5831 13.5352 34.5601 13.4954 34.5447C13.4555 34.5294 13.4131 34.522 13.3704 34.5231H12.0054C11.486 34.5231 10.988 34.3168 10.6208 33.9496C10.2536 33.5824 10.0473 33.0843 10.0473 32.565C10.1144 32.0576 10.3207 31.5787 10.6434 31.1815C10.9661 30.7842 11.3925 30.4841 11.8754 30.3144V30.0625C11.8754 29.847 11.961 29.6403 12.1134 29.488C12.2657 29.3356 12.4724 29.25 12.6879 29.25C12.9034 29.25 13.11 29.3356 13.2624 29.488C13.4148 29.6403 13.5004 29.847 13.5004 30.0625V30.2656C13.9211 30.3642 14.3098 30.5683 14.6298 30.8587C14.7234 30.9279 14.801 31.0164 14.8574 31.1182C14.9139 31.22 14.9478 31.3328 14.9568 31.4488C14.9659 31.5649 14.9499 31.6815 14.91 31.7908C14.8701 31.9002 14.8071 31.9996 14.7254 32.0825C14.6437 32.1654 14.5451 32.2298 14.4364 32.2713C14.3276 32.3128 14.2112 32.3304 14.0951 32.323C13.9789 32.3156 13.8657 32.2833 13.7631 32.2283C13.6605 32.1733 13.5709 32.097 13.5004 32.0044C13.2608 31.8443 12.9754 31.7672 12.6879 31.785C12.4633 31.8224 12.252 31.9167 12.0742 32.0589C11.8964 32.2012 11.758 32.3866 11.6723 32.5975C11.6733 32.6402 11.6828 32.6822 11.7001 32.7213C11.7174 32.7603 11.7422 32.7955 11.7732 32.825C11.8041 32.8544 11.8405 32.8774 11.8804 32.8928C11.9202 32.9081 11.9627 32.9155 12.0054 32.9144H13.3704C13.8897 32.9144 14.3878 33.1207 14.755 33.4879C15.1222 33.8551 15.3285 34.3532 15.3285 34.8725C15.2614 35.3799 15.055 35.8588 14.7324 36.2561C14.4097 36.6533 13.9832 36.9534 13.5004 37.1231V37.375C13.5004 37.5905 13.4148 37.7972 13.2624 37.9495C13.11 38.1019 12.9034 38.1875 12.6879 38.1875ZM25.3304 30.0625C24.8391 30.0625 24.3679 29.8673 24.0205 29.5199C23.673 29.1725 23.4779 28.7013 23.4779 28.21V23.79C23.4779 23.4551 23.5687 23.1265 23.7407 22.8391C23.9126 22.5517 24.1592 22.3163 24.4543 22.1579C24.7494 21.9995 25.0819 21.9241 25.4164 21.9397C25.751 21.9552 26.075 22.0612 26.3541 22.2463L29.6691 24.4644C29.9239 24.6314 30.1332 24.8593 30.278 25.1273C30.4228 25.3954 30.4986 25.6953 30.4986 26C30.4986 26.3047 30.4228 26.6046 30.278 26.8727C30.1332 27.1407 29.9239 27.3686 29.6691 27.5356L26.3541 29.7537C26.0502 29.9542 25.6944 30.0615 25.3304 30.0625ZM25.3304 23.5625C25.2954 23.557 25.2597 23.557 25.2248 23.5625C25.1871 23.5811 25.1556 23.6102 25.134 23.6462C25.1124 23.6822 25.1016 23.7237 25.1029 23.7656V28.1856C25.1016 28.2276 25.1124 28.269 25.134 28.3051C25.1556 28.3411 25.1871 28.3701 25.2248 28.3887C25.2587 28.4105 25.2982 28.422 25.3385 28.422C25.3788 28.422 25.4183 28.4105 25.4523 28.3887L28.7673 26.1788C28.7992 26.1591 28.8255 26.1316 28.8438 26.0989C28.8621 26.0662 28.8717 26.0294 28.8717 25.9919C28.8717 25.9544 28.8621 25.9175 28.8438 25.8848C28.8255 25.8521 28.7992 25.8246 28.7673 25.805L25.4523 23.595C25.4166 23.5704 25.3735 23.5589 25.3304 23.5625ZM39.0941 25.1875C37.1535 25.1864 35.2845 24.4545 33.8594 23.1373C32.4343 21.8202 31.5575 20.0146 31.4038 18.0801C31.2501 16.1456 31.8308 14.2242 33.0301 12.6985C34.2293 11.1729 35.9593 10.155 37.8754 9.8475V8.125C37.8754 7.26305 37.533 6.4364 36.9235 5.8269C36.314 5.21741 35.4873 4.875 34.6254 4.875H31.0666L30.4735 6.05312C30.406 6.18712 30.3027 6.2998 30.175 6.37867C30.0474 6.45755 29.9004 6.49955 29.7504 6.5H23.2504C23.1003 6.49955 22.9533 6.45755 22.8257 6.37867C22.6981 6.2998 22.5948 6.18712 22.5273 6.05312L21.9341 4.875H18.3754C17.5134 4.875 16.6868 5.21741 16.0773 5.8269C15.4678 6.4364 15.1254 7.26305 15.1254 8.125V22.75C15.1254 22.9655 15.0398 23.1722 14.8874 23.3245C14.735 23.4769 14.5284 23.5625 14.3129 23.5625C14.0974 23.5625 13.8907 23.4769 13.7384 23.3245C13.586 23.1722 13.5004 22.9655 13.5004 22.75V8.125C13.5004 6.83207 14.014 5.59209 14.9282 4.67785C15.8425 3.76361 17.0824 3.25 18.3754 3.25H34.6254C35.9183 3.25 37.1583 3.76361 38.0725 4.67785C38.9868 5.59209 39.5004 6.83207 39.5004 8.125V9.75C41.5475 9.80387 43.4894 10.6688 44.8989 12.1544C46.3083 13.64 47.0699 15.6247 47.016 17.6719C46.9621 19.719 46.0972 21.6609 44.6116 23.0704C43.126 24.4798 41.1413 25.2414 39.0941 25.1875ZM39.0941 11.375C37.8889 11.375 36.7107 11.7324 35.7086 12.402C34.7065 13.0716 33.9255 14.0233 33.4642 15.1368C33.003 16.2503 32.8823 17.4755 33.1175 18.6576C33.3526 19.8397 33.933 20.9255 34.7852 21.7777C35.6374 22.6299 36.7232 23.2103 37.9053 23.4454C39.0874 23.6805 40.3126 23.5599 41.4261 23.0986C42.5396 22.6374 43.4913 21.8564 44.1609 20.8543C44.8305 19.8521 45.1879 18.674 45.1879 17.4688C45.1879 15.8526 44.5459 14.3026 43.4031 13.1598C42.2603 12.017 40.7103 11.375 39.0941 11.375ZM39.0291 22.035C38.9617 22.0435 38.8934 22.0435 38.826 22.035C37.1587 21.4346 35.7838 20.2196 34.9829 18.6388C34.0972 17.0788 34.1704 15.4944 35.2104 14.5031C35.4966 14.2271 35.8429 14.0211 36.2221 13.9013C36.6013 13.7815 37.0031 13.7511 37.396 13.8125C38.0391 13.9102 38.6326 14.2155 39.086 14.6819C39.5377 14.2176 40.1279 13.9125 40.7679 13.8125C41.1595 13.7477 41.5609 13.7749 41.9402 13.8919C42.3195 14.009 42.6665 14.2127 42.9535 14.4869C43.9773 15.4781 44.0991 17.0544 43.2541 18.6144C42.8397 19.4252 42.2665 20.1443 41.5686 20.7292C40.8708 21.314 40.0624 21.7526 39.1916 22.0188C39.1383 22.0306 39.0837 22.036 39.0291 22.035ZM36.9897 15.4375C36.7486 15.4336 36.5154 15.524 36.3398 15.6894C35.6166 16.3881 36.2585 17.615 36.3966 17.8587C36.9771 18.9757 37.9074 19.8718 39.0454 20.41C40.2487 19.9262 41.2359 19.0227 41.8241 17.8669C42.1979 17.1762 42.401 16.2419 41.8241 15.6894C41.7171 15.5884 41.5876 15.5144 41.4464 15.4734C41.3051 15.4324 41.156 15.4257 41.0116 15.4538C40.7835 15.4977 40.5686 15.594 40.384 15.7349C40.1993 15.8759 40.0498 16.0578 39.9473 16.2663C39.7604 16.6562 39.7441 16.6888 39.6304 16.7944C39.4811 16.9291 39.2871 17.0037 39.086 17.0037C38.8849 17.0037 38.6909 16.9291 38.5416 16.7944C38.4198 16.6806 38.4035 16.6481 38.2085 16.25C38.1081 16.0431 37.9613 15.8621 37.7795 15.7212C37.5977 15.5802 37.3858 15.4832 37.1604 15.4375H36.9897Z" fill="black"/>
</svg>
