<svg width="53" height="52" viewBox="0 0 53 52" fill="none" xmlns="http://www.w3.org/2000/svg">
<path d="M5.27041 26.2284C6.03184 26.9685 6.79326 27.208 8.29569 27.2294L24.7704 27.2944C24.9227 27.2944 25.0527 27.3167 25.1186 27.3817C25.1836 27.4467 25.205 27.5776 25.205 27.7299L25.27 44.2055C25.2923 45.707 25.5318 46.4685 26.2933 47.2299C27.3166 48.2745 28.753 48.1009 29.819 47.0562C30.3855 46.4898 30.8423 45.5547 31.2555 44.6837L47.9048 8.77496C48.7749 6.94753 48.6663 5.59739 47.7748 4.72639C46.9029 3.83496 45.5537 3.72632 43.7263 4.59639L7.81655 21.2457C6.94555 21.6589 6.01048 22.1157 5.44405 22.6822C4.39941 23.7482 4.22576 25.1837 5.27041 26.2284ZM9.68855 23.9227C9.66627 23.8577 9.70991 23.7927 9.84084 23.7268L44.2918 7.9021C44.4663 7.8371 44.5527 7.8371 44.6186 7.88075C44.6623 7.94575 44.6623 8.03303 44.5963 8.2076L28.7753 42.6585C28.7103 42.7895 28.6453 42.8331 28.5803 42.8108C28.5358 42.8108 28.4708 42.7245 28.4708 42.6372L28.5794 25.4437C28.5794 24.8996 28.3844 24.5523 28.1662 24.3341C27.948 24.1168 27.5998 23.9209 27.0566 23.9209L9.86312 24.0295C9.77584 24.0295 9.68948 23.9645 9.68948 23.9209" fill="#116390"/>
</svg>
