<svg width="53" height="52" viewBox="0 0 53 52" fill="none" xmlns="http://www.w3.org/2000/svg">
<path d="M47.625 26C47.625 14.3335 38.1665 4.875 26.5 4.875C14.8335 4.875 5.375 14.3335 5.375 26C5.375 37.6665 14.8335 47.125 26.5 47.125C38.1665 47.125 47.625 37.6665 47.625 26Z" stroke="#116390" stroke-miterlimit="10"/>
<path d="M45.7536 17.483C44.1225 17.4931 44.283 20.5024 42.2507 19.0826C41.4961 18.5565 41.032 17.7917 40.0844 17.5592C39.2567 17.356 38.4086 17.5673 37.5911 17.7084C36.6618 17.8689 35.5598 17.941 34.855 18.6449C34.1735 19.3223 33.8129 20.2313 33.0878 20.9127C31.6852 22.2331 31.0931 23.6742 32.0011 25.5409C32.8745 27.3356 34.7016 28.3095 36.6729 28.1816C38.6097 28.0526 40.6217 26.9293 40.5658 29.7436C40.5455 30.7389 40.7537 31.4295 41.0594 32.3548C41.3428 33.2079 41.3235 34.0346 41.3885 34.9152C41.5083 36.5605 41.811 38.4049 42.6275 39.8582L44.151 37.7092C44.3389 37.4431 44.7319 37.0703 44.8254 36.7565C44.9909 36.2009 44.6649 35.2463 44.6273 34.6237C44.5897 34.0011 44.608 33.3704 44.5125 32.7478C44.3785 31.8754 43.8625 31.0578 43.7915 30.1956C43.6604 28.5899 43.954 27.3081 42.7169 25.9655C41.5225 24.6706 39.7716 24.3598 38.0989 24.6228C37.2559 24.7549 33.8627 25.2972 35.2247 23.3706C35.4938 22.9917 35.964 22.6809 36.2667 22.3204C36.5297 22.0066 36.7582 21.4297 37.067 21.1849C37.3757 20.9402 38.7936 20.6588 39.1998 20.7838C39.6061 20.9087 40.0296 21.4947 40.382 21.7547C41.0332 22.2451 41.793 22.5712 42.5971 22.7053C43.9844 22.9084 46.885 22.102 46.8627 20.3227C46.8586 19.4695 46.0665 18.2813 45.7536 17.483ZM29.6946 32.1242C29.1532 29.8452 26.0566 29.0834 24.3869 27.8474C23.4272 27.1365 22.573 26.0386 21.3126 25.9492C20.7317 25.9076 20.2452 26.0335 19.6693 25.8842C19.1412 25.7481 18.7268 25.4638 18.1642 25.5379C17.113 25.676 16.4498 26.7993 15.3204 26.647C14.249 26.5027 13.145 25.2495 12.9012 24.2288C12.5884 22.9166 13.6264 22.491 14.7385 22.3742C15.2026 22.3255 15.7236 22.2727 16.1695 22.4423C16.7565 22.6606 17.0338 23.2355 17.5609 23.5259C18.5491 24.0673 18.7492 23.202 18.5979 22.3245C18.3714 21.0102 18.1073 20.474 19.2793 19.5701C20.0918 18.9465 20.7865 18.4956 20.6565 17.3753C20.5793 16.7172 20.2188 16.4196 20.555 15.7645C20.8099 15.2659 21.5097 14.8159 21.9657 14.5184C23.1428 13.7506 27.0082 13.8074 25.429 11.6584C24.9648 11.0277 24.1086 9.90032 23.2961 9.74595C22.2805 9.55399 21.8296 10.6874 21.1217 11.1871C20.3904 11.7041 18.9665 12.2911 18.2343 11.4918C17.2491 10.4163 18.8873 10.0628 19.2499 9.31227C19.6125 8.56173 18.41 7.1429 17.7661 6.78337L14.7385 10.1786C14.6515 10.7472 14.6818 11.3276 14.8275 11.8841C14.9731 12.4405 15.2311 12.9613 15.5855 13.4144C16.1878 14.1893 17.1465 14.4381 17.1902 15.4964C17.2329 16.512 17.0744 17.032 16.4102 17.746C16.1228 18.0507 15.9197 18.4834 15.6272 18.7688C15.2686 19.1171 15.4017 19.0105 14.8421 19.1059C13.7899 19.2837 12.8941 19.5579 11.8775 19.8382C10.1834 20.3064 10.027 17.5388 9.25512 16.4531L6.71606 18.5037C6.68864 18.8399 7.13247 19.4584 7.25333 19.824C7.947 21.9131 9.34653 23.529 10.2504 25.5277C11.2021 27.6443 13.7574 27.0573 14.8857 28.9118C15.8872 30.5571 14.8177 32.6402 15.5672 34.3627C16.1116 35.6129 17.3954 35.8861 18.281 36.8002C19.1859 37.7234 19.1666 38.9868 19.3047 40.1883C19.4604 41.6015 19.7132 43.0023 20.0614 44.3808C20.1843 44.8571 20.297 45.4868 20.623 45.8799C20.8465 46.15 21.6132 46.3826 21.3035 46.472C21.7361 46.5431 22.507 46.9473 22.8675 46.6507C23.3429 46.2607 23.2159 45.0602 23.2982 44.5179C23.545 42.9031 24.3534 41.3238 25.4442 40.1152C26.5218 38.9228 27.9985 38.1154 28.9085 36.7636C29.7951 35.4453 30.0622 33.667 29.6946 32.1242ZM26.3034 34.7974C25.694 35.8851 24.3372 36.6133 23.4647 37.4776C23.2281 37.7122 22.7243 38.5247 22.4278 38.349C22.2155 38.2231 22.1434 37.1688 22.0652 36.9271C21.6618 35.7099 20.8916 34.6474 19.8603 33.8853C19.5424 33.6446 18.7543 33.3318 18.5725 33.0017C18.3693 32.6432 18.5522 31.7972 18.5593 31.4072C18.5704 30.8384 18.3115 29.8929 18.4516 29.3759C18.6141 28.7798 18.3013 29.1393 18.8345 29.0215C19.1158 28.9585 20.2777 29.1627 20.6281 29.2358C21.1847 29.3516 21.4914 29.6979 21.9301 30.0483C23.0839 30.9735 24.3544 31.6895 25.6473 32.3984C26.6487 32.953 26.9432 33.6548 26.3034 34.7974ZM19.2347 6.81384C19.7161 7.28407 20.169 7.84063 20.8871 7.88735C21.5665 7.93306 22.2074 7.5654 22.8005 8.02751C23.4586 8.53532 23.9329 9.17821 24.8064 9.33665C25.6514 9.49001 26.5461 8.99642 26.7554 8.13212C26.9585 7.30845 26.5207 6.41267 26.4943 5.58595C26.4943 5.47118 26.5563 4.96134 26.4771 4.87501C26.4182 4.81001 25.9266 4.88313 25.8515 4.88516C25.301 4.90141 24.7519 4.93933 24.2041 4.99892C22.2072 5.21506 20.2516 5.71611 18.3968 6.48681C18.6436 6.65743 18.9533 6.72548 19.2347 6.81384ZM36.6973 12.5196C37.5596 12.5196 38.435 12.1337 38.1568 11.1363C37.9232 10.3005 37.525 9.39353 36.5561 9.84446C35.9397 10.1309 35.0662 10.8601 34.9941 11.5832C34.9118 12.4038 36.1225 12.5196 36.6973 12.5196ZM36.0087 16.8838C36.8893 17.4109 38.1954 17.1631 38.8596 16.4105C39.3786 15.8214 39.6843 14.7987 40.6176 14.7997C41.0285 14.7988 41.4233 14.9597 41.7165 15.2476C42.1025 15.6467 42.0263 16.0215 42.1086 16.5212C42.2924 17.6434 43.4959 16.5852 43.8097 16.1505C44.0129 15.8671 44.2881 15.4467 44.1957 15.078C44.1104 14.7337 43.7082 14.367 43.5294 14.0512C43.0074 13.1371 42.5778 12.0738 41.7957 11.3354C41.0432 10.6245 40.1179 10.7067 39.4039 11.4451C38.819 12.0545 38.1395 12.5369 37.7393 13.2783C37.457 13.7993 37.1391 14.0481 36.5673 14.1832C36.2525 14.2574 35.8929 14.2848 35.6289 14.496C34.8936 15.0749 35.312 16.4653 36.0087 16.8838Z" fill="#116390"/>
</svg>
