<svg width="39" height="40" viewBox="0 0 39 40" fill="none" xmlns="http://www.w3.org/2000/svg">
<path d="M4.33333 5.9165C3.18406 5.9165 2.08186 6.37305 1.2692 7.18571C0.456546 7.99837 0 9.10057 0 10.2498L0 29.7498C0 30.8991 0.456546 32.0013 1.2692 32.814C2.08186 33.6266 3.18406 34.0832 4.33333 34.0832H10.8333V5.9165H4.33333ZM34.6667 5.9165H28.1667V34.0832H34.6667C35.8159 34.0832 36.9181 33.6266 37.7308 32.814C38.5435 32.0013 39 30.8991 39 29.7498V10.2498C39 9.10057 38.5435 7.99837 37.7308 7.18571C36.9181 6.37305 35.8159 5.9165 34.6667 5.9165Z" fill="#D52B1E"/>
<path d="M10.834 5.9165H28.1673V34.0832H10.834V5.9165Z" fill="#EEEEEE"/>
<path d="M20.167 24.4555C21.4648 24.6061 22.6283 24.7415 23.9251 24.8899L23.5947 23.8044C23.5704 23.711 23.5737 23.6126 23.6043 23.5211C23.6349 23.4295 23.6914 23.3488 23.7669 23.2888L27.5358 20.2186L26.7558 19.8514C26.4124 19.7289 26.5067 19.535 26.6313 19.0692L27.2065 16.9719L25.0171 17.4344C24.8037 17.4669 24.6617 17.3315 24.6292 17.2015L24.3465 16.2146L22.6153 18.1581C22.3694 18.4701 21.8711 18.4701 22.026 17.7508L22.7659 13.8139L21.7725 14.3285C21.4941 14.4845 21.2157 14.5105 21.0608 14.2321L19.6903 11.6689L18.3199 14.2321C18.1639 14.5105 17.8855 14.4845 17.6071 14.3285L16.6148 13.8139L17.3547 17.7508C17.5107 18.4701 17.0113 18.4701 16.7653 18.1581L15.0342 16.2157L14.7525 17.2026C14.72 17.3326 14.577 17.468 14.3636 17.4355L12.1742 16.9729L12.7494 19.0703C12.8718 19.5361 12.9672 19.73 12.6238 19.8524L11.8438 20.2197L15.6127 23.2899C15.7622 23.4058 15.838 23.6149 15.7838 23.8055L15.4534 24.891L19.2126 24.4566C19.3274 24.4566 19.4033 24.5205 19.4022 24.6527L19.1703 28.6654H20.206L19.9753 24.6527C19.9774 24.5194 20.0522 24.4555 20.167 24.4555Z" fill="#D52B1E"/>
</svg>
