<svg width="53" height="52" viewBox="0 0 53 52" fill="none" xmlns="http://www.w3.org/2000/svg">
<g clip-path="url(#clip0_6247_22006)">
<path d="M16.75 9.75H52.5V39H16.75V9.75ZM49.25 35.75V13H20V35.75H49.25ZM3.75 26V22.75H13.5V26H3.75ZM0.5 19.5V16.25H13.5V19.5H0.5ZM7 32.5V29.25H13.5V32.5H7ZM46 16.25V19.5H23.25V16.25H46ZM36.25 32.5V22.75H46V32.5H36.25ZM39.5 26V29.25H42.75V26H39.5ZM33 29.25V32.5H23.25V29.25H33ZM33 22.75V26H23.25V22.75H33Z" fill="black"/>
</g>
<defs>
<clipPath id="clip0_6247_22006">
<rect width="52" height="52" fill="white" transform="translate(0.5)"/>
</clipPath>
</defs>
</svg>
