<svg width="53" height="52" viewBox="0 0 53 52" fill="none" xmlns="http://www.w3.org/2000/svg">
<path d="M36.8996 7.1502C36.8996 6.63302 37.1051 6.13703 37.4708 5.77134C37.8365 5.40564 38.3324 5.2002 38.8496 5.2002H45.3496C45.8668 5.2002 46.3628 5.40564 46.7285 5.77134C47.0942 6.13703 47.2996 6.63302 47.2996 7.1502V13.6502C47.2996 14.1674 47.0942 14.6634 46.7285 15.0291C46.3628 15.3947 45.8668 15.6002 45.3496 15.6002C44.8324 15.6002 44.3365 15.3947 43.9708 15.0291C43.6051 14.6634 43.3996 14.1674 43.3996 13.6502V11.8562L31.7776 23.4782C31.412 23.8434 30.9164 24.0485 30.3996 24.0485C29.8829 24.0485 29.3872 23.8434 29.0216 23.4782L22.5996 17.0562L11.6276 28.0282C11.4491 28.2198 11.2338 28.3734 10.9946 28.48C10.7554 28.5866 10.4972 28.6439 10.2354 28.6485C9.97355 28.6532 9.71347 28.605 9.47066 28.5069C9.22786 28.4088 9.00729 28.2629 8.82212 28.0777C8.63695 27.8925 8.49097 27.672 8.3929 27.4291C8.29482 27.1863 8.24666 26.9263 8.25128 26.6644C8.2559 26.4026 8.31321 26.1444 8.41979 25.9052C8.52637 25.666 8.68003 25.4507 8.87162 25.2722L21.2216 12.9222C21.5872 12.557 22.0829 12.3519 22.5996 12.3519C23.1164 12.3519 23.612 12.557 23.9776 12.9222L30.3996 19.3442L40.6436 9.1002H38.8496C38.3324 9.1002 37.8365 8.89475 37.4708 8.52905C37.1051 8.16336 36.8996 7.66737 36.8996 7.1502ZM10.2496 36.4002C10.7668 36.4002 11.2628 36.6056 11.6285 36.9713C11.9942 37.337 12.1996 37.833 12.1996 38.3502V44.8502C12.1996 45.3674 11.9942 45.8634 11.6285 46.2291C11.2628 46.5947 10.7668 46.8002 10.2496 46.8002C9.73245 46.8002 9.23646 46.5947 8.87076 46.2291C8.50506 45.8634 8.29962 45.3674 8.29962 44.8502V38.3502C8.29962 37.833 8.50506 37.337 8.87076 36.9713C9.23646 36.6056 9.73245 36.4002 10.2496 36.4002ZM22.5996 30.5502C22.5996 30.033 22.3942 29.537 22.0285 29.1713C21.6628 28.8056 21.1668 28.6002 20.6496 28.6002C20.1324 28.6002 19.6365 28.8056 19.2708 29.1713C18.9051 29.537 18.6996 30.033 18.6996 30.5502V44.8502C18.6996 45.3674 18.9051 45.8634 19.2708 46.2291C19.6365 46.5947 20.1324 46.8002 20.6496 46.8002C21.1668 46.8002 21.6628 46.5947 22.0285 46.2291C22.3942 45.8634 22.5996 45.3674 22.5996 44.8502V30.5502ZM31.0496 33.8002C31.5668 33.8002 32.0628 34.0056 32.4285 34.3713C32.7942 34.737 32.9996 35.233 32.9996 35.7502V44.8502C32.9996 45.3674 32.7942 45.8634 32.4285 46.2291C32.0628 46.5947 31.5668 46.8002 31.0496 46.8002C30.5324 46.8002 30.0365 46.5947 29.6708 46.2291C29.3051 45.8634 29.0996 45.3674 29.0996 44.8502V35.7502C29.0996 35.233 29.3051 34.737 29.6708 34.3713C30.0365 34.0056 30.5324 33.8002 31.0496 33.8002ZM43.3996 25.3502C43.3996 24.833 43.1942 24.337 42.8285 23.9713C42.4628 23.6056 41.9668 23.4002 41.4496 23.4002C40.9324 23.4002 40.4365 23.6056 40.0708 23.9713C39.7051 24.337 39.4996 24.833 39.4996 25.3502V44.8502C39.4996 45.3674 39.7051 45.8634 40.0708 46.2291C40.4365 46.5947 40.9324 46.8002 41.4496 46.8002C41.9668 46.8002 42.4628 46.5947 42.8285 46.2291C43.1942 45.8634 43.3996 45.3674 43.3996 44.8502V25.3502Z" fill="#116390"/>
</svg>
