<svg width="48" height="48" viewBox="0 0 48 48" fill="none" xmlns="http://www.w3.org/2000/svg">
<rect x="0.4" y="0.4" width="47.2" height="47.2" rx="11.6" stroke="#DCDCDC" stroke-width="0.8"/>
<g clip-path="url(#clip0_6247_24237)">
<path d="M23.9666 35.6131V31.2811C23.9666 31.2811 24.2269 30.7581 24.522 30.7581C24.6979 30.7581 24.853 30.8434 24.9551 30.9722C25.2986 31.4228 25.8368 31.7138 26.4431 31.7138C27.4804 31.7138 28.3217 30.8618 28.3217 29.8118C28.3217 28.7607 27.4806 27.9098 26.4431 27.9098C25.837 27.9098 25.299 28.1997 24.9551 28.6499C24.8535 28.7791 24.6983 28.8649 24.522 28.8649C24.2269 28.8649 23.9666 28.3403 23.9666 28.3403V24.0109H19.669C19.3888 23.9807 19.1695 23.7441 19.1695 23.4526C19.1695 23.2746 19.2533 23.1179 19.3813 23.0132C19.8255 22.6656 20.1143 22.1219 20.1143 21.5091C20.1143 20.4576 19.2724 19.6069 18.2338 19.6069C17.1968 19.6069 16.3541 20.4576 16.3541 21.5091C16.3541 22.1221 16.6423 22.6649 17.086 23.0132C17.2146 23.1171 17.2991 23.2739 17.2991 23.4526C17.2991 23.7441 17.0792 23.9807 16.7991 24.0109H12.502V35.6131H23.9666Z" stroke="#181818"/>
<path d="M26.4386 16.2741C25.8332 16.2741 25.2956 16.5654 24.9518 17.0154C24.8496 17.1444 24.6945 17.2296 24.5181 17.2296C24.2303 17.2296 23.9972 17.0083 23.9666 16.7256V12.375H12.502V23.9777H16.954C16.9783 23.9672 17.0006 23.9552 17.0224 23.9421C17.0254 23.9409 17.028 23.9389 17.031 23.9383C17.0522 23.9243 17.0736 23.9098 17.0927 23.8939L17.0966 23.8905C17.1319 23.8611 17.1623 23.8277 17.1889 23.7911C17.194 23.7846 17.199 23.7793 17.203 23.7726C17.212 23.7604 17.2191 23.7458 17.2264 23.7324C17.2346 23.7182 17.2429 23.703 17.2491 23.6878C17.2551 23.6752 17.2596 23.6631 17.2643 23.6503C17.2708 23.6302 17.2766 23.6113 17.2825 23.5916C17.2843 23.5794 17.2877 23.5691 17.2898 23.5579C17.2946 23.5254 17.299 23.493 17.299 23.4591C17.299 23.2809 17.2144 23.1236 17.0858 23.0197C16.6421 22.6721 16.354 22.1282 16.354 21.5162C16.354 20.4656 17.1966 19.6138 18.2336 19.6138C19.2722 19.6138 20.1141 20.4656 20.1141 21.5162C20.1141 22.1299 19.8259 22.6721 19.3811 23.0205C19.2531 23.1246 19.1693 23.2815 19.1693 23.4589C19.1693 23.493 19.1732 23.5252 19.1792 23.5577C19.1807 23.5689 19.1839 23.5798 19.1865 23.5914C19.191 23.6111 19.1974 23.6301 19.204 23.6501C19.2081 23.6629 19.2135 23.6751 19.2191 23.6876C19.2253 23.7028 19.233 23.718 19.242 23.7322C19.2493 23.7457 19.2561 23.7602 19.2649 23.7724C19.2698 23.7789 19.2745 23.7844 19.279 23.7909C19.3061 23.8275 19.3365 23.8609 19.3716 23.8903L19.3757 23.8937C19.3948 23.9096 19.4151 23.9241 19.4363 23.9364C19.4393 23.9387 19.4447 23.9419 19.4447 23.9419C19.4674 23.955 19.4895 23.967 19.5137 23.9775H23.9663V19.6266C23.9968 19.3436 24.2299 19.1226 24.5177 19.1226C24.6932 19.1226 24.8488 19.2077 24.951 19.3372C25.2953 19.7869 25.8323 20.0786 26.4383 20.0786C27.4761 20.0786 28.3183 19.2268 28.3183 18.1757C28.3187 17.1255 27.4765 16.2741 26.4386 16.2741ZM31.0993 24.0077C30.8648 24.0746 30.6936 24.2889 30.6932 24.5483C30.6925 24.7268 30.7766 24.8837 30.9055 24.9881C31.3498 25.3367 31.6367 25.8808 31.636 26.4951C31.6348 27.546 30.7918 28.3976 29.7523 28.3967C28.7134 28.3948 27.8719 27.5419 27.8734 26.49C27.8734 25.8769 28.1621 25.332 28.6076 24.9851C28.7368 24.8816 28.8212 24.7245 28.8201 24.5454C28.8212 24.2874 28.6495 24.0718 28.4156 24.0047L24.0229 23.9987L24.018 28.3515C24.0471 28.6361 24.2803 28.8589 24.5698 28.8596C24.7463 28.8596 24.9023 28.7747 25.005 28.6446C25.3481 28.1944 25.8872 27.9039 26.4932 27.9056C27.5327 27.9064 28.3733 28.7606 28.3729 29.8114C28.3718 30.8636 27.528 31.7145 26.4891 31.7137C25.8829 31.7137 25.3446 31.4205 25.0009 30.9705C24.8991 30.8396 24.7436 30.7556 24.5678 30.7543C24.2783 30.7551 24.0452 30.9771 24.0146 31.2613L24.01 35.6134L35.4848 35.625L35.4973 24.0126L31.0993 24.0077Z" stroke="#181818"/>
<path d="M23.8418 12.375H24.2072" stroke="#181818" stroke-width="0.75"/>
<path d="M24.9336 12.375H34.7672" stroke="#181818" stroke-dasharray="0.75 0.75"/>
<path d="M35.1328 12.375H35.4979V12.7399" stroke="#181818" stroke-width="0.75"/>
<path d="M35.498 13.478V23.438" stroke="#181818" stroke-dasharray="0.76 0.76"/>
<path d="M35.498 23.8066V24.1719" stroke="#181818" stroke-width="0.75"/>
</g>
<defs>
<clipPath id="clip0_6247_24237">
<rect width="24" height="24" fill="white" transform="translate(12 12)"/>
</clipPath>
</defs>
</svg>
