<svg width="48" height="48" viewBox="0 0 48 48" fill="none" xmlns="http://www.w3.org/2000/svg">
<rect x="0.4" y="0.4" width="47.2" height="47.2" rx="11.6" stroke="#050505" stroke-width="0.8"/>
<g clip-path="url(#clip0_6247_24230)">
<path d="M33.5689 33.0896V35.5443C33.5689 35.7965 33.3654 36 33.1132 36C32.8611 36 32.6575 35.7965 32.6575 35.5443V33.0896C32.6575 31.0086 30.9654 29.3165 28.8844 29.3165H26.6484L24.3547 32.1843C24.1816 32.4 23.817 32.4 23.6439 32.1843L21.3502 29.3165H19.1142C17.0332 29.3165 15.3411 31.0086 15.3411 33.0896V35.5443C15.3411 35.7965 15.1375 36 14.8854 36C14.6332 36 14.4297 35.7965 14.4297 35.5443V33.0896C14.4297 30.5073 16.532 28.4051 19.1142 28.4051H21.5689C21.7087 28.4051 21.8393 28.4689 21.9244 28.5752L23.9993 31.1696L26.0742 28.5752C26.1593 28.4658 26.2899 28.4051 26.4297 28.4051H28.8844C31.4667 28.4051 33.5689 30.5073 33.5689 33.0896ZM18.531 33.2658C18.2788 33.2658 18.0753 33.4694 18.0753 33.7215V35.5443C18.0753 35.7965 18.2788 36 18.531 36C18.7831 36 18.9866 35.7965 18.9866 35.5443V33.7215C18.9866 33.4694 18.7831 33.2658 18.531 33.2658ZM29.4677 33.2658C29.2155 33.2658 29.012 33.4694 29.012 33.7215V35.5443C29.012 35.7965 29.2155 36 29.4677 36C29.7198 36 29.9234 35.7965 29.9234 35.5443V33.7215C29.9234 33.4694 29.7198 33.2658 29.4677 33.2658ZM23.9993 14.1266C24.2515 14.1266 24.455 13.923 24.455 13.6709V12.4557C24.455 12.2035 24.2515 12 23.9993 12C23.7472 12 23.5436 12.2035 23.5436 12.4557V13.6709C23.5436 13.923 23.7472 14.1266 23.9993 14.1266ZM16.1006 20.2025H17.3158C17.5679 20.2025 17.7715 19.999 17.7715 19.7468C17.7715 19.4947 17.5679 19.2911 17.3158 19.2911H16.1006C15.8484 19.2911 15.6449 19.4947 15.6449 19.7468C15.6449 19.999 15.8484 20.2025 16.1006 20.2025ZM30.6829 20.2025H31.898C32.1502 20.2025 32.3537 19.999 32.3537 19.7468C32.3537 19.4947 32.1502 19.2911 31.898 19.2911H30.6829C30.4307 19.2911 30.2272 19.4947 30.2272 19.7468C30.2272 19.999 30.4307 20.2025 30.6829 20.2025ZM18.9502 15.3418C19.0383 15.4299 19.1568 15.4754 19.2722 15.4754C19.3877 15.4754 19.5061 15.4299 19.5942 15.3418C19.7735 15.1625 19.7735 14.8739 19.5942 14.6977L18.7345 13.838C18.5553 13.6587 18.2666 13.6587 18.0904 13.838C17.9112 14.0172 17.9112 14.3058 18.0904 14.482L18.9502 15.3418ZM29.0484 24.1519C28.8692 23.9727 28.5806 23.9727 28.4044 24.1519C28.2251 24.3311 28.2251 24.6197 28.4044 24.7959L29.2641 25.6557C29.3522 25.7438 29.4707 25.7894 29.5861 25.7894C29.7016 25.7894 29.8201 25.7438 29.9082 25.6557C30.0874 25.4765 30.0874 25.1878 29.9082 25.0116L29.0484 24.1519ZM28.7264 15.4754C28.8418 15.4754 28.9603 15.4299 29.0484 15.3418L29.9082 14.482C30.0874 14.3028 30.0874 14.0142 29.9082 13.838C29.7289 13.6587 29.4403 13.6587 29.2641 13.838L28.4044 14.6977C28.2251 14.877 28.2251 15.1656 28.4044 15.3418C28.4925 15.4329 28.6079 15.4754 28.7264 15.4754ZM18.4155 25.7863C18.531 25.7863 18.6494 25.7408 18.7375 25.6527L19.5973 24.7929C19.7765 24.6137 19.7765 24.3251 19.5973 24.1489C19.418 23.9696 19.1294 23.9696 18.9532 24.1489L18.0935 25.0086C17.9142 25.1878 17.9142 25.4765 18.0935 25.6527C18.1816 25.7438 18.297 25.7863 18.4155 25.7863ZM18.9866 20.0506C18.9866 18.6653 19.5396 17.3742 20.5482 16.4172C21.5537 15.4603 22.8753 14.9742 24.2606 15.0441C26.8337 15.1747 28.9208 17.2952 29.0089 19.8684C29.0697 21.5878 28.2585 23.198 26.8429 24.1762C26.4904 24.4192 26.2778 24.802 26.2778 25.2V26.4152C26.2778 27.0106 25.7948 27.4937 25.1993 27.4937H22.7963C22.2008 27.4937 21.7178 27.0106 21.7178 26.4152V25.2C21.7178 24.8051 21.5082 24.4223 21.1527 24.1792C19.7978 23.2405 18.9866 21.6972 18.9866 20.0506ZM25.3664 25.203C25.3664 25.1575 25.3725 25.1119 25.3755 25.0633H22.6231C22.6261 25.1089 22.6322 25.1544 22.6322 25.2V26.4152C22.6322 26.5063 22.7082 26.5823 22.7993 26.5823H25.2023C25.2935 26.5823 25.3694 26.5063 25.3694 26.4152V25.203H25.3664ZM19.898 20.0506C19.898 21.3995 20.5603 22.6603 21.6722 23.4289C21.9517 23.6233 22.1796 23.8724 22.3406 24.1519H25.655C25.8191 23.8724 26.0439 23.6233 26.3234 23.4289C27.4839 22.6299 28.1461 21.3114 28.0975 19.9018C28.0246 17.7934 26.3173 16.0618 24.212 15.9554C24.1391 15.9524 24.0692 15.9494 23.9963 15.9494C22.9391 15.9494 21.9426 16.3443 21.174 17.0795C20.3507 17.8603 19.898 18.9175 19.898 20.0506Z" fill="#23A501" stroke="#23A501" stroke-width="0.379747"/>
</g>
<defs>
<clipPath id="clip0_6247_24230">
<rect width="24" height="24" fill="white" transform="translate(12 12)"/>
</clipPath>
</defs>
</svg>
