<svg width="260" height="112" viewBox="0 0 260 112" fill="none" xmlns="http://www.w3.org/2000/svg">
<g filter="url(#filter0_dddd_6247_24316)">
<rect x="6" y="1" width="248" height="90" rx="16" fill="white"/>
<rect x="6.15" y="1.15" width="247.7" height="89.7" rx="15.85" stroke="#0C6FFF" stroke-width="0.3"/>
<path d="M15.216 24.448C15.344 22.6133 15.9413 21.0347 17.008 19.712C18.0747 18.368 19.4827 17.3333 21.232 16.608C23.0027 15.8827 25.008 15.52 27.248 15.52C29.3813 15.52 31.248 15.8507 32.848 16.512C34.448 17.152 35.696 18.0587 36.592 19.232C37.488 20.4053 37.936 21.7707 37.936 23.328C37.936 24.5227 37.6267 25.632 37.008 26.656C36.3893 27.68 35.3973 28.7147 34.032 29.76C32.688 30.784 30.896 31.8933 28.656 33.088L21.392 37.088L20.976 35.616H38.608V40H15.568V36.16L25.84 30.144C27.5467 29.1627 28.88 28.32 29.84 27.616C30.8 26.8907 31.4827 26.2187 31.888 25.6C32.2933 24.9813 32.496 24.32 32.496 23.616C32.496 22.8693 32.2933 22.208 31.888 21.632C31.4827 21.056 30.8747 20.608 30.064 20.288C29.2747 19.968 28.272 19.808 27.056 19.808C25.6267 19.808 24.4533 20.0213 23.536 20.448C22.6187 20.8533 21.9253 21.408 21.456 22.112C21.008 22.816 20.7413 23.5947 20.656 24.448H15.216ZM41.6328 23.584C41.7608 22.0693 42.2941 20.704 43.2328 19.488C44.1928 18.272 45.5474 17.312 47.2968 16.608C49.0461 15.8827 51.1474 15.52 53.6008 15.52C55.7554 15.52 57.6221 15.7973 59.2008 16.352C60.7794 16.9067 62.0061 17.6747 62.8808 18.656C63.7554 19.6373 64.1928 20.8 64.1928 22.144C64.1928 23.232 63.8621 24.224 63.2008 25.12C62.5608 25.9947 61.5581 26.6987 60.1928 27.232C58.8274 27.744 57.0994 27.9893 55.0088 27.968V27.36C57.0354 27.2533 58.7634 27.4133 60.1928 27.84C61.6434 28.2453 62.7634 28.8853 63.5528 29.76C64.3421 30.6347 64.7368 31.7333 64.7368 33.056C64.7368 34.4853 64.2781 35.7653 63.3608 36.896C62.4648 38.0053 61.1528 38.88 59.4248 39.52C57.6968 40.16 55.5954 40.48 53.1208 40.48C50.7101 40.48 48.6088 40.1387 46.8168 39.456C45.0248 38.7733 43.6274 37.8133 42.6248 36.576C41.6221 35.3387 41.0781 33.888 40.9928 32.224H46.4328C46.6034 33.504 47.2434 34.4853 48.3528 35.168C49.4621 35.8507 51.0514 36.192 53.1208 36.192C55.1261 36.192 56.6408 35.8827 57.6648 35.264C58.6888 34.6453 59.2008 33.7813 59.2008 32.672C59.2008 32.0107 59.0301 31.456 58.6888 31.008C58.3474 30.56 57.7608 30.2293 56.9288 30.016C56.1181 29.7813 55.0088 29.664 53.6008 29.664H49.3767V25.856H53.6008C55.4354 25.856 56.7474 25.5787 57.5368 25.024C58.3261 24.4693 58.7208 23.7547 58.7208 22.88C58.7208 21.8987 58.2728 21.1413 57.3768 20.608C56.4808 20.0747 55.1261 19.808 53.3128 19.808C51.4568 19.808 50.0061 20.1387 48.9608 20.8C47.9154 21.44 47.2861 22.368 47.0728 23.584H41.6328ZM80.81 40.48C78.122 40.48 75.7967 39.968 73.834 38.944C71.8927 37.8987 70.3887 36.4373 69.322 34.56C68.2553 32.6827 67.722 30.496 67.722 28C67.722 25.504 68.2553 23.3173 69.322 21.44C70.3887 19.5627 71.8927 18.112 73.834 17.088C75.7967 16.0427 78.122 15.52 80.81 15.52C83.4767 15.52 85.7807 16.0427 87.722 17.088C89.6847 18.112 91.1993 19.5627 92.266 21.44C93.3327 23.3173 93.866 25.504 93.866 28C93.866 30.496 93.3327 32.6827 92.266 34.56C91.1993 36.4373 89.6847 37.8987 87.722 38.944C85.7807 39.968 83.4767 40.48 80.81 40.48ZM80.81 36.064C83.2207 36.064 85.0873 35.36 86.41 33.952C87.754 32.5227 88.426 30.5387 88.426 28C88.426 25.44 87.754 23.456 86.41 22.048C85.0873 20.64 83.2207 19.936 80.81 19.936C78.3993 19.936 76.522 20.64 75.178 22.048C73.834 23.456 73.162 25.44 73.162 28C73.162 30.56 73.834 32.544 75.178 33.952C76.522 35.36 78.3993 36.064 80.81 36.064ZM103.28 37.632V19.712H107.248V37.632H103.28ZM96.3038 30.656V26.688H114.224V30.656H96.3038Z" fill="#21DC1F"/>
<path d="M24.768 66.576C24.6507 67.2907 24.3573 67.92 23.888 68.464C23.4293 69.008 22.8427 69.4347 22.128 69.744C21.4133 70.0533 20.624 70.208 19.76 70.208C18.7573 70.208 17.872 70.0107 17.104 69.616C16.336 69.2107 15.7333 68.656 15.296 67.952C14.8693 67.2373 14.656 66.416 14.656 65.488C14.656 64.56 14.8693 63.744 15.296 63.04C15.7333 62.3253 16.336 61.7707 17.104 61.376C17.872 60.9813 18.7573 60.784 19.76 60.784C20.624 60.784 21.4133 60.9387 22.128 61.248C22.8427 61.5467 23.4293 61.968 23.888 62.512C24.3573 63.056 24.6507 63.6907 24.768 64.416H23.248C23.088 63.6693 22.688 63.0827 22.048 62.656C21.4187 62.2187 20.656 62 19.76 62C19.0347 62 18.4 62.144 17.856 62.432C17.3227 62.72 16.9067 63.1253 16.608 63.648C16.3093 64.16 16.16 64.7733 16.16 65.488C16.16 66.2027 16.3093 66.8213 16.608 67.344C16.9067 67.8667 17.3227 68.272 17.856 68.56C18.4 68.8373 19.0347 68.976 19.76 68.976C20.6667 68.976 21.4347 68.7573 22.064 68.32C22.704 67.8827 23.0987 67.3013 23.248 66.576H24.768ZM30.2405 70.208C29.4192 70.208 28.7205 70.0427 28.1445 69.712C27.5792 69.3707 27.1418 68.88 26.8325 68.24C26.5338 67.6 26.3845 66.832 26.3845 65.936V60.992H27.8565V65.696C27.8565 66.7627 28.0965 67.5733 28.5765 68.128C29.0565 68.672 29.7552 68.944 30.6725 68.944C31.3232 68.944 31.8885 68.8 32.3685 68.512C32.8485 68.2133 33.2218 67.7973 33.4885 67.264C33.7552 66.7307 33.8885 66.112 33.8885 65.408L34.4645 65.744C34.4005 66.6507 34.1765 67.44 33.7925 68.112C33.4192 68.784 32.9285 69.3013 32.3205 69.664C31.7125 70.0267 31.0192 70.208 30.2405 70.208ZM34.3845 70L33.8885 66.928V60.992H35.3605V67.152L35.8565 70H34.3845ZM46.6246 67.36C46.6246 67.936 46.4486 68.4373 46.0966 68.864C45.7553 69.2907 45.2486 69.6213 44.5766 69.856C43.9153 70.0907 43.11 70.208 42.1606 70.208C41.19 70.208 40.3313 70.0747 39.5846 69.808C38.8486 69.5307 38.2726 69.1467 37.8566 68.656C37.4406 68.1653 37.2166 67.5947 37.1846 66.944H38.6886C38.7526 67.36 38.9393 67.728 39.2486 68.048C39.558 68.3573 39.9633 68.5973 40.4646 68.768C40.966 68.9387 41.5366 69.024 42.1766 69.024C43.1046 69.024 43.83 68.8853 44.3526 68.608C44.886 68.32 45.1526 67.9307 45.1526 67.44C45.1526 67.056 44.982 66.7733 44.6406 66.592C44.2993 66.4 43.6646 66.256 42.7366 66.16L40.9926 65.984C40.1286 65.8987 39.4353 65.744 38.9126 65.52C38.4006 65.2853 38.0326 64.9973 37.8086 64.656C37.5846 64.304 37.4726 63.9147 37.4726 63.488C37.4726 62.9013 37.6486 62.4107 38.0006 62.016C38.3633 61.6107 38.8646 61.3067 39.5046 61.104C40.1446 60.8907 40.886 60.784 41.7286 60.784C42.6246 60.784 43.4193 60.912 44.1126 61.168C44.8166 61.424 45.3766 61.7813 45.7926 62.24C46.2086 62.6987 46.438 63.2267 46.4806 63.824H44.9926C44.9393 63.4827 44.7793 63.1733 44.5126 62.896C44.246 62.608 43.8726 62.3787 43.3926 62.208C42.9233 62.0373 42.342 61.952 41.6486 61.952C40.7953 61.952 40.1286 62.0747 39.6486 62.32C39.1793 62.5653 38.9446 62.9227 38.9446 63.392C38.9446 63.7333 39.0993 64.0053 39.4086 64.208C39.718 64.4107 40.2673 64.5547 41.0566 64.64L43.0406 64.848C43.9473 64.9333 44.662 65.0827 45.1846 65.296C45.7073 65.5093 46.0753 65.7867 46.2886 66.128C46.5126 66.4693 46.6246 66.88 46.6246 67.36ZM47.2359 62.176V61.472L49.2199 61.104L49.8119 58.656H50.6919V60.992H55.0759V62.176H50.6919V66.752C50.6919 67.5627 50.8679 68.1333 51.2199 68.464C51.5825 68.784 52.1372 68.944 52.8839 68.944C53.3745 68.944 53.8012 68.8853 54.1639 68.768C54.5372 68.6507 54.8999 68.48 55.2519 68.256V69.552C54.9959 69.712 54.6172 69.8613 54.1159 70C53.6252 70.1387 53.1132 70.208 52.5799 70.208C51.7692 70.208 51.1132 70.0693 50.6119 69.792C50.1212 69.504 49.7639 69.12 49.5399 68.64C49.3265 68.1493 49.2199 67.5947 49.2199 66.976V62.176H47.2359ZM61.3125 70.208C60.2565 70.208 59.3232 70.0107 58.5125 69.616C57.7125 69.2213 57.0885 68.6667 56.6405 67.952C56.1925 67.2373 55.9685 66.416 55.9685 65.488C55.9685 64.5493 56.1925 63.728 56.6405 63.024C57.0885 62.32 57.7125 61.7707 58.5125 61.376C59.3232 60.9813 60.2565 60.784 61.3125 60.784C62.3792 60.784 63.3125 60.9813 64.1125 61.376C64.9125 61.7707 65.5365 62.32 65.9845 63.024C66.4432 63.728 66.6725 64.5493 66.6725 65.488C66.6725 66.416 66.4432 67.2373 65.9845 67.952C65.5365 68.6667 64.9125 69.2213 64.1125 69.616C63.3125 70.0107 62.3792 70.208 61.3125 70.208ZM61.3125 68.976C62.1018 68.976 62.7845 68.8373 63.3605 68.56C63.9365 68.272 64.3792 67.8667 64.6885 67.344C65.0085 66.8213 65.1685 66.2027 65.1685 65.488C65.1685 64.784 65.0085 64.1707 64.6885 63.648C64.3792 63.1253 63.9365 62.72 63.3605 62.432C62.7845 62.144 62.1018 62 61.3125 62C60.5338 62 59.8512 62.144 59.2645 62.432C58.6885 62.72 58.2458 63.1253 57.9365 63.648C57.6272 64.1707 57.4725 64.784 57.4725 65.488C57.4725 66.2027 57.6272 66.8213 57.9365 67.344C58.2458 67.8667 58.6885 68.272 59.2645 68.56C59.8512 68.8373 60.5338 68.976 61.3125 68.976ZM68.0965 60.992H69.5685L70.0805 64.048V70H68.6085V63.84L68.0965 60.992ZM73.5205 60.784C74.2992 60.784 74.9605 60.9547 75.5045 61.296C76.0485 61.6267 76.4645 62.112 76.7525 62.752C77.0405 63.3813 77.1845 64.144 77.1845 65.04V70H75.7125V65.296C75.7125 64.2187 75.4885 63.408 75.0405 62.864C74.5925 62.3093 73.9418 62.032 73.0885 62.032C72.4805 62.032 71.9472 62.1813 71.4885 62.48C71.0405 62.7787 70.6938 63.1947 70.4485 63.728C70.2032 64.2507 70.0805 64.864 70.0805 65.568L69.4885 65.152C69.5632 64.256 69.7765 63.4827 70.1285 62.832C70.4912 62.1813 70.9605 61.68 71.5365 61.328C72.1232 60.9653 72.7845 60.784 73.5205 60.784ZM80.6085 60.784C81.3872 60.784 82.0485 60.9547 82.5925 61.296C83.1472 61.6267 83.5685 62.112 83.8565 62.752C84.1445 63.3813 84.2885 64.144 84.2885 65.04V70H82.8165V65.296C82.8165 64.2187 82.5925 63.408 82.1445 62.864C81.6965 62.3093 81.0458 62.032 80.1925 62.032C79.5845 62.032 79.0512 62.1813 78.5925 62.48C78.1445 62.7787 77.7978 63.1947 77.5525 63.728C77.3072 64.2507 77.1845 64.864 77.1845 65.568L76.5925 65.152C76.6672 64.256 76.8805 63.4827 77.2325 62.832C77.5952 62.1813 78.0645 61.68 78.6405 61.328C79.2272 60.9653 79.8832 60.784 80.6085 60.784ZM91.2958 70.208C90.2611 70.208 89.3438 70.0107 88.5438 69.616C87.7544 69.2107 87.1304 68.656 86.6718 67.952C86.2238 67.2373 85.9998 66.416 85.9998 65.488C85.9998 64.5493 86.2131 63.728 86.6398 63.024C87.0664 62.32 87.6584 61.7707 88.4158 61.376C89.1731 60.9813 90.0424 60.784 91.0238 60.784C91.9944 60.784 92.8424 60.9973 93.5677 61.424C94.2931 61.8507 94.8531 62.4533 95.2478 63.232C95.6531 64 95.8558 64.896 95.8558 65.92H87.1198V64.752H95.2318L94.3678 65.28C94.3358 64.608 94.1758 64.0267 93.8878 63.536C93.5998 63.0453 93.2104 62.6667 92.7198 62.4C92.2291 62.1333 91.6584 62 91.0078 62C90.3038 62 89.6904 62.144 89.1678 62.432C88.6451 62.7093 88.2344 63.104 87.9358 63.616C87.6478 64.128 87.5038 64.7307 87.5038 65.424C87.5038 66.1493 87.6691 66.7787 87.9998 67.312C88.3304 67.8453 88.7944 68.256 89.3918 68.544C89.9891 68.832 90.6931 68.976 91.5038 68.976C92.2398 68.976 92.9598 68.8533 93.6638 68.608C94.3784 68.3627 95.0184 68.0267 95.5838 67.6V68.752C95.0291 69.2 94.3678 69.5573 93.5998 69.824C92.8318 70.08 92.0638 70.208 91.2958 70.208ZM97.2684 60.992H98.7404L99.2524 64.064V70H97.7804V63.792L97.2684 60.992ZM104.036 60.96V62.288C103.834 62.224 103.594 62.176 103.316 62.144C103.05 62.112 102.794 62.096 102.548 62.096C101.908 62.096 101.338 62.24 100.836 62.528C100.335 62.816 99.9457 63.2373 99.6684 63.792C99.391 64.336 99.2524 64.9813 99.2524 65.728L98.8364 65.152C98.8577 64.5227 98.959 63.9413 99.1404 63.408C99.3217 62.8747 99.5777 62.416 99.9084 62.032C100.25 61.6373 100.655 61.3333 101.124 61.12C101.604 60.896 102.143 60.784 102.74 60.784C102.964 60.784 103.194 60.8 103.428 60.832C103.674 60.864 103.876 60.9067 104.036 60.96ZM107.861 62.176V61.472L109.845 61.104L110.437 58.656H111.317V60.992H115.701V62.176H111.317V66.752C111.317 67.5627 111.493 68.1333 111.845 68.464C112.208 68.784 112.762 68.944 113.509 68.944C114 68.944 114.426 68.8853 114.789 68.768C115.162 68.6507 115.525 68.48 115.877 68.256V69.552C115.621 69.712 115.242 69.8613 114.741 70C114.25 70.1387 113.738 70.208 113.205 70.208C112.394 70.208 111.738 70.0693 111.237 69.792C110.746 69.504 110.389 69.12 110.165 68.64C109.952 68.1493 109.845 67.5947 109.845 66.976V62.176H107.861ZM117.05 60.992H118.522L119.034 64.064V70H117.562V63.792L117.05 60.992ZM123.818 60.96V62.288C123.615 62.224 123.375 62.176 123.098 62.144C122.831 62.112 122.575 62.096 122.33 62.096C121.69 62.096 121.119 62.24 120.618 62.528C120.116 62.816 119.727 63.2373 119.45 63.792C119.172 64.336 119.034 64.9813 119.034 65.728L118.618 65.152C118.639 64.5227 118.74 63.9413 118.922 63.408C119.103 62.8747 119.359 62.416 119.69 62.032C120.031 61.6373 120.436 61.3333 120.906 61.12C121.386 60.896 121.924 60.784 122.522 60.784C122.746 60.784 122.975 60.8 123.21 60.832C123.455 60.864 123.658 60.9067 123.818 60.96ZM128.944 70.208C128.122 70.208 127.424 70.0427 126.848 69.712C126.282 69.3707 125.845 68.88 125.536 68.24C125.237 67.6 125.088 66.832 125.088 65.936V60.992H126.56V65.696C126.56 66.7627 126.8 67.5733 127.28 68.128C127.76 68.672 128.458 68.944 129.376 68.944C130.026 68.944 130.592 68.8 131.072 68.512C131.552 68.2133 131.925 67.7973 132.192 67.264C132.458 66.7307 132.592 66.112 132.592 65.408L133.168 65.744C133.104 66.6507 132.88 67.44 132.496 68.112C132.122 68.784 131.632 69.3013 131.024 69.664C130.416 70.0267 129.722 70.208 128.944 70.208ZM133.088 70L132.592 66.928V60.992H134.064V67.152L134.56 70H133.088ZM145.328 67.36C145.328 67.936 145.152 68.4373 144.8 68.864C144.458 69.2907 143.952 69.6213 143.28 69.856C142.618 70.0907 141.813 70.208 140.864 70.208C139.893 70.208 139.034 70.0747 138.288 69.808C137.552 69.5307 136.976 69.1467 136.56 68.656C136.144 68.1653 135.92 67.5947 135.888 66.944H137.392C137.456 67.36 137.642 67.728 137.952 68.048C138.261 68.3573 138.666 68.5973 139.168 68.768C139.669 68.9387 140.24 69.024 140.88 69.024C141.808 69.024 142.533 68.8853 143.056 68.608C143.589 68.32 143.856 67.9307 143.856 67.44C143.856 67.056 143.685 66.7733 143.344 66.592C143.002 66.4 142.368 66.256 141.44 66.16L139.696 65.984C138.832 65.8987 138.138 65.744 137.616 65.52C137.104 65.2853 136.736 64.9973 136.512 64.656C136.288 64.304 136.176 63.9147 136.176 63.488C136.176 62.9013 136.352 62.4107 136.704 62.016C137.066 61.6107 137.568 61.3067 138.208 61.104C138.848 60.8907 139.589 60.784 140.432 60.784C141.328 60.784 142.122 60.912 142.816 61.168C143.52 61.424 144.08 61.7813 144.496 62.24C144.912 62.6987 145.141 63.2267 145.184 63.824H143.696C143.642 63.4827 143.482 63.1733 143.216 62.896C142.949 62.608 142.576 62.3787 142.096 62.208C141.626 62.0373 141.045 61.952 140.352 61.952C139.498 61.952 138.832 62.0747 138.352 62.32C137.882 62.5653 137.648 62.9227 137.648 63.392C137.648 63.7333 137.802 64.0053 138.112 64.208C138.421 64.4107 138.97 64.5547 139.76 64.64L141.744 64.848C142.65 64.9333 143.365 65.0827 143.888 65.296C144.41 65.5093 144.778 65.7867 144.992 66.128C145.216 66.4693 145.328 66.88 145.328 67.36ZM145.939 62.176V61.472L147.923 61.104L148.515 58.656H149.395V60.992H153.779V62.176H149.395V66.752C149.395 67.5627 149.571 68.1333 149.923 68.464C150.286 68.784 150.84 68.944 151.587 68.944C152.078 68.944 152.504 68.8853 152.867 68.768C153.24 68.6507 153.603 68.48 153.955 68.256V69.552C153.699 69.712 153.32 69.8613 152.819 70C152.328 70.1387 151.816 70.208 151.283 70.208C150.472 70.208 149.816 70.0693 149.315 69.792C148.824 69.504 148.467 69.12 148.243 68.64C148.03 68.1493 147.923 67.5947 147.923 66.976V62.176H145.939Z" fill="#5C5C5C"/>
</g>
<defs>
<filter id="filter0_dddd_6247_24316" x="0" y="0" width="260" height="112" filterUnits="userSpaceOnUse" color-interpolation-filters="sRGB">
<feFlood flood-opacity="0" result="BackgroundImageFix"/>
<feColorMatrix in="SourceAlpha" type="matrix" values="0 0 0 0 0 0 0 0 0 0 0 0 0 0 0 0 0 0 127 0" result="hardAlpha"/>
<feOffset dy="1"/>
<feGaussianBlur stdDeviation="1"/>
<feColorMatrix type="matrix" values="0 0 0 0 0 0 0 0 0 0 0 0 0 0 0 0 0 0 0.1 0"/>
<feBlend mode="normal" in2="BackgroundImageFix" result="effect1_dropShadow_6247_24316"/>
<feColorMatrix in="SourceAlpha" type="matrix" values="0 0 0 0 0 0 0 0 0 0 0 0 0 0 0 0 0 0 127 0" result="hardAlpha"/>
<feOffset dy="4"/>
<feGaussianBlur stdDeviation="2"/>
<feColorMatrix type="matrix" values="0 0 0 0 0 0 0 0 0 0 0 0 0 0 0 0 0 0 0.09 0"/>
<feBlend mode="normal" in2="effect1_dropShadow_6247_24316" result="effect2_dropShadow_6247_24316"/>
<feColorMatrix in="SourceAlpha" type="matrix" values="0 0 0 0 0 0 0 0 0 0 0 0 0 0 0 0 0 0 127 0" result="hardAlpha"/>
<feOffset dy="9"/>
<feGaussianBlur stdDeviation="2.5"/>
<feColorMatrix type="matrix" values="0 0 0 0 0 0 0 0 0 0 0 0 0 0 0 0 0 0 0.05 0"/>
<feBlend mode="normal" in2="effect2_dropShadow_6247_24316" result="effect3_dropShadow_6247_24316"/>
<feColorMatrix in="SourceAlpha" type="matrix" values="0 0 0 0 0 0 0 0 0 0 0 0 0 0 0 0 0 0 127 0" result="hardAlpha"/>
<feOffset dy="15"/>
<feGaussianBlur stdDeviation="3"/>
<feColorMatrix type="matrix" values="0 0 0 0 0 0 0 0 0 0 0 0 0 0 0 0 0 0 0.01 0"/>
<feBlend mode="normal" in2="effect3_dropShadow_6247_24316" result="effect4_dropShadow_6247_24316"/>
<feBlend mode="normal" in="SourceGraphic" in2="effect4_dropShadow_6247_24316" result="shape"/>
</filter>
</defs>
</svg>
