<svg width="48" height="48" viewBox="0 0 48 48" fill="none" xmlns="http://www.w3.org/2000/svg">
<rect x="0.4" y="0.4" width="47.2" height="47.2" rx="11.6" stroke="#DCDCDC" stroke-width="0.8"/>
<path d="M33.9057 20.1144C34.2105 18.0191 32.3057 13.7144 27.8105 13.7144C25.8676 13.7144 24.0771 14.6286 22.9343 16.1525C19.5438 13.7905 15.7724 16.3048 15.62 19.5048C13.639 19.8477 12.1914 21.562 12.1914 23.6191C12.1914 25.9429 14.0962 27.962 16.7628 27.8096V27.0477C14.7819 27.3525 12.8771 25.4477 12.9533 23.6191C13.1057 20.1905 16.3819 20.1525 16.3819 20.1525C16.1152 16.5334 20.4962 14.5144 23.0866 17.2953C23.0866 17.2953 24.5343 14.4763 27.8105 14.4763C31.5057 14.4763 33.5628 17.981 33.1057 20.5334C33.1057 20.5334 35.0485 21.4477 35.0485 23.6191C35.0485 25.5239 33.4866 27.162 31.239 27.0477V27.8096C33.0676 28.0001 35.8105 26.5525 35.8105 23.6191C35.8105 22.2096 35.0866 20.8763 33.9057 20.1144Z" fill="black" stroke="black" stroke-width="0.3"/>
<path d="M29.1426 24.9903L29.8283 23.6189L27.8092 21.5999L26.4759 22.2856C26.2854 22.2094 26.095 22.1332 25.9426 22.057L25.4473 20.5713H22.6283L22.1331 22.057C21.9426 22.1332 21.7521 22.2094 21.5997 22.2856L20.2283 21.5999L18.2092 23.6189L18.8569 24.9522C18.7807 25.1427 18.7045 25.3332 18.6283 25.4856L17.1426 25.9808V28.7999L18.6283 29.2951C18.7045 29.4856 18.7807 29.6761 18.8569 29.8284L18.1711 31.1999L20.1902 33.2189L21.5235 32.5713C21.714 32.6475 21.9045 32.7237 22.0569 32.7999L22.5521 34.2856H25.3711L25.8664 32.7999C26.0569 32.7237 26.2473 32.6475 26.3997 32.5713L27.7712 33.257L29.7902 31.238L29.1426 29.9046C29.2188 29.7141 29.295 29.5237 29.3711 29.3713L30.8569 28.8761V26.057L29.3711 25.5618C29.3331 25.3332 29.2569 25.1427 29.1426 24.9903ZM30.095 28.3046L28.7997 28.7237L28.3045 29.8665L28.914 31.1237L27.695 32.3427L26.4378 31.7332L25.295 32.2284L24.8378 33.5237H23.0854L22.6664 32.2284L21.5235 31.7332L20.2664 32.3427L19.0473 31.1237L19.6569 29.8665L19.1616 28.7237L17.8664 28.3046V26.5522L19.1616 26.1332L19.6569 24.9903L19.0473 23.7332L20.2664 22.5141L21.5235 23.1237L22.6664 22.6284L23.0854 21.3332H24.8378L25.295 22.6284L26.4378 23.1237L27.695 22.5141L28.914 23.7332L28.3045 24.9903L28.7997 26.1332L30.095 26.5522V28.3046Z" fill="black" stroke="black" stroke-width="0.3"/>
<path d="M23.9997 24.7617C22.514 24.7617 21.3331 25.9427 21.3331 27.4284C21.3331 28.9141 22.514 30.0951 23.9997 30.0951C25.4854 30.0951 26.6664 28.9141 26.6664 27.4284C26.6664 25.9427 25.4854 24.7617 23.9997 24.7617ZM23.9997 29.3331C22.9331 29.3331 22.095 28.4951 22.095 27.4284C22.095 26.3617 22.9331 25.5236 23.9997 25.5236C25.0664 25.5236 25.9045 26.3617 25.9045 27.4284C25.9045 28.4951 25.0664 29.3331 23.9997 29.3331ZM20.5711 17.5236V16.7617C18.6664 16.7617 17.1426 18.2855 17.1426 20.1903H17.9045C17.9045 18.7046 19.0854 17.5236 20.5711 17.5236Z" fill="black" stroke="black" stroke-width="0.3"/>
</svg>
