<svg width="100" height="100" viewBox="0 0 100 100" fill="none" xmlns="http://www.w3.org/2000/svg">
<path d="M45.3125 57.8125H23.4375C20.1223 57.8125 16.9429 56.4955 14.5987 54.1513C12.2545 51.8071 10.9375 48.6277 10.9375 45.3125C10.9375 41.9973 12.2545 38.8179 14.5987 36.4737C16.9429 34.1295 20.1223 32.8125 23.4375 32.8125H26.5625C26.9769 32.8125 27.3743 32.9771 27.6674 33.2701C27.9604 33.5632 28.125 33.9606 28.125 34.375C28.125 34.7894 27.9604 35.1868 27.6674 35.4799C27.3743 35.7729 26.9769 35.9375 26.5625 35.9375H23.4375C20.9511 35.9375 18.5665 36.9252 16.8084 38.6834C15.0502 40.4415 14.0625 42.8261 14.0625 45.3125C14.0625 47.7989 15.0502 50.1835 16.8084 51.9416C18.5665 53.6998 20.9511 54.6875 23.4375 54.6875H45.3125C45.7269 54.6875 46.1243 54.8521 46.4174 55.1451C46.7104 55.4382 46.875 55.8356 46.875 56.25C46.875 56.6644 46.7104 57.0618 46.4174 57.3549C46.1243 57.6479 45.7269 57.8125 45.3125 57.8125ZM64.0625 79.6875H45.3125C44.8981 79.6875 44.5007 79.5229 44.2076 79.2299C43.9146 78.9368 43.75 78.5394 43.75 78.125C43.75 77.7106 43.9146 77.3132 44.2076 77.0201C44.5007 76.7271 44.8981 76.5625 45.3125 76.5625H64.0625C64.4769 76.5625 64.8743 76.7271 65.1674 77.0201C65.4604 77.3132 65.625 77.7106 65.625 78.125C65.625 78.5394 65.4604 78.9368 65.1674 79.2299C64.8743 79.5229 64.4769 79.6875 64.0625 79.6875ZM76.5625 79.6875H73.4375C73.0231 79.6875 72.6257 79.5229 72.3326 79.2299C72.0396 78.9368 71.875 78.5394 71.875 78.125C71.875 77.7106 72.0396 77.3132 72.3326 77.0201C72.6257 76.7271 73.0231 76.5625 73.4375 76.5625H76.5625C79.0489 76.5625 81.4335 75.5748 83.1916 73.8166C84.9498 72.0585 85.9375 69.6739 85.9375 67.1875C85.9375 64.7011 84.9498 62.3165 83.1916 60.5584C81.4335 58.8002 79.0489 57.8125 76.5625 57.8125H54.6875C54.2731 57.8125 53.8757 57.6479 53.5826 57.3549C53.2896 57.0618 53.125 56.6644 53.125 56.25C53.125 55.8356 53.2896 55.4382 53.5826 55.1451C53.8757 54.8521 54.2731 54.6875 54.6875 54.6875H76.5625C79.8777 54.6875 83.0571 56.0045 85.4013 58.3487C87.7455 60.6929 89.0625 63.8723 89.0625 67.1875C89.0625 70.5027 87.7455 73.6821 85.4013 76.0263C83.0571 78.3705 79.8777 79.6875 76.5625 79.6875ZM78.125 35.9375H35.9375C35.5231 35.9375 35.1257 35.7729 34.8326 35.4799C34.5396 35.1868 34.375 34.7894 34.375 34.375C34.375 33.9606 34.5396 33.5632 34.8326 33.2701C35.1257 32.9771 35.5231 32.8125 35.9375 32.8125H78.125C78.5394 32.8125 78.9368 32.9771 79.2299 33.2701C79.5229 33.5632 79.6875 33.9606 79.6875 34.375C79.6875 34.7894 79.5229 35.1868 79.2299 35.4799C78.9368 35.7729 78.5394 35.9375 78.125 35.9375ZM12.5 73.4375C12.5 72.1943 12.9939 71.002 13.8729 70.1229C14.752 69.2439 15.9443 68.75 17.1875 68.75H32.8125C34.0557 68.75 35.248 69.2439 36.1271 70.1229C37.0061 71.002 37.5 72.1943 37.5 73.4375C37.5 74.2663 37.1708 75.0612 36.5847 75.6472C35.9987 76.2333 35.2038 76.5625 34.375 76.5625H26.5625C26.5625 76.1481 26.3979 75.7507 26.1049 75.4576C25.8118 75.1646 25.4144 75 25 75C24.5856 75 24.1882 75.1646 23.8951 75.4576C23.6021 75.7507 23.4375 76.1481 23.4375 76.5625H15.625C14.7962 76.5625 14.0013 76.2333 13.4153 75.6472C12.8292 75.0612 12.5 74.2663 12.5 73.4375ZM34.375 79.6875C35.4727 79.6856 36.5505 79.3945 37.5 78.8438V82.8125C37.5 84.0557 37.0061 85.248 36.1271 86.1271C35.248 87.0061 34.0557 87.5 32.8125 87.5H17.1875C15.9443 87.5 14.752 87.0061 13.8729 86.1271C12.9939 85.248 12.5 84.0557 12.5 82.8125V78.8438C13.4495 79.3945 14.5273 79.6856 15.625 79.6875H23.4375C23.4375 80.1019 23.6021 80.4993 23.8951 80.7924C24.1882 81.0854 24.5856 81.25 25 81.25C25.4144 81.25 25.8118 81.0854 26.1049 80.7924C26.3979 80.4993 26.5625 80.1019 26.5625 79.6875H34.375Z" fill="#34A853"/>
<path d="M29.6875 70.3125C29.2731 70.3125 28.8757 70.1479 28.5826 69.8549C28.2896 69.5618 28.125 69.1644 28.125 68.75V65.625H21.875V68.75C21.875 69.1644 21.7104 69.5618 21.4174 69.8549C21.1243 70.1479 20.7269 70.3125 20.3125 70.3125C19.8981 70.3125 19.5007 70.1479 19.2076 69.8549C18.9146 69.5618 18.75 69.1644 18.75 68.75V65.625C18.75 64.7962 19.0792 64.0013 19.6653 63.4153C20.2513 62.8292 21.0462 62.5 21.875 62.5H28.125C28.9538 62.5 29.7487 62.8292 30.3347 63.4153C30.9208 64.0013 31.25 64.7962 31.25 65.625V68.75C31.25 69.1644 31.0854 69.5618 30.7924 69.8549C30.4993 70.1479 30.1019 70.3125 29.6875 70.3125Z" fill="#34A853"/>
<path d="M68.75 82.8125C71.3388 82.8125 73.4375 80.7138 73.4375 78.125C73.4375 75.5362 71.3388 73.4375 68.75 73.4375C66.1612 73.4375 64.0625 75.5362 64.0625 78.125C64.0625 80.7138 66.1612 82.8125 68.75 82.8125Z" fill="#34A853"/>
<path d="M50 60.9375C52.5888 60.9375 54.6875 58.8388 54.6875 56.25C54.6875 53.6612 52.5888 51.5625 50 51.5625C47.4112 51.5625 45.3125 53.6612 45.3125 56.25C45.3125 58.8388 47.4112 60.9375 50 60.9375Z" fill="#34A853"/>
<path d="M31.25 39.0625C33.8388 39.0625 35.9375 36.9638 35.9375 34.375C35.9375 31.7862 33.8388 29.6875 31.25 29.6875C28.6612 29.6875 26.5625 31.7862 26.5625 34.375C26.5625 36.9638 28.6612 39.0625 31.25 39.0625Z" fill="#34A853"/>
<path d="M82.8125 39.0625C85.4013 39.0625 87.5 36.9638 87.5 34.375C87.5 31.7862 85.4013 29.6875 82.8125 29.6875C80.2237 29.6875 78.125 31.7862 78.125 34.375C78.125 36.9638 80.2237 39.0625 82.8125 39.0625Z" fill="#34A853"/>
<path d="M82.8125 31.25C82.3981 31.25 82.0007 31.0854 81.7076 30.7924C81.4146 30.4993 81.25 30.1019 81.25 29.6875V12.5C81.25 12.0856 81.4146 11.6882 81.7076 11.3951C82.0007 11.1021 82.3981 10.9375 82.8125 10.9375C83.2269 10.9375 83.6243 11.1021 83.9174 11.3951C84.2104 11.6882 84.375 12.0856 84.375 12.5V29.6875C84.375 30.1019 84.2104 30.4993 83.9174 30.7924C83.6243 31.0854 83.2269 31.25 82.8125 31.25Z" fill="#34A853"/>
<path d="M82.8125 23.4375L71.875 18.75L82.8125 12.5V23.4375Z" fill="#34A853"/>
</svg>
