<svg width="100" height="100" viewBox="0 0 100 100" fill="none" xmlns="http://www.w3.org/2000/svg">
<path d="M50.0007 79.1668C55.7536 79.1668 60.4173 74.5031 60.4173 68.7502C60.4173 62.9972 55.7536 58.3335 50.0007 58.3335C44.2477 58.3335 39.584 62.9972 39.584 68.7502C39.584 74.5031 44.2477 79.1668 50.0007 79.1668Z" fill="#34A853"/>
<path d="M59.5831 79.729C57.4747 81.5862 54.8663 82.7817 52.0831 83.1665V85.4165C52.0831 85.969 51.8636 86.4989 51.4729 86.8896C51.0822 87.2803 50.5523 87.4998 49.9998 87.4998C49.4472 87.4998 48.9173 87.2803 48.5266 86.8896C48.1359 86.4989 47.9164 85.969 47.9164 85.4165V83.1665C45.1336 82.7805 42.5255 81.5851 40.4164 79.729C37.9294 81.2096 35.8189 83.2459 34.2503 85.6784C32.6816 88.1109 31.6974 90.8735 31.3748 93.7498C31.2369 95.1342 31.1952 96.5264 31.2498 97.9165H68.7498C68.7498 90.6665 66.9164 84.0832 59.5831 79.729ZM73.9998 73.6248C75.3853 74.4175 76.9346 74.8811 78.5278 74.9799C80.121 75.0786 81.7157 74.8099 83.1885 74.1945C84.6614 73.579 85.9731 72.6333 87.0224 71.4303C88.0717 70.2273 88.8304 68.7992 89.2401 67.2564C89.6498 65.7136 89.6994 64.0972 89.3851 62.5322C89.0708 60.9672 88.401 59.4953 87.4274 58.2302C86.4539 56.9652 85.2026 55.9408 83.7702 55.2362C82.3379 54.5316 80.7627 54.1656 79.1664 54.1665C76.8721 54.1724 74.6439 54.9355 72.8278 56.3375C71.0117 57.7395 69.7092 59.7019 69.1226 61.92C68.536 64.138 68.6982 66.4877 69.5838 68.6042C70.4695 70.7207 72.0291 72.4856 74.0206 73.6248H73.9998Z" fill="#34A853"/>
<path d="M92.4161 78.4165C91.3232 77.3098 90.0905 76.3503 88.7495 75.5623C88.0315 76.2126 87.2417 76.7787 86.3953 77.2498C80.5411 80.5623 81.2495 77.0832 81.2495 81.2498C81.2495 81.8024 81.03 82.3323 80.6393 82.723C80.2486 83.1137 79.7187 83.3332 79.1661 83.3332C78.6136 83.3332 78.0837 83.1137 77.693 82.723C77.3023 82.3323 77.0828 81.8024 77.0828 81.2498C77.0828 77.0832 77.8745 80.5415 71.937 77.2498C71.0959 76.7603 70.301 76.1954 69.562 75.5623C68.0166 76.479 66.6129 77.616 65.3953 78.9373C69.5299 82.6538 72.1484 87.7647 72.7495 93.2915C72.9161 93.9582 69.9578 93.7498 97.9161 93.7498C97.9161 87.8957 97.1036 83.0623 92.4161 78.4165ZM15.687 73.6457C17.0736 74.4315 18.6221 74.8887 20.2132 74.982C21.8043 75.0753 23.3957 74.8022 24.8646 74.1838C26.3336 73.5653 27.6411 72.6181 28.6864 71.4149C29.7317 70.2117 30.487 68.7847 30.8941 67.2437C31.3012 65.7027 31.3492 64.0888 31.0345 62.5264C30.7198 60.9639 30.0507 59.4945 29.0788 58.2313C28.1069 56.968 26.8581 55.9447 25.4285 55.24C23.9989 54.5353 22.4267 54.168 20.8328 54.1665C18.5318 54.1643 16.2947 54.9241 14.471 56.3273C12.6473 57.7304 11.3395 59.6979 10.7517 61.9227C10.164 64.1474 10.3295 66.5041 11.2223 68.6249C12.1151 70.7457 13.6851 72.5111 15.687 73.6457Z" fill="#34A853"/>
<path d="M34.5631 78.9373C33.3611 77.5995 31.9548 76.4604 30.3965 75.5623C28.2952 77.4179 25.6939 78.6135 22.9173 78.9998V81.2498C22.9173 81.8024 22.6978 82.3323 22.3071 82.723C21.9164 83.1137 21.3865 83.3332 20.834 83.3332C20.2814 83.3332 19.7515 83.1137 19.3608 82.723C18.9701 82.3323 18.7507 81.8024 18.7507 81.2498V78.9998C15.9678 78.6138 13.3597 77.4184 11.2507 75.5623C8.45861 77.2226 6.14581 79.5798 4.53888 82.4029C2.93195 85.226 2.08602 88.4181 2.08398 91.6665V93.7498C30.0006 93.7498 27.084 93.9582 27.2298 93.2498C27.8352 87.7408 30.4453 82.6467 34.5631 78.9373ZM29.1673 39.5832V47.9165L41.6673 39.5832H50.0006C51.1057 39.5832 52.1655 39.1442 52.9469 38.3628C53.7283 37.5814 54.1673 36.5216 54.1673 35.4165H47.9173C45.7072 35.4165 43.5876 34.5385 42.0248 32.9757C40.462 31.4129 39.584 29.2933 39.584 27.0832V10.4165H20.834C19.7289 10.4165 18.6691 10.8555 17.8877 11.6369C17.1063 12.4183 16.6673 13.4781 16.6673 14.5832C16.6673 36.5832 16.209 36.7082 17.8965 38.354C19.584 39.9998 21.4382 39.5832 29.1673 39.5832Z" fill="#34A853"/>
<path d="M47.9167 31.2502H56.25L68.75 39.5835V31.2502H77.0833C78.1884 31.2502 79.2482 30.8112 80.0296 30.0298C80.811 29.2484 81.25 28.1886 81.25 27.0835V6.25016C81.25 5.14509 80.811 4.08529 80.0296 3.30388C79.2482 2.52248 78.1884 2.0835 77.0833 2.0835H47.9167C46.8116 2.0835 45.7518 2.52248 44.9704 3.30388C44.189 4.08529 43.75 5.14509 43.75 6.25016V27.0835C43.75 28.1886 44.189 29.2484 44.9704 30.0298C45.7518 30.8112 46.8116 31.2502 47.9167 31.2502ZM72.9167 22.9168H62.5C61.9475 22.9168 61.4176 22.6973 61.0269 22.3066C60.6362 21.9159 60.4167 21.386 60.4167 20.8335C60.4167 20.281 60.6362 19.7511 61.0269 19.3604C61.4176 18.9697 61.9475 18.7502 62.5 18.7502H72.9167C73.4692 18.7502 73.9991 18.9697 74.3898 19.3604C74.7805 19.7511 75 20.281 75 20.8335C75 21.386 74.7805 21.9159 74.3898 22.3066C73.9991 22.6973 73.4692 22.9168 72.9167 22.9168ZM68.75 10.4168H72.9167C73.4692 10.4168 73.9991 10.6363 74.3898 11.027C74.7805 11.4177 75 11.9476 75 12.5002C75 13.0527 74.7805 13.5826 74.3898 13.9733C73.9991 14.364 73.4692 14.5835 72.9167 14.5835H68.75C68.1975 14.5835 67.6676 14.364 67.2769 13.9733C66.8862 13.5826 66.6667 13.0527 66.6667 12.5002C66.6667 11.9476 66.8862 11.4177 67.2769 11.027C67.6676 10.6363 68.1975 10.4168 68.75 10.4168ZM52.0833 10.4168H62.5C63.0525 10.4168 63.5824 10.6363 63.9731 11.027C64.3638 11.4177 64.5833 11.9476 64.5833 12.5002C64.5833 13.0527 64.3638 13.5826 63.9731 13.9733C63.5824 14.364 63.0525 14.5835 62.5 14.5835H52.0833C51.5308 14.5835 51.0009 14.364 50.6102 13.9733C50.2195 13.5826 50 13.0527 50 12.5002C50 11.9476 50.2195 11.4177 50.6102 11.027C51.0009 10.6363 51.5308 10.4168 52.0833 10.4168ZM52.0833 18.7502H56.25C56.8025 18.7502 57.3324 18.9697 57.7231 19.3604C58.1138 19.7511 58.3333 20.281 58.3333 20.8335C58.3333 21.386 58.1138 21.9159 57.7231 22.3066C57.3324 22.6973 56.8025 22.9168 56.25 22.9168H52.0833C51.5308 22.9168 51.0009 22.6973 50.6102 22.3066C50.2195 21.9159 50 21.386 50 20.8335C50 20.281 50.2195 19.7511 50.6102 19.3604C51.0009 18.9697 51.5308 18.7502 52.0833 18.7502Z" fill="#34A853"/>
</svg>
