<svg width="100" height="100" viewBox="0 0 100 100" fill="none" xmlns="http://www.w3.org/2000/svg">
<path d="M91.2912 14.66C91.2637 14.6306 91.2336 14.6038 91.2012 14.58V8.784C91.2016 8.56458 91.1586 8.34724 91.0748 8.14445C90.9911 7.94166 90.8681 7.7574 90.7129 7.60225C90.5578 7.4471 90.3735 7.3241 90.1707 7.24032C89.9679 7.15653 89.7506 7.1136 89.5312 7.114H85.8312C85.6117 7.1136 85.3944 7.15653 85.1916 7.24032C84.9888 7.3241 84.8046 7.4471 84.6494 7.60225C84.4943 7.7574 84.3713 7.94166 84.2875 8.14445C84.2037 8.34724 84.1608 8.56458 84.1612 8.784V14.565C84.1255 14.5959 84.0921 14.6293 84.0611 14.665C83.5854 15.1417 83.2088 15.7079 82.9531 16.331C82.6973 16.954 82.5675 17.6215 82.5712 18.295V39.25H82.5912V77.84C82.5944 77.8798 82.6011 77.9193 82.6112 77.958H82.5952C83.6322 83.369 86.2562 90.111 87.6902 90.111C89.1242 90.111 91.6992 83.47 92.7462 78.08V78.053L92.7662 77.958H92.7562C92.7562 77.909 92.7662 77.87 92.7662 77.84V39.25H92.7862V18.29C92.7897 17.6161 92.6593 16.9482 92.4027 16.3251C92.1461 15.7019 91.7682 15.136 91.2912 14.66ZM74.4482 22.886C74.4512 22.8639 74.449 22.8415 74.4417 22.8205C74.4344 22.7994 74.4222 22.7804 74.4062 22.765C74.3415 22.6156 74.2519 22.4783 74.1412 22.359L57.1671 5.4C57.0448 5.28859 56.9083 5.19378 56.7612 5.118C56.7201 5.118 56.6781 5.077 56.6411 5.077C56.5244 5.03186 56.4012 5.00586 56.2761 5H8.56215C8.38254 5.00038 8.2048 5.03639 8.0392 5.10593C7.8736 5.17548 7.72345 5.27718 7.59742 5.40516C7.4714 5.53313 7.37202 5.68483 7.30503 5.85148C7.23804 6.01813 7.20477 6.19641 7.20715 6.376V93.624C7.20916 93.9847 7.35191 94.3304 7.605 94.5874C7.85809 94.8444 8.20152 94.9924 8.56215 95H73.1922C73.5525 94.9917 73.8955 94.8434 74.1485 94.5866C74.4014 94.3297 74.5444 93.9845 74.5471 93.624V23.329C74.5348 23.3045 74.5279 23.2775 74.5272 23.25C74.5289 23.1242 74.5019 22.9997 74.4482 22.886ZM21.4761 15.828H42.5322C42.8926 15.8377 43.2351 15.9877 43.4867 16.2461C43.7382 16.5045 43.879 16.8509 43.879 17.2115C43.879 17.5721 43.7382 17.9185 43.4867 18.1769C43.2351 18.4353 42.8926 18.5853 42.5322 18.595H21.4761C21.1157 18.5853 20.7732 18.4353 20.5216 18.1769C20.2701 17.9185 20.1293 17.5721 20.1293 17.2115C20.1293 16.8509 20.2701 16.5045 20.5216 16.2461C20.7732 15.9877 21.1157 15.8377 21.4761 15.828ZM20.0932 25.539C20.0968 25.1748 20.2442 24.8268 20.5033 24.5708C20.7623 24.3148 21.112 24.1715 21.4761 24.172H29.8252C30.1926 24.1675 30.5468 24.3088 30.8102 24.5651C31.0736 24.8213 31.2246 25.1716 31.2302 25.539V33.926C31.2311 34.1105 31.1953 34.2934 31.125 34.464C31.0547 34.6346 30.9511 34.7896 30.8204 34.9198C30.6897 35.0501 30.5344 35.153 30.3635 35.2228C30.1927 35.2925 30.0097 35.3276 29.8252 35.326H21.4761C21.2932 35.3256 21.1122 35.289 20.9434 35.2183C20.7747 35.1476 20.6216 35.0442 20.4931 34.914C20.3645 34.7839 20.263 34.6296 20.1943 34.46C20.1257 34.2904 20.0913 34.1089 20.0932 33.926V25.539ZM21.4761 40.869H56.4571C56.8298 40.869 57.1871 41.017 57.4506 41.2805C57.7141 41.544 57.8621 41.9014 57.8621 42.274C57.8621 42.6466 57.7141 43.004 57.4506 43.2675C57.1871 43.531 56.8298 43.679 56.4571 43.679H21.4761C21.1035 43.679 20.7462 43.531 20.4827 43.2675C20.2192 43.004 20.0712 42.6466 20.0712 42.274C20.0712 41.9014 20.2192 41.544 20.4827 41.2805C20.7462 41.017 21.1035 40.869 21.4761 40.869ZM20.0932 50.618C20.0919 50.437 20.127 50.2576 20.1963 50.0904C20.2656 49.9232 20.3678 49.7717 20.4967 49.6447C20.6257 49.5177 20.7788 49.4178 20.9471 49.3511C21.1153 49.2843 21.2952 49.252 21.4761 49.256H29.8252C30.0077 49.25 30.1895 49.2807 30.3599 49.3465C30.5303 49.4123 30.6856 49.5117 30.8168 49.6388C30.9479 49.7659 31.0521 49.9181 31.1231 50.0863C31.1941 50.2546 31.2305 50.4354 31.2302 50.618V58.967C31.2311 59.1515 31.1953 59.3344 31.125 59.505C31.0547 59.6756 30.9511 59.8306 30.8204 59.9608C30.6897 60.0911 30.5344 60.194 30.3635 60.2638C30.1927 60.3335 30.0097 60.3686 29.8252 60.367H21.4761C21.2932 60.3666 21.1122 60.33 20.9434 60.2593C20.7747 60.1886 20.6216 60.0852 20.4931 59.955C20.3645 59.8249 20.263 59.6706 20.1943 59.501C20.1257 59.3314 20.0913 59.1499 20.0932 58.967V50.618ZM21.4761 65.948H49.4921C49.8597 65.948 50.2123 66.094 50.4722 66.354C50.7321 66.6139 50.8782 66.9664 50.8782 67.334C50.8782 67.7016 50.7321 68.0541 50.4722 68.314C50.2123 68.574 49.8597 68.72 49.4921 68.72H21.4761C21.1086 68.72 20.756 68.574 20.4961 68.314C20.2362 68.0541 20.0901 67.7016 20.0901 67.334C20.0901 66.9664 20.2362 66.6139 20.4961 66.354C20.756 66.094 21.1086 65.948 21.4761 65.948ZM31.2302 84.048C31.226 84.4193 31.0766 84.7743 30.814 85.0369C30.5514 85.2995 30.1965 85.4488 29.8252 85.453H21.4761C21.1081 85.4449 20.7577 85.2936 20.4994 85.0313C20.2412 84.7689 20.0954 84.4161 20.0932 84.048V75.7C20.0917 75.5172 20.1264 75.3359 20.1951 75.1665C20.2639 74.9971 20.3655 74.8429 20.494 74.7128C20.6224 74.5828 20.7753 74.4793 20.9439 74.4085C21.1124 74.3377 21.2933 74.3008 21.4761 74.3H29.8252C30.0094 74.2993 30.192 74.3351 30.3624 74.4051C30.5329 74.4752 30.6878 74.5782 30.8183 74.7083C30.9489 74.8383 31.0524 74.9929 31.1231 75.1631C31.1938 75.3333 31.2302 75.5157 31.2302 75.7V84.048ZM60.6301 81.238H36.7852C36.4241 81.2283 36.0812 81.0781 35.8293 80.8193C35.5773 80.5605 35.4364 80.2136 35.4364 79.8525C35.4364 79.4914 35.5773 79.1445 35.8293 78.8857C36.0812 78.6269 36.4241 78.4767 36.7852 78.467H60.6292C60.9902 78.4767 61.3331 78.6269 61.585 78.8857C61.837 79.1445 61.9779 79.4914 61.9779 79.8525C61.9779 80.2136 61.837 80.5605 61.585 80.8193C61.3331 81.0781 60.9912 81.2283 60.6301 81.238ZM60.6301 56.197H36.7852C36.6018 56.1967 36.4203 56.1602 36.2511 56.0894C36.082 56.0185 35.9285 55.9149 35.7996 55.7845C35.6708 55.654 35.569 55.4993 35.5003 55.3293C35.4315 55.1593 35.3972 54.9774 35.3992 54.794C35.4025 54.4266 35.5487 54.075 35.8069 53.8137C36.065 53.5523 36.4149 53.4018 36.7822 53.394H60.6292C60.9966 53.4015 61.3467 53.5519 61.6051 53.8133C61.8635 54.0747 62.0098 54.4265 62.0131 54.794C62.0154 54.9774 61.9813 55.1595 61.9128 55.3296C61.8443 55.4998 61.7428 55.6547 61.6141 55.7854C61.4855 55.9161 61.3322 56.0201 61.1631 56.0912C60.9941 56.1624 60.8126 56.1994 60.6292 56.2L60.6301 56.197ZM60.6301 31.156H36.7852C36.4168 31.149 36.0658 30.9984 35.8069 30.7363C35.548 30.4742 35.4017 30.1214 35.3992 29.753C35.3972 29.57 35.4315 29.3885 35.5001 29.2188C35.5686 29.0492 35.6702 28.8948 35.7988 28.7647C35.9274 28.6345 36.0805 28.5311 36.2493 28.4604C36.4181 28.3898 36.5992 28.3533 36.7822 28.353H60.6292C60.8122 28.3533 60.9933 28.3898 61.1622 28.4604C61.331 28.531 61.4842 28.6344 61.6129 28.7646C61.7416 28.8948 61.8432 29.0491 61.9119 29.2188C61.9806 29.3884 62.015 29.57 62.0131 29.753C62.0109 30.1213 61.865 30.4742 61.6065 30.7366C61.348 30.999 60.9974 31.1502 60.6292 31.158L60.6301 31.156ZM57.5491 22V9.654L69.8992 22H57.5491Z" fill="#34A853"/>
<path d="M25.6718 26.9438H25.6538C24.1245 26.9438 22.8848 28.1836 22.8848 29.7128V29.7518C22.8848 31.2811 24.1245 32.5208 25.6538 32.5208H25.6718C27.201 32.5208 28.4408 31.2811 28.4408 29.7518V29.7128C28.4408 28.1836 27.201 26.9438 25.6718 26.9438Z" fill="#34A853"/>
<path d="M25.6718 52.0229H25.6538C24.1245 52.0229 22.8848 53.2627 22.8848 54.792V54.8349C22.8848 56.3642 24.1245 57.604 25.6538 57.604H25.6718C27.201 57.604 28.4408 56.3642 28.4408 54.8349V54.792C28.4408 53.2627 27.201 52.0229 25.6718 52.0229Z" fill="#34A853"/>
<path d="M25.6718 77.106H25.6538C24.1245 77.106 22.8848 78.3457 22.8848 79.875V79.876C22.8848 81.4052 24.1245 82.645 25.6538 82.645H25.6718C27.201 82.645 28.4408 81.4052 28.4408 79.876V79.875C28.4408 78.3457 27.201 77.106 25.6718 77.106Z" fill="#34A853"/>
</svg>
