<svg width="48" height="48" viewBox="0 0 48 48" fill="none" xmlns="http://www.w3.org/2000/svg">
<rect x="0.4" y="0.4" width="47.2" height="47.2" rx="11.6" stroke="#DCDCDC" stroke-width="0.8"/>
<path d="M32.9605 24.3372C33.1022 24.8353 33.5601 25.2015 34.103 25.2015C34.7584 25.2015 35.2915 24.6683 35.2915 24.0129C35.2915 23.3575 34.7584 22.8243 34.103 22.8243C33.5601 22.8243 33.1022 23.1905 32.9605 23.6886H24.5337V15.003C24.5337 13.3471 23.1866 12 21.5306 12C20.2818 12 19.1873 12.7534 18.7374 13.8978C18.6834 13.8949 18.6293 13.8935 18.5749 13.8935C16.9189 13.8935 15.5718 15.2406 15.5718 16.8965C15.5718 17.0234 15.5798 17.1499 15.5956 17.2752C14.8244 17.3971 14.0893 17.7795 13.4943 18.3746C12.7787 19.0901 12.3848 20.0414 12.3848 21.0533C12.3848 22.0651 12.7789 23.0165 13.4943 23.732C13.5888 23.8265 13.689 23.9159 13.7944 24C13.6892 24.0839 13.5888 24.1733 13.4943 24.2679C12.0173 25.745 12.0173 28.1483 13.4943 29.6254C14.0894 30.2204 14.8245 30.6028 15.5956 30.7247C15.5798 30.85 15.5718 30.9765 15.5718 31.1034C15.5718 32.7594 16.919 34.1065 18.5749 34.1065C18.6293 34.1065 18.6834 34.105 18.7374 34.1022C19.1873 35.2466 20.2818 36 21.5306 36C23.1866 36 24.5337 34.6528 24.5337 32.9969V24.3372H32.9605ZM34.103 23.473C34.4007 23.473 34.6429 23.7152 34.6429 24.0129C34.6429 24.3106 34.4007 24.5528 34.103 24.5528C33.8053 24.5528 33.5631 24.3106 33.5631 24.0129C33.5631 23.7151 33.8053 23.473 34.103 23.473ZM13.0334 21.0533C13.0334 20.2146 13.36 19.4262 13.953 18.8332C14.5259 18.2602 15.2482 17.9242 15.9877 17.8857C16.5468 17.8872 17.0842 18.0354 17.5597 18.315C17.4721 18.4806 17.422 18.6689 17.422 18.8688C17.422 19.5242 17.9552 20.0574 18.6106 20.0574C19.266 20.0574 19.7993 19.5242 19.7993 18.8688C19.7993 18.2134 19.266 17.6802 18.6106 17.6802C18.3958 17.6802 18.1946 17.7383 18.0205 17.8384C17.487 17.4943 16.8831 17.2918 16.2494 17.2472C16.2321 17.1312 16.2205 17.0144 16.2205 16.8965C16.2205 15.5982 17.2767 14.5421 18.5749 14.5421C19.0799 14.5421 19.5673 14.7036 19.97 15.0001C19.8672 15.1758 19.8073 15.3795 19.8073 15.5974C19.8073 16.2528 20.3406 16.7859 20.996 16.7859C21.6514 16.7859 22.1846 16.2528 22.1846 15.5974C22.1846 14.942 21.6513 14.4089 20.9959 14.4089C20.7947 14.4089 20.6053 14.4595 20.4391 14.5481C20.1273 14.3005 19.7744 14.115 19.3958 14.0075C19.7773 13.1831 20.5992 12.6487 21.5307 12.6487C22.8289 12.6487 23.8851 13.7048 23.8851 15.003V23.6757H14.4544C14.2717 23.5588 14.1033 23.4238 13.953 23.2734C13.36 22.6804 13.0334 21.8919 13.0334 21.0533ZM18.6106 18.3289C18.9083 18.3289 19.1506 18.5712 19.1506 18.8689C19.1506 19.1666 18.9083 19.4088 18.6106 19.4088C18.3129 19.4088 18.0706 19.1666 18.0706 18.8689C18.0706 18.5712 18.3129 18.3289 18.6106 18.3289ZM20.9959 15.0575C21.2936 15.0575 21.5359 15.2997 21.5359 15.5974C21.5359 15.8951 21.2936 16.1373 20.9959 16.1373C20.6982 16.1373 20.4559 15.8951 20.4559 15.5974C20.4559 15.2997 20.6982 15.0575 20.9959 15.0575ZM23.8851 32.997C23.8851 34.2952 22.8289 35.3513 21.5307 35.3513C20.5992 35.3513 19.7773 34.8169 19.3958 33.9925C19.75 33.892 20.0821 33.7235 20.379 33.4999C20.5591 33.6099 20.7699 33.6745 20.9959 33.6745C21.6513 33.6745 22.1846 33.1412 22.1846 32.4858C22.1846 31.8304 21.6513 31.2973 20.9959 31.2973C20.3405 31.2973 19.8073 31.8304 19.8073 32.4858C19.8073 32.6789 19.8546 32.8609 19.9367 33.0223C19.5404 33.3038 19.0663 33.4579 18.5749 33.4579C17.2766 33.4579 16.2205 32.4017 16.2205 31.1035C16.2205 30.9856 16.232 30.8687 16.2494 30.7528C16.8977 30.7072 17.5149 30.4959 18.0574 30.137C18.2229 30.2244 18.4109 30.2744 18.6106 30.2744C19.266 30.2744 19.7993 29.7412 19.7993 29.0858C19.7993 28.4304 19.266 27.8972 18.6106 27.8972C17.9552 27.8972 17.422 28.4304 17.422 29.0858C17.422 29.2999 17.4797 29.5004 17.5791 29.6741C17.0989 29.961 16.5543 30.1127 15.9877 30.1142C15.2483 30.0758 14.526 29.7398 13.953 29.1668C13.36 28.5738 13.0334 27.7852 13.0334 26.9467C13.0334 26.108 13.36 25.3195 13.953 24.7265C14.1035 24.576 14.2719 24.441 14.4544 24.3243H23.8851V32.997ZM20.4559 32.4859C20.4559 32.1882 20.6982 31.946 20.9959 31.946C21.2936 31.946 21.5359 32.1882 21.5359 32.4859C21.5359 32.7836 21.2936 33.0259 20.9959 33.0259C20.6982 33.0259 20.4559 32.7836 20.4559 32.4859ZM18.0706 29.0858C18.0706 28.7881 18.3129 28.5458 18.6106 28.5458C18.9083 28.5458 19.1506 28.7881 19.1506 29.0858C19.1506 29.3835 18.9083 29.6257 18.6106 29.6257C18.3129 29.6257 18.0706 29.3835 18.0706 29.0858ZM25.4368 18.0337H30.0027C30.1167 18.0337 30.2221 17.9739 30.2807 17.8762L31.9845 15.0367C32.0745 15.0586 32.168 15.0715 32.2647 15.0715C32.9201 15.0715 33.4533 14.5383 33.4533 13.8829C33.4533 13.2275 32.9201 12.6943 32.2647 12.6943C31.6093 12.6943 31.076 13.2275 31.076 13.8829C31.076 14.208 31.2074 14.5027 31.4197 14.7175L29.819 17.385H25.4369C25.2578 17.385 25.1125 17.5302 25.1125 17.7094C25.1125 17.8885 25.2578 18.0337 25.4368 18.0337ZM32.2647 13.3429C32.5624 13.3429 32.8046 13.5852 32.8046 13.8829C32.8046 14.1806 32.5624 14.4228 32.2647 14.4228C31.9668 14.4228 31.7246 14.1806 31.7246 13.8829C31.7246 13.5852 31.9668 13.3429 32.2647 13.3429ZM33.4486 19.2712L32.282 20.671H26.667C26.4879 20.671 26.3426 20.8162 26.3426 20.9954C26.3426 21.1745 26.4879 21.3197 26.667 21.3197H32.4339C32.5301 21.3197 32.6214 21.2769 32.683 21.203L33.9477 19.6854C34.0947 19.7507 34.257 19.7877 34.4279 19.7877C35.0833 19.7877 35.6165 19.2545 35.6165 18.5991C35.6165 17.9437 35.0833 17.4105 34.4279 17.4105C33.7725 17.4105 33.2394 17.9437 33.2394 18.5991C33.2394 18.8484 33.3169 19.0798 33.4486 19.2712ZM34.4279 18.0591C34.7256 18.0591 34.9678 18.3014 34.9678 18.5991C34.9678 18.8968 34.7256 19.139 34.4279 19.139C34.1302 19.139 33.888 18.8968 33.888 18.5991C33.888 18.3014 34.1302 18.0591 34.4279 18.0591ZM34.4279 28.0813C34.2202 28.0813 34.0248 28.1352 33.8547 28.2293L32.683 26.8233C32.6214 26.7494 32.5301 26.7067 32.4339 26.7067H26.667C26.4879 26.7067 26.3426 26.8518 26.3426 27.031C26.3426 27.2101 26.4879 27.3553 26.667 27.3553H32.282L33.3926 28.6881C33.2955 28.8602 33.2394 29.0586 33.2394 29.27C33.2394 29.9254 33.7725 30.4585 34.4279 30.4585C35.0833 30.4585 35.6165 29.9254 35.6165 29.27C35.6165 28.6146 35.0833 28.0813 34.4279 28.0813ZM34.4279 29.8099C34.1302 29.8099 33.888 29.5677 33.888 29.27C33.888 28.9723 34.1302 28.73 34.4279 28.73C34.7256 28.73 34.9678 28.9723 34.9678 29.27C34.9678 29.5677 34.7257 29.8099 34.4279 29.8099ZM32.2647 32.99C32.1746 32.99 32.0872 33.0009 32.0027 33.02L30.2807 30.15C30.2221 30.0522 30.1167 29.9925 30.0027 29.9925H25.4368C25.2578 29.9925 25.1125 30.1377 25.1125 30.3168C25.1125 30.496 25.2578 30.6412 25.4368 30.6412H29.819L31.4329 33.3309C31.213 33.5468 31.076 33.8469 31.076 34.1786C31.076 34.834 31.6093 35.3672 32.2647 35.3672C32.9201 35.3672 33.4533 34.834 33.4533 34.1786C33.4533 33.5232 32.9201 32.99 32.2647 32.99ZM32.2647 34.7185C31.9668 34.7185 31.7246 34.4763 31.7246 34.1786C31.7246 33.8809 31.9668 33.6386 32.2647 33.6386C32.5624 33.6386 32.8046 33.8809 32.8046 34.1786C32.8046 34.4763 32.5624 34.7185 32.2647 34.7185Z" fill="black" stroke="black" stroke-width="0.4"/>
</svg>
