<svg width="273" height="222" viewBox="0 0 273 222" fill="none" xmlns="http://www.w3.org/2000/svg">
<rect x="0.5" y="0.5" width="272" height="221" rx="11.5" stroke="#858585"/>
<rect x="112.5" y="24" width="48" height="48" rx="24" fill="#80FF66" fill-opacity="0.15"/>
<g clip-path="url(#clip0_6247_24271)">
<path d="M133.5 43L128.5 48L133.5 52.9999L134.914 51.5859L131.328 48L134.914 44.4141L133.5 43Z" fill="black" fill-opacity="0.79"/>
<path d="M139.5 43L138.086 44.4141L141.672 48L138.086 51.5859L139.5 52.9999L144.5 48L139.5 43Z" fill="black" fill-opacity="0.79"/>
</g>
<path d="M39.5146 112.24C38.2986 112.24 37.1706 112.024 36.1306 111.592C35.1066 111.144 34.2106 110.528 33.4426 109.744C32.6746 108.944 32.0826 108.024 31.6666 106.984C31.2506 105.928 31.0426 104.8 31.0426 103.6C31.0426 102.4 31.2506 101.28 31.6666 100.24C32.0826 99.184 32.6746 98.264 33.4426 97.48C34.2106 96.696 35.1066 96.08 36.1306 95.632C37.1706 95.184 38.2986 94.96 39.5146 94.96C40.8746 94.96 42.0506 95.184 43.0426 95.632C44.0346 96.08 44.9146 96.688 45.6826 97.456L43.8106 99.328C43.3146 98.784 42.7066 98.36 41.9866 98.056C41.2826 97.752 40.4586 97.6 39.5146 97.6C38.6826 97.6 37.9226 97.744 37.2346 98.032C36.5466 98.32 35.9466 98.736 35.4346 99.28C34.9386 99.808 34.5546 100.44 34.2826 101.176C34.0106 101.912 33.8746 102.72 33.8746 103.6C33.8746 104.48 34.0106 105.288 34.2826 106.024C34.5546 106.76 34.9386 107.4 35.4346 107.944C35.9466 108.472 36.5466 108.88 37.2346 109.168C37.9226 109.456 38.6826 109.6 39.5146 109.6C40.5386 109.6 41.4026 109.448 42.1066 109.144C42.8266 108.824 43.4346 108.392 43.9306 107.848L45.8026 109.72C45.0346 110.504 44.1306 111.12 43.0906 111.568C42.0506 112.016 40.8586 112.24 39.5146 112.24ZM52.8338 112.24C51.7138 112.24 50.6978 111.976 49.7858 111.448C48.8738 110.904 48.1458 110.176 47.6018 109.264C47.0738 108.352 46.8098 107.336 46.8098 106.216C46.8098 105.096 47.0738 104.088 47.6018 103.192C48.1458 102.296 48.8738 101.584 49.7858 101.056C50.6978 100.512 51.7138 100.24 52.8338 100.24C53.9698 100.24 54.9938 100.504 55.9058 101.032C56.8178 101.56 57.5378 102.28 58.0658 103.192C58.6098 104.088 58.8818 105.096 58.8818 106.216C58.8818 107.336 58.6098 108.352 58.0658 109.264C57.5378 110.176 56.8178 110.904 55.9058 111.448C54.9938 111.976 53.9698 112.24 52.8338 112.24ZM52.8338 109.696C53.4898 109.696 54.0658 109.552 54.5618 109.264C55.0738 108.96 55.4658 108.544 55.7378 108.016C56.0258 107.488 56.1698 106.888 56.1698 106.216C56.1698 105.544 56.0258 104.952 55.7378 104.44C55.4498 103.928 55.0578 103.528 54.5618 103.24C54.0658 102.936 53.4898 102.784 52.8338 102.784C52.1938 102.784 51.6178 102.936 51.1058 103.24C50.6098 103.528 50.2178 103.928 49.9298 104.44C49.6578 104.952 49.5218 105.544 49.5218 106.216C49.5218 106.888 49.6578 107.488 49.9298 108.016C50.2178 108.544 50.6098 108.96 51.1058 109.264C51.6178 109.552 52.1938 109.696 52.8338 109.696ZM61.0773 112V100.48H63.7173V112H61.0773ZM63.7173 105.592L62.8053 105.136C62.8053 103.68 63.1253 102.504 63.7653 101.608C64.4213 100.696 65.4053 100.24 66.7173 100.24C67.2933 100.24 67.8133 100.344 68.2773 100.552C68.7413 100.76 69.1733 101.096 69.5733 101.56L67.8453 103.336C67.6373 103.112 67.4053 102.952 67.1493 102.856C66.8933 102.76 66.5973 102.712 66.2613 102.712C65.5253 102.712 64.9173 102.944 64.4373 103.408C63.9573 103.872 63.7173 104.6 63.7173 105.592ZM77.0187 112.24C76.1387 112.24 75.3547 112.056 74.6667 111.688C73.9787 111.304 73.4347 110.784 73.0347 110.128C72.6507 109.472 72.4587 108.728 72.4587 107.896V104.584C72.4587 103.752 72.6587 103.008 73.0587 102.352C73.4587 101.696 74.0027 101.184 74.6907 100.816C75.3787 100.432 76.1547 100.24 77.0187 100.24C78.0587 100.24 78.9947 100.512 79.8267 101.056C80.6747 101.584 81.3387 102.304 81.8187 103.216C82.3147 104.112 82.5627 105.128 82.5627 106.264C82.5627 107.384 82.3147 108.4 81.8187 109.312C81.3387 110.208 80.6747 110.92 79.8267 111.448C78.9947 111.976 78.0587 112.24 77.0187 112.24ZM70.8507 116.8V100.48H73.4907V103.576L73.0347 106.384L73.4907 109.168V116.8H70.8507ZM76.5867 109.744C77.2267 109.744 77.7867 109.6 78.2667 109.312C78.7627 109.008 79.1467 108.592 79.4187 108.064C79.7067 107.536 79.8507 106.928 79.8507 106.24C79.8507 105.552 79.7067 104.944 79.4187 104.416C79.1467 103.888 78.7627 103.48 78.2667 103.192C77.7867 102.888 77.2267 102.736 76.5867 102.736C75.9467 102.736 75.3787 102.888 74.8827 103.192C74.3867 103.48 74.0027 103.888 73.7307 104.416C73.4587 104.944 73.3227 105.552 73.3227 106.24C73.3227 106.928 73.4587 107.536 73.7307 108.064C74.0027 108.592 74.3867 109.008 74.8827 109.312C75.3787 109.6 75.9467 109.744 76.5867 109.744ZM90.0526 112.24C88.9326 112.24 87.9166 111.976 87.0046 111.448C86.0926 110.904 85.3646 110.176 84.8206 109.264C84.2926 108.352 84.0286 107.336 84.0286 106.216C84.0286 105.096 84.2926 104.088 84.8206 103.192C85.3646 102.296 86.0926 101.584 87.0046 101.056C87.9166 100.512 88.9326 100.24 90.0526 100.24C91.1886 100.24 92.2126 100.504 93.1246 101.032C94.0366 101.56 94.7566 102.28 95.2846 103.192C95.8286 104.088 96.1006 105.096 96.1006 106.216C96.1006 107.336 95.8286 108.352 95.2846 109.264C94.7566 110.176 94.0366 110.904 93.1246 111.448C92.2126 111.976 91.1886 112.24 90.0526 112.24ZM90.0526 109.696C90.7086 109.696 91.2846 109.552 91.7806 109.264C92.2926 108.96 92.6846 108.544 92.9566 108.016C93.2446 107.488 93.3886 106.888 93.3886 106.216C93.3886 105.544 93.2446 104.952 92.9566 104.44C92.6686 103.928 92.2766 103.528 91.7806 103.24C91.2846 102.936 90.7086 102.784 90.0526 102.784C89.4126 102.784 88.8366 102.936 88.3246 103.24C87.8286 103.528 87.4366 103.928 87.1486 104.44C86.8766 104.952 86.7406 105.544 86.7406 106.216C86.7406 106.888 86.8766 107.488 87.1486 108.016C87.4366 108.544 87.8286 108.96 88.3246 109.264C88.8366 109.552 89.4126 109.696 90.0526 109.696ZM98.296 112V100.48H100.936V112H98.296ZM100.936 105.592L100.024 105.136C100.024 103.68 100.344 102.504 100.984 101.608C101.64 100.696 102.624 100.24 103.936 100.24C104.512 100.24 105.032 100.344 105.496 100.552C105.96 100.76 106.392 101.096 106.792 101.56L105.064 103.336C104.856 103.112 104.624 102.952 104.368 102.856C104.112 102.76 103.816 102.712 103.48 102.712C102.744 102.712 102.136 102.944 101.656 103.408C101.176 103.872 100.936 104.6 100.936 105.592ZM112.542 112.24C111.502 112.24 110.558 111.976 109.71 111.448C108.878 110.92 108.214 110.208 107.718 109.312C107.238 108.4 106.998 107.384 106.998 106.264C106.998 105.128 107.238 104.112 107.718 103.216C108.214 102.304 108.878 101.584 109.71 101.056C110.558 100.512 111.502 100.24 112.542 100.24C113.422 100.24 114.198 100.432 114.87 100.816C115.558 101.184 116.102 101.696 116.502 102.352C116.902 103.008 117.102 103.752 117.102 104.584V107.896C117.102 108.728 116.902 109.472 116.502 110.128C116.118 110.784 115.582 111.304 114.894 111.688C114.206 112.056 113.422 112.24 112.542 112.24ZM112.974 109.744C113.95 109.744 114.734 109.416 115.326 108.76C115.934 108.104 116.238 107.264 116.238 106.24C116.238 105.552 116.102 104.944 115.83 104.416C115.558 103.888 115.174 103.48 114.678 103.192C114.198 102.888 113.63 102.736 112.974 102.736C112.334 102.736 111.766 102.888 111.27 103.192C110.79 103.48 110.406 103.888 110.118 104.416C109.846 104.944 109.71 105.552 109.71 106.24C109.71 106.928 109.846 107.536 110.118 108.064C110.406 108.592 110.79 109.008 111.27 109.312C111.766 109.6 112.334 109.744 112.974 109.744ZM116.07 112V108.904L116.526 106.096L116.07 103.312V100.48H118.71V112H116.07ZM123.392 112V95.68H126.032V112H123.392ZM120.632 102.88V100.48H128.792V102.88H120.632ZM135.734 112.24C134.582 112.24 133.542 111.984 132.614 111.472C131.702 110.944 130.974 110.224 130.43 109.312C129.902 108.4 129.638 107.376 129.638 106.24C129.638 105.104 129.902 104.088 130.43 103.192C130.958 102.28 131.67 101.56 132.566 101.032C133.478 100.504 134.486 100.24 135.59 100.24C136.662 100.24 137.606 100.488 138.422 100.984C139.254 101.48 139.902 102.16 140.366 103.024C140.846 103.888 141.086 104.872 141.086 105.976C141.086 106.168 141.07 106.368 141.038 106.576C141.022 106.768 140.99 106.984 140.942 107.224H131.486V105.064H139.574L138.59 105.928C138.558 105.224 138.422 104.632 138.182 104.152C137.942 103.672 137.598 103.304 137.15 103.048C136.718 102.792 136.182 102.664 135.542 102.664C134.87 102.664 134.286 102.808 133.79 103.096C133.294 103.384 132.91 103.792 132.638 104.32C132.366 104.832 132.23 105.448 132.23 106.168C132.23 106.888 132.374 107.52 132.662 108.064C132.95 108.608 133.358 109.032 133.886 109.336C134.414 109.624 135.022 109.768 135.71 109.768C136.302 109.768 136.846 109.664 137.342 109.456C137.854 109.248 138.286 108.944 138.638 108.544L140.318 110.248C139.758 110.904 139.078 111.4 138.278 111.736C137.478 112.072 136.63 112.24 135.734 112.24ZM148.367 112V95.2H151.127V112H148.367ZM150.263 104.8V102.28H158.807V104.8H150.263ZM150.263 97.72V95.2H159.215V97.72H150.263ZM161.625 112V100.48H164.265V112H161.625ZM162.945 98.368C162.497 98.368 162.121 98.216 161.817 97.912C161.529 97.608 161.385 97.232 161.385 96.784C161.385 96.336 161.529 95.96 161.817 95.656C162.121 95.352 162.497 95.2 162.945 95.2C163.409 95.2 163.785 95.352 164.073 95.656C164.361 95.96 164.505 96.336 164.505 96.784C164.505 97.232 164.361 97.608 164.073 97.912C163.785 98.216 163.409 98.368 162.945 98.368ZM175.122 112V105.352C175.122 104.584 174.874 103.952 174.378 103.456C173.898 102.96 173.274 102.712 172.506 102.712C171.994 102.712 171.538 102.824 171.138 103.048C170.738 103.272 170.426 103.584 170.202 103.984C169.978 104.384 169.866 104.84 169.866 105.352L168.834 104.776C168.834 103.896 169.026 103.12 169.41 102.448C169.794 101.76 170.322 101.224 170.994 100.84C171.682 100.44 172.45 100.24 173.298 100.24C174.162 100.24 174.93 100.464 175.602 100.912C176.274 101.344 176.802 101.912 177.186 102.616C177.57 103.304 177.762 104.024 177.762 104.776V112H175.122ZM167.226 112V100.48H169.866V112H167.226ZM185.268 112.24C184.228 112.24 183.284 111.976 182.436 111.448C181.604 110.92 180.94 110.208 180.444 109.312C179.964 108.4 179.724 107.384 179.724 106.264C179.724 105.128 179.964 104.112 180.444 103.216C180.94 102.304 181.604 101.584 182.436 101.056C183.284 100.512 184.228 100.24 185.268 100.24C186.148 100.24 186.924 100.432 187.596 100.816C188.284 101.184 188.828 101.696 189.228 102.352C189.628 103.008 189.828 103.752 189.828 104.584V107.896C189.828 108.728 189.628 109.472 189.228 110.128C188.844 110.784 188.308 111.304 187.62 111.688C186.932 112.056 186.148 112.24 185.268 112.24ZM185.7 109.744C186.676 109.744 187.46 109.416 188.052 108.76C188.66 108.104 188.964 107.264 188.964 106.24C188.964 105.552 188.828 104.944 188.556 104.416C188.284 103.888 187.9 103.48 187.404 103.192C186.924 102.888 186.356 102.736 185.7 102.736C185.06 102.736 184.492 102.888 183.996 103.192C183.516 103.48 183.132 103.888 182.844 104.416C182.572 104.944 182.436 105.552 182.436 106.24C182.436 106.928 182.572 107.536 182.844 108.064C183.132 108.592 183.516 109.008 183.996 109.312C184.492 109.6 185.06 109.744 185.7 109.744ZM188.796 112V108.904L189.252 106.096L188.796 103.312V100.48H191.436V112H188.796ZM202.262 112V105.352C202.262 104.584 202.014 103.952 201.518 103.456C201.038 102.96 200.414 102.712 199.646 102.712C199.134 102.712 198.678 102.824 198.278 103.048C197.878 103.272 197.566 103.584 197.342 103.984C197.118 104.384 197.006 104.84 197.006 105.352L195.974 104.776C195.974 103.896 196.166 103.12 196.55 102.448C196.934 101.76 197.462 101.224 198.134 100.84C198.822 100.44 199.59 100.24 200.438 100.24C201.302 100.24 202.07 100.464 202.742 100.912C203.414 101.344 203.942 101.912 204.326 102.616C204.71 103.304 204.902 104.024 204.902 104.776V112H202.262ZM194.366 112V100.48H197.006V112H194.366ZM212.889 112.24C211.753 112.24 210.721 111.976 209.793 111.448C208.881 110.92 208.161 110.2 207.633 109.288C207.105 108.376 206.841 107.36 206.841 106.24C206.841 105.104 207.105 104.088 207.633 103.192C208.161 102.28 208.881 101.56 209.793 101.032C210.721 100.504 211.753 100.24 212.889 100.24C213.785 100.24 214.617 100.416 215.385 100.768C216.169 101.104 216.833 101.592 217.377 102.232L215.649 103.984C215.313 103.584 214.905 103.288 214.425 103.096C213.961 102.888 213.449 102.784 212.889 102.784C212.233 102.784 211.649 102.936 211.137 103.24C210.641 103.528 210.249 103.928 209.961 104.44C209.689 104.952 209.553 105.552 209.553 106.24C209.553 106.912 209.689 107.512 209.961 108.04C210.249 108.552 210.641 108.96 211.137 109.264C211.649 109.552 212.233 109.696 212.889 109.696C213.449 109.696 213.961 109.6 214.425 109.408C214.905 109.2 215.313 108.896 215.649 108.496L217.377 110.248C216.833 110.888 216.169 111.384 215.385 111.736C214.617 112.072 213.785 112.24 212.889 112.24ZM219.304 112V100.48H221.944V112H219.304ZM220.624 98.368C220.176 98.368 219.8 98.216 219.496 97.912C219.208 97.608 219.064 97.232 219.064 96.784C219.064 96.336 219.208 95.96 219.496 95.656C219.8 95.352 220.176 95.2 220.624 95.2C221.088 95.2 221.464 95.352 221.752 95.656C222.04 95.96 222.184 96.336 222.184 96.784C222.184 97.232 222.04 97.608 221.752 97.912C221.464 98.216 221.088 98.368 220.624 98.368ZM229.729 112.24C228.689 112.24 227.745 111.976 226.897 111.448C226.065 110.92 225.401 110.208 224.905 109.312C224.425 108.4 224.185 107.384 224.185 106.264C224.185 105.128 224.425 104.112 224.905 103.216C225.401 102.304 226.065 101.584 226.897 101.056C227.745 100.512 228.689 100.24 229.729 100.24C230.609 100.24 231.385 100.432 232.057 100.816C232.745 101.184 233.289 101.696 233.689 102.352C234.089 103.008 234.289 103.752 234.289 104.584V107.896C234.289 108.728 234.089 109.472 233.689 110.128C233.305 110.784 232.769 111.304 232.081 111.688C231.393 112.056 230.609 112.24 229.729 112.24ZM230.161 109.744C231.137 109.744 231.921 109.416 232.513 108.76C233.121 108.104 233.425 107.264 233.425 106.24C233.425 105.552 233.289 104.944 233.017 104.416C232.745 103.888 232.361 103.48 231.865 103.192C231.385 102.888 230.817 102.736 230.161 102.736C229.521 102.736 228.953 102.888 228.457 103.192C227.977 103.48 227.593 103.888 227.305 104.416C227.033 104.944 226.897 105.552 226.897 106.24C226.897 106.928 227.033 107.536 227.305 108.064C227.593 108.592 227.977 109.008 228.457 109.312C228.953 109.6 229.521 109.744 230.161 109.744ZM233.257 112V108.904L233.713 106.096L233.257 103.312V100.48H235.897V112H233.257ZM238.827 112V94.72H241.467V112H238.827ZM89.5654 142.24C88.3494 142.24 87.2214 142.024 86.1814 141.592C85.1574 141.144 84.2614 140.528 83.4934 139.744C82.7254 138.944 82.1334 138.024 81.7174 136.984C81.3014 135.928 81.0934 134.8 81.0934 133.6C81.0934 132.4 81.3014 131.28 81.7174 130.24C82.1334 129.184 82.7254 128.264 83.4934 127.48C84.2614 126.696 85.1574 126.08 86.1814 125.632C87.2214 125.184 88.3494 124.96 89.5654 124.96C90.9254 124.96 92.1014 125.184 93.0934 125.632C94.0854 126.08 94.9654 126.688 95.7334 127.456L93.8614 129.328C93.3654 128.784 92.7574 128.36 92.0374 128.056C91.3334 127.752 90.5094 127.6 89.5654 127.6C88.7334 127.6 87.9734 127.744 87.2854 128.032C86.5974 128.32 85.9974 128.736 85.4854 129.28C84.9894 129.808 84.6054 130.44 84.3334 131.176C84.0614 131.912 83.9254 132.72 83.9254 133.6C83.9254 134.48 84.0614 135.288 84.3334 136.024C84.6054 136.76 84.9894 137.4 85.4854 137.944C85.9974 138.472 86.5974 138.88 87.2854 139.168C87.9734 139.456 88.7334 139.6 89.5654 139.6C90.5894 139.6 91.4534 139.448 92.1574 139.144C92.8774 138.824 93.4854 138.392 93.9814 137.848L95.8534 139.72C95.0854 140.504 94.1814 141.12 93.1414 141.568C92.1014 142.016 90.9094 142.24 89.5654 142.24ZM102.885 142.24C101.765 142.24 100.749 141.976 99.8366 141.448C98.9246 140.904 98.1966 140.176 97.6526 139.264C97.1246 138.352 96.8606 137.336 96.8606 136.216C96.8606 135.096 97.1246 134.088 97.6526 133.192C98.1966 132.296 98.9246 131.584 99.8366 131.056C100.749 130.512 101.765 130.24 102.885 130.24C104.021 130.24 105.045 130.504 105.957 131.032C106.869 131.56 107.589 132.28 108.117 133.192C108.661 134.088 108.933 135.096 108.933 136.216C108.933 137.336 108.661 138.352 108.117 139.264C107.589 140.176 106.869 140.904 105.957 141.448C105.045 141.976 104.021 142.24 102.885 142.24ZM102.885 139.696C103.541 139.696 104.117 139.552 104.613 139.264C105.125 138.96 105.517 138.544 105.789 138.016C106.077 137.488 106.221 136.888 106.221 136.216C106.221 135.544 106.077 134.952 105.789 134.44C105.501 133.928 105.109 133.528 104.613 133.24C104.117 132.936 103.541 132.784 102.885 132.784C102.245 132.784 101.669 132.936 101.157 133.24C100.661 133.528 100.269 133.928 99.9806 134.44C99.7086 134.952 99.5726 135.544 99.5726 136.216C99.5726 136.888 99.7086 137.488 99.9806 138.016C100.269 138.544 100.661 138.96 101.157 139.264C101.669 139.552 102.245 139.696 102.885 139.696ZM119.024 142V135.352C119.024 134.584 118.776 133.952 118.28 133.456C117.8 132.96 117.176 132.712 116.408 132.712C115.896 132.712 115.44 132.824 115.04 133.048C114.64 133.272 114.328 133.584 114.104 133.984C113.88 134.384 113.768 134.84 113.768 135.352L112.736 134.776C112.736 133.896 112.928 133.12 113.312 132.448C113.696 131.76 114.224 131.224 114.896 130.84C115.584 130.44 116.352 130.24 117.2 130.24C118.064 130.24 118.832 130.464 119.504 130.912C120.176 131.344 120.704 131.912 121.088 132.616C121.472 133.304 121.664 134.024 121.664 134.776V142H119.024ZM111.128 142V130.48H113.768V142H111.128ZM128.115 142.24C127.475 142.24 126.859 142.16 126.267 142C125.675 141.824 125.131 141.584 124.635 141.28C124.139 140.96 123.707 140.576 123.339 140.128L125.019 138.448C125.419 138.912 125.875 139.264 126.387 139.504C126.915 139.728 127.507 139.84 128.163 139.84C128.755 139.84 129.203 139.752 129.507 139.576C129.811 139.4 129.963 139.144 129.963 138.808C129.963 138.456 129.819 138.184 129.531 137.992C129.243 137.8 128.867 137.64 128.403 137.512C127.955 137.368 127.475 137.224 126.963 137.08C126.467 136.936 125.987 136.744 125.523 136.504C125.075 136.248 124.707 135.904 124.419 135.472C124.131 135.04 123.987 134.48 123.987 133.792C123.987 133.056 124.155 132.424 124.491 131.896C124.843 131.368 125.331 130.96 125.955 130.672C126.595 130.384 127.355 130.24 128.235 130.24C129.163 130.24 129.979 130.408 130.683 130.744C131.403 131.064 132.003 131.552 132.483 132.208L130.803 133.888C130.467 133.472 130.083 133.16 129.651 132.952C129.219 132.744 128.723 132.64 128.163 132.64C127.635 132.64 127.227 132.72 126.939 132.88C126.651 133.04 126.507 133.272 126.507 133.576C126.507 133.896 126.651 134.144 126.939 134.32C127.227 134.496 127.595 134.648 128.043 134.776C128.507 134.904 128.987 135.048 129.483 135.208C129.995 135.352 130.475 135.56 130.923 135.832C131.387 136.088 131.763 136.44 132.051 136.888C132.339 137.32 132.483 137.888 132.483 138.592C132.483 139.712 132.091 140.6 131.307 141.256C130.523 141.912 129.459 142.24 128.115 142.24ZM139.387 142.24C138.411 142.24 137.539 142.024 136.771 141.592C136.019 141.16 135.427 140.568 134.995 139.816C134.579 139.048 134.371 138.168 134.371 137.176V130.48H137.011V137.056C137.011 137.616 137.099 138.096 137.275 138.496C137.467 138.88 137.739 139.176 138.091 139.384C138.459 139.592 138.891 139.696 139.387 139.696C140.155 139.696 140.739 139.472 141.139 139.024C141.555 138.56 141.763 137.904 141.763 137.056V130.48H144.403V137.176C144.403 138.184 144.187 139.072 143.755 139.84C143.339 140.592 142.755 141.184 142.003 141.616C141.251 142.032 140.379 142.24 139.387 142.24ZM147.058 142V124.72H149.698V142H147.058ZM154.388 142V125.68H157.028V142H154.388ZM151.628 132.88V130.48H159.788V132.88H151.628ZM161.73 142V130.48H164.37V142H161.73ZM163.05 128.368C162.602 128.368 162.226 128.216 161.922 127.912C161.634 127.608 161.49 127.232 161.49 126.784C161.49 126.336 161.634 125.96 161.922 125.656C162.226 125.352 162.602 125.2 163.05 125.2C163.514 125.2 163.89 125.352 164.178 125.656C164.466 125.96 164.61 126.336 164.61 126.784C164.61 127.232 164.466 127.608 164.178 127.912C163.89 128.216 163.514 128.368 163.05 128.368ZM175.227 142V135.352C175.227 134.584 174.979 133.952 174.483 133.456C174.003 132.96 173.379 132.712 172.611 132.712C172.099 132.712 171.643 132.824 171.243 133.048C170.843 133.272 170.531 133.584 170.307 133.984C170.083 134.384 169.971 134.84 169.971 135.352L168.939 134.776C168.939 133.896 169.131 133.12 169.515 132.448C169.899 131.76 170.427 131.224 171.099 130.84C171.787 130.44 172.555 130.24 173.403 130.24C174.267 130.24 175.035 130.464 175.707 130.912C176.379 131.344 176.907 131.912 177.291 132.616C177.675 133.304 177.867 134.024 177.867 134.776V142H175.227ZM167.331 142V130.48H169.971V142H167.331ZM185.35 147.04C184.134 147.04 183.07 146.816 182.158 146.368C181.246 145.936 180.51 145.32 179.95 144.52L181.678 142.792C182.142 143.368 182.67 143.8 183.262 144.088C183.854 144.376 184.566 144.52 185.398 144.52C186.438 144.52 187.262 144.248 187.87 143.704C188.478 143.176 188.782 142.448 188.782 141.52V138.688L189.238 136.144L188.782 133.576V130.48H191.422V141.52C191.422 142.624 191.166 143.584 190.654 144.4C190.142 145.232 189.43 145.88 188.518 146.344C187.606 146.808 186.55 147.04 185.35 147.04ZM185.23 141.76C184.206 141.76 183.278 141.512 182.446 141.016C181.63 140.504 180.982 139.808 180.502 138.928C180.038 138.048 179.806 137.064 179.806 135.976C179.806 134.888 180.038 133.912 180.502 133.048C180.982 132.184 181.63 131.504 182.446 131.008C183.278 130.496 184.206 130.24 185.23 130.24C186.142 130.24 186.942 130.424 187.63 130.792C188.318 131.16 188.854 131.672 189.238 132.328C189.622 132.968 189.814 133.72 189.814 134.584V137.416C189.814 138.264 189.614 139.016 189.214 139.672C188.83 140.328 188.294 140.84 187.606 141.208C186.918 141.576 186.126 141.76 185.23 141.76ZM185.758 139.264C186.398 139.264 186.958 139.128 187.438 138.856C187.918 138.584 188.286 138.208 188.542 137.728C188.814 137.232 188.95 136.656 188.95 136C188.95 135.344 188.814 134.776 188.542 134.296C188.286 133.8 187.918 133.416 187.438 133.144C186.958 132.872 186.398 132.736 185.758 132.736C185.118 132.736 184.55 132.872 184.054 133.144C183.574 133.416 183.198 133.8 182.926 134.296C182.654 134.776 182.518 135.344 182.518 136C182.518 136.64 182.654 137.208 182.926 137.704C183.198 138.2 183.574 138.584 184.054 138.856C184.55 139.128 185.118 139.264 185.758 139.264Z" fill="black" fill-opacity="0.79"/>
<path d="M29.6596 170V157.508H31.3516V170H29.6596ZM30.8116 170V168.452H37.9756V170H30.8116ZM30.8116 164.348V162.872H37.3816V164.348H30.8116ZM30.8116 159.056V157.508H37.8856V159.056H30.8116ZM46.0368 170V165.014C46.0368 164.366 45.8328 163.832 45.4248 163.412C45.0168 162.992 44.4888 162.782 43.8408 162.782C43.4088 162.782 43.0248 162.878 42.6888 163.07C42.3528 163.262 42.0888 163.526 41.8968 163.862C41.7048 164.198 41.6088 164.582 41.6088 165.014L40.9428 164.636C40.9428 163.988 41.0868 163.412 41.3748 162.908C41.6628 162.404 42.0648 162.008 42.5808 161.72C43.0968 161.42 43.6788 161.27 44.3268 161.27C44.9748 161.27 45.5448 161.432 46.0368 161.756C46.5408 162.08 46.9368 162.506 47.2248 163.034C47.5128 163.55 47.6568 164.102 47.6568 164.69V170H46.0368ZM39.9888 170V161.45H41.6088V170H39.9888ZM55.8981 170V165.014C55.8981 164.366 55.6941 163.832 55.2861 163.412C54.8781 162.992 54.3501 162.782 53.7021 162.782C53.2701 162.782 52.8861 162.878 52.5501 163.07C52.2141 163.262 51.9501 163.526 51.7581 163.862C51.5661 164.198 51.4701 164.582 51.4701 165.014L50.8041 164.636C50.8041 163.988 50.9481 163.412 51.2361 162.908C51.5241 162.404 51.9261 162.008 52.4421 161.72C52.9581 161.42 53.5401 161.27 54.1881 161.27C54.8361 161.27 55.4061 161.414 55.8981 161.702C56.4021 161.99 56.7981 162.392 57.0861 162.908C57.3741 163.424 57.5181 164.018 57.5181 164.69V170H55.8981ZM49.8501 170V157.148H51.4701V170H49.8501ZM63.3474 170.18C62.5674 170.18 61.8594 169.988 61.2234 169.604C60.5874 169.208 60.0834 168.674 59.7114 168.002C59.3514 167.33 59.1714 166.574 59.1714 165.734C59.1714 164.894 59.3514 164.138 59.7114 163.466C60.0834 162.794 60.5814 162.26 61.2054 161.864C61.8414 161.468 62.5554 161.27 63.3474 161.27C63.9954 161.27 64.5714 161.408 65.0754 161.684C65.5914 161.948 66.0054 162.32 66.3174 162.8C66.6294 163.268 66.8034 163.814 66.8394 164.438V167.012C66.8034 167.624 66.6294 168.17 66.3174 168.65C66.0174 169.13 65.6094 169.508 65.0934 169.784C64.5894 170.048 64.0074 170.18 63.3474 170.18ZM63.6174 168.65C64.4214 168.65 65.0694 168.38 65.5614 167.84C66.0534 167.288 66.2994 166.586 66.2994 165.734C66.2994 165.146 66.1854 164.636 65.9574 164.204C65.7414 163.76 65.4294 163.418 65.0214 163.178C64.6134 162.926 64.1394 162.8 63.5994 162.8C63.0594 162.8 62.5794 162.926 62.1594 163.178C61.7514 163.43 61.4274 163.778 61.1874 164.222C60.9594 164.654 60.8454 165.152 60.8454 165.716C60.8454 166.292 60.9594 166.802 61.1874 167.246C61.4274 167.678 61.7574 168.02 62.1774 168.272C62.5974 168.524 63.0774 168.65 63.6174 168.65ZM66.1914 170V167.696L66.4974 165.608L66.1914 163.538V161.45H67.8294V170H66.1914ZM76.236 170V165.014C76.236 164.366 76.032 163.832 75.624 163.412C75.216 162.992 74.688 162.782 74.04 162.782C73.608 162.782 73.224 162.878 72.888 163.07C72.552 163.262 72.288 163.526 72.096 163.862C71.904 164.198 71.808 164.582 71.808 165.014L71.142 164.636C71.142 163.988 71.286 163.412 71.574 162.908C71.862 162.404 72.264 162.008 72.78 161.72C73.296 161.42 73.878 161.27 74.526 161.27C75.174 161.27 75.744 161.432 76.236 161.756C76.74 162.08 77.136 162.506 77.424 163.034C77.712 163.55 77.856 164.102 77.856 164.69V170H76.236ZM70.188 170V161.45H71.808V170H70.188ZM83.9553 170.18C83.1153 170.18 82.3533 169.982 81.6693 169.586C80.9973 169.19 80.4633 168.656 80.0673 167.984C79.6833 167.3 79.4913 166.544 79.4913 165.716C79.4913 164.876 79.6833 164.12 80.0673 163.448C80.4633 162.776 80.9973 162.248 81.6693 161.864C82.3533 161.468 83.1153 161.27 83.9553 161.27C84.6153 161.27 85.2273 161.396 85.7913 161.648C86.3553 161.888 86.8413 162.242 87.2493 162.71L86.1693 163.79C85.9053 163.478 85.5813 163.244 85.1973 163.088C84.8253 162.92 84.4113 162.836 83.9553 162.836C83.4153 162.836 82.9353 162.962 82.5153 163.214C82.0953 163.454 81.7653 163.79 81.5253 164.222C81.2853 164.654 81.1653 165.152 81.1653 165.716C81.1653 166.28 81.2853 166.778 81.5253 167.21C81.7653 167.642 82.0953 167.984 82.5153 168.236C82.9353 168.488 83.4153 168.614 83.9553 168.614C84.4113 168.614 84.8253 168.536 85.1973 168.38C85.5813 168.212 85.9113 167.972 86.1873 167.66L87.2493 168.74C86.8533 169.196 86.3673 169.55 85.7913 169.802C85.2273 170.054 84.6153 170.18 83.9553 170.18ZM92.6402 170.18C91.7882 170.18 91.0202 169.988 90.3362 169.604C89.6522 169.208 89.1122 168.674 88.7162 168.002C88.3202 167.33 88.1222 166.568 88.1222 165.716C88.1222 164.876 88.3142 164.12 88.6982 163.448C89.0942 162.776 89.6222 162.248 90.2822 161.864C90.9542 161.468 91.7042 161.27 92.5322 161.27C93.3242 161.27 94.0202 161.45 94.6202 161.81C95.2322 162.17 95.7062 162.668 96.0422 163.304C96.3902 163.94 96.5642 164.66 96.5642 165.464C96.5642 165.584 96.5582 165.716 96.5462 165.86C96.5342 165.992 96.5102 166.148 96.4742 166.328H89.2562V164.978H95.6102L95.0162 165.5C95.0162 164.924 94.9142 164.438 94.7102 164.042C94.5062 163.634 94.2182 163.322 93.8462 163.106C93.4742 162.878 93.0242 162.764 92.4962 162.764C91.9442 162.764 91.4582 162.884 91.0382 163.124C90.6182 163.364 90.2942 163.7 90.0662 164.132C89.8382 164.564 89.7242 165.074 89.7242 165.662C89.7242 166.262 89.8442 166.79 90.0842 167.246C90.3242 167.69 90.6662 168.038 91.1102 168.29C91.5542 168.53 92.0642 168.65 92.6402 168.65C93.1202 168.65 93.5582 168.566 93.9542 168.398C94.3622 168.23 94.7102 167.978 94.9982 167.642L96.0422 168.704C95.6342 169.184 95.1302 169.55 94.5302 169.802C93.9422 170.054 93.3122 170.18 92.6402 170.18ZM104.883 170.072L101.175 161.45H102.975L105.729 168.2H105.153L108.051 161.45H109.851L105.855 170.072H104.883ZM102.435 173.582L104.955 168.416L105.855 170.072L104.235 173.582H102.435ZM114.752 170.18C113.912 170.18 113.156 169.982 112.484 169.586C111.812 169.19 111.278 168.656 110.882 167.984C110.486 167.3 110.288 166.538 110.288 165.698C110.288 164.87 110.486 164.126 110.882 163.466C111.278 162.794 111.812 162.26 112.484 161.864C113.156 161.468 113.912 161.27 114.752 161.27C115.58 161.27 116.33 161.468 117.002 161.864C117.686 162.248 118.226 162.776 118.622 163.448C119.018 164.12 119.216 164.87 119.216 165.698C119.216 166.538 119.018 167.3 118.622 167.984C118.226 168.656 117.686 169.19 117.002 169.586C116.33 169.982 115.58 170.18 114.752 170.18ZM114.752 168.614C115.292 168.614 115.772 168.488 116.192 168.236C116.612 167.984 116.942 167.642 117.182 167.21C117.422 166.766 117.542 166.262 117.542 165.698C117.542 165.146 117.416 164.654 117.164 164.222C116.924 163.79 116.594 163.454 116.174 163.214C115.766 162.962 115.292 162.836 114.752 162.836C114.212 162.836 113.732 162.962 113.312 163.214C112.892 163.454 112.562 163.79 112.322 164.222C112.082 164.654 111.962 165.146 111.962 165.698C111.962 166.262 112.082 166.766 112.322 167.21C112.562 167.642 112.892 167.984 113.312 168.236C113.732 168.488 114.212 168.614 114.752 168.614ZM124.48 170.18C123.784 170.18 123.154 170.024 122.59 169.712C122.038 169.388 121.606 168.944 121.294 168.38C120.982 167.816 120.826 167.162 120.826 166.418V161.45H122.446V166.346C122.446 166.814 122.524 167.222 122.68 167.57C122.848 167.906 123.088 168.164 123.4 168.344C123.712 168.524 124.078 168.614 124.498 168.614C125.134 168.614 125.632 168.416 125.992 168.02C126.352 167.612 126.532 167.054 126.532 166.346V161.45H128.152V166.418C128.152 167.162 127.996 167.816 127.684 168.38C127.372 168.944 126.94 169.388 126.388 169.712C125.848 170.024 125.212 170.18 124.48 170.18ZM130.323 170V161.45H131.943V170H130.323ZM131.943 165.122L131.331 164.852C131.331 163.76 131.583 162.89 132.087 162.242C132.591 161.594 133.317 161.27 134.265 161.27C134.697 161.27 135.087 161.348 135.435 161.504C135.783 161.648 136.107 161.894 136.407 162.242L135.345 163.34C135.165 163.148 134.967 163.01 134.751 162.926C134.535 162.842 134.283 162.8 133.995 162.8C133.395 162.8 132.903 162.992 132.519 163.376C132.135 163.76 131.943 164.342 131.943 165.122ZM144.326 170.18C143.846 170.18 143.39 170.12 142.958 170C142.538 169.868 142.148 169.688 141.788 169.46C141.428 169.22 141.116 168.938 140.852 168.614L141.896 167.57C142.208 167.954 142.568 168.242 142.976 168.434C143.384 168.614 143.84 168.704 144.344 168.704C144.848 168.704 145.238 168.62 145.514 168.452C145.79 168.272 145.928 168.026 145.928 167.714C145.928 167.402 145.814 167.162 145.586 166.994C145.37 166.814 145.088 166.67 144.74 166.562C144.392 166.442 144.02 166.328 143.624 166.22C143.24 166.1 142.874 165.95 142.526 165.77C142.178 165.59 141.89 165.344 141.662 165.032C141.446 164.72 141.338 164.306 141.338 163.79C141.338 163.274 141.464 162.83 141.716 162.458C141.968 162.074 142.316 161.78 142.76 161.576C143.216 161.372 143.762 161.27 144.398 161.27C145.07 161.27 145.664 161.39 146.18 161.63C146.708 161.858 147.14 162.206 147.476 162.674L146.432 163.718C146.192 163.406 145.892 163.166 145.532 162.998C145.184 162.83 144.788 162.746 144.344 162.746C143.876 162.746 143.516 162.83 143.264 162.998C143.024 163.154 142.904 163.376 142.904 163.664C142.904 163.952 143.012 164.174 143.228 164.33C143.444 164.486 143.726 164.618 144.074 164.726C144.434 164.834 144.806 164.948 145.19 165.068C145.574 165.176 145.94 165.326 146.288 165.518C146.636 165.71 146.918 165.968 147.134 166.292C147.362 166.616 147.476 167.042 147.476 167.57C147.476 168.374 147.188 169.01 146.612 169.478C146.048 169.946 145.286 170.18 144.326 170.18ZM154.762 170L150.766 165.626L154.726 161.45H156.688L152.278 166.058L152.35 165.122L156.85 170H154.762ZM149.29 170V157.148H150.91V170H149.29ZM157.956 170V161.45H159.576V170H157.956ZM158.766 159.74C158.466 159.74 158.22 159.644 158.028 159.452C157.836 159.248 157.74 158.996 157.74 158.696C157.74 158.408 157.836 158.168 158.028 157.976C158.22 157.772 158.466 157.67 158.766 157.67C159.066 157.67 159.312 157.772 159.504 157.976C159.696 158.168 159.792 158.408 159.792 158.696C159.792 158.996 159.696 159.248 159.504 159.452C159.312 159.644 159.066 159.74 158.766 159.74ZM161.963 170V157.148H163.583V170H161.963ZM165.954 170V157.148H167.574V170H165.954ZM172.662 170.18C172.182 170.18 171.726 170.12 171.294 170C170.874 169.868 170.484 169.688 170.124 169.46C169.764 169.22 169.452 168.938 169.188 168.614L170.232 167.57C170.544 167.954 170.904 168.242 171.312 168.434C171.72 168.614 172.176 168.704 172.68 168.704C173.184 168.704 173.574 168.62 173.85 168.452C174.126 168.272 174.264 168.026 174.264 167.714C174.264 167.402 174.15 167.162 173.922 166.994C173.706 166.814 173.424 166.67 173.076 166.562C172.728 166.442 172.356 166.328 171.96 166.22C171.576 166.1 171.21 165.95 170.862 165.77C170.514 165.59 170.226 165.344 169.998 165.032C169.782 164.72 169.674 164.306 169.674 163.79C169.674 163.274 169.8 162.83 170.052 162.458C170.304 162.074 170.652 161.78 171.096 161.576C171.552 161.372 172.098 161.27 172.734 161.27C173.406 161.27 174 161.39 174.516 161.63C175.044 161.858 175.476 162.206 175.812 162.674L174.768 163.718C174.528 163.406 174.228 163.166 173.868 162.998C173.52 162.83 173.124 162.746 172.68 162.746C172.212 162.746 171.852 162.83 171.6 162.998C171.36 163.154 171.24 163.376 171.24 163.664C171.24 163.952 171.348 164.174 171.564 164.33C171.78 164.486 172.062 164.618 172.41 164.726C172.77 164.834 173.142 164.948 173.526 165.068C173.91 165.176 174.276 165.326 174.624 165.518C174.972 165.71 175.254 165.968 175.47 166.292C175.698 166.616 175.812 167.042 175.812 167.57C175.812 168.374 175.524 169.01 174.948 169.478C174.384 169.946 173.622 170.18 172.662 170.18ZM183.818 170L180.434 161.45H182.126L184.574 168.11H184.034L186.464 161.45H187.4L189.83 168.11H189.29L191.738 161.45H193.43L190.064 170H189.11L186.644 163.538H187.238L184.754 170H183.818ZM194.747 170V161.45H196.367V170H194.747ZM195.557 159.74C195.257 159.74 195.011 159.644 194.819 159.452C194.627 159.248 194.531 158.996 194.531 158.696C194.531 158.408 194.627 158.168 194.819 157.976C195.011 157.772 195.257 157.67 195.557 157.67C195.857 157.67 196.103 157.772 196.295 157.976C196.487 158.168 196.583 158.408 196.583 158.696C196.583 158.996 196.487 159.248 196.295 159.452C196.103 159.644 195.857 159.74 195.557 159.74ZM200.068 170V157.868H201.688V170H200.068ZM197.962 162.926V161.45H203.794V162.926H197.962ZM211.429 170V165.014C211.429 164.366 211.225 163.832 210.817 163.412C210.409 162.992 209.881 162.782 209.233 162.782C208.801 162.782 208.417 162.878 208.081 163.07C207.745 163.262 207.481 163.526 207.289 163.862C207.097 164.198 207.001 164.582 207.001 165.014L206.335 164.636C206.335 163.988 206.479 163.412 206.767 162.908C207.055 162.404 207.457 162.008 207.973 161.72C208.489 161.42 209.071 161.27 209.719 161.27C210.367 161.27 210.937 161.414 211.429 161.702C211.933 161.99 212.329 162.392 212.617 162.908C212.905 163.424 213.049 164.018 213.049 164.69V170H211.429ZM205.381 170V157.148H207.001V170H205.381ZM222.893 170.18C222.053 170.18 221.297 169.982 220.625 169.586C219.953 169.19 219.419 168.656 219.023 167.984C218.627 167.3 218.429 166.538 218.429 165.698C218.429 164.87 218.627 164.126 219.023 163.466C219.419 162.794 219.953 162.26 220.625 161.864C221.297 161.468 222.053 161.27 222.893 161.27C223.721 161.27 224.471 161.468 225.143 161.864C225.827 162.248 226.367 162.776 226.763 163.448C227.159 164.12 227.357 164.87 227.357 165.698C227.357 166.538 227.159 167.3 226.763 167.984C226.367 168.656 225.827 169.19 225.143 169.586C224.471 169.982 223.721 170.18 222.893 170.18ZM222.893 168.614C223.433 168.614 223.913 168.488 224.333 168.236C224.753 167.984 225.083 167.642 225.323 167.21C225.563 166.766 225.683 166.262 225.683 165.698C225.683 165.146 225.557 164.654 225.305 164.222C225.065 163.79 224.735 163.454 224.315 163.214C223.907 162.962 223.433 162.836 222.893 162.836C222.353 162.836 221.873 162.962 221.453 163.214C221.033 163.454 220.703 163.79 220.463 164.222C220.223 164.654 220.103 165.146 220.103 165.698C220.103 166.262 220.223 166.766 220.463 167.21C220.703 167.642 221.033 167.984 221.453 168.236C221.873 168.488 222.353 168.614 222.893 168.614ZM232.62 170.18C231.924 170.18 231.294 170.024 230.73 169.712C230.178 169.388 229.746 168.944 229.434 168.38C229.122 167.816 228.966 167.162 228.966 166.418V161.45H230.586V166.346C230.586 166.814 230.664 167.222 230.82 167.57C230.988 167.906 231.228 168.164 231.54 168.344C231.852 168.524 232.218 168.614 232.638 168.614C233.274 168.614 233.772 168.416 234.132 168.02C234.492 167.612 234.672 167.054 234.672 166.346V161.45H236.292V166.418C236.292 167.162 236.136 167.816 235.824 168.38C235.512 168.944 235.08 169.388 234.528 169.712C233.988 170.024 233.352 170.18 232.62 170.18ZM238.463 170V161.45H240.083V170H238.463ZM240.083 165.122L239.471 164.852C239.471 163.76 239.723 162.89 240.227 162.242C240.731 161.594 241.457 161.27 242.405 161.27C242.837 161.27 243.227 161.348 243.575 161.504C243.923 161.648 244.247 161.894 244.547 162.242L243.485 163.34C243.305 163.148 243.107 163.01 242.891 162.926C242.675 162.842 242.423 162.8 242.135 162.8C241.535 162.8 241.043 162.992 240.659 163.376C240.275 163.76 240.083 164.342 240.083 165.122ZM38.5608 193L35.1768 184.45H36.8688L39.3168 191.11H38.7768L41.2068 184.45H42.1428L44.5728 191.11H44.0328L46.4808 184.45H48.1728L44.8068 193H43.8528L41.3868 186.538H41.9808L39.4968 193H38.5608ZM53.3267 193.18C52.4747 193.18 51.7067 192.988 51.0227 192.604C50.3387 192.208 49.7987 191.674 49.4027 191.002C49.0067 190.33 48.8087 189.568 48.8087 188.716C48.8087 187.876 49.0007 187.12 49.3847 186.448C49.7807 185.776 50.3087 185.248 50.9687 184.864C51.6407 184.468 52.3907 184.27 53.2187 184.27C54.0107 184.27 54.7067 184.45 55.3067 184.81C55.9187 185.17 56.3927 185.668 56.7287 186.304C57.0767 186.94 57.2507 187.66 57.2507 188.464C57.2507 188.584 57.2447 188.716 57.2327 188.86C57.2207 188.992 57.1967 189.148 57.1607 189.328H49.9427V187.978H56.2967L55.7027 188.5C55.7027 187.924 55.6007 187.438 55.3967 187.042C55.1927 186.634 54.9047 186.322 54.5327 186.106C54.1607 185.878 53.7107 185.764 53.1827 185.764C52.6307 185.764 52.1447 185.884 51.7247 186.124C51.3047 186.364 50.9807 186.7 50.7527 187.132C50.5247 187.564 50.4107 188.074 50.4107 188.662C50.4107 189.262 50.5307 189.79 50.7707 190.246C51.0107 190.69 51.3527 191.038 51.7967 191.29C52.2407 191.53 52.7507 191.65 53.3267 191.65C53.8067 191.65 54.2447 191.566 54.6407 191.398C55.0487 191.23 55.3967 190.978 55.6847 190.642L56.7287 191.704C56.3207 192.184 55.8167 192.55 55.2167 192.802C54.6287 193.054 53.9987 193.18 53.3267 193.18ZM63.5171 193.18C62.8691 193.18 62.2811 193.048 61.7531 192.784C61.2371 192.508 60.8231 192.13 60.5111 191.65C60.1991 191.17 60.0251 190.624 59.9891 190.012V187.438C60.0251 186.814 60.1991 186.268 60.5111 185.8C60.8351 185.32 61.2551 184.948 61.7711 184.684C62.2991 184.408 62.8811 184.27 63.5171 184.27C64.2971 184.27 64.9991 184.468 65.6231 184.864C66.2591 185.26 66.7571 185.794 67.1171 186.466C67.4771 187.138 67.6571 187.894 67.6571 188.734C67.6571 189.574 67.4771 190.33 67.1171 191.002C66.7571 191.674 66.2591 192.208 65.6231 192.604C64.9991 192.988 64.2971 193.18 63.5171 193.18ZM59.0171 193V180.148H60.6371V186.538L60.3311 188.608L60.6371 190.696V193H59.0171ZM63.2471 191.65C63.7871 191.65 64.2611 191.524 64.6691 191.272C65.0771 191.02 65.4011 190.678 65.6411 190.246C65.8811 189.802 66.0011 189.292 66.0011 188.716C66.0011 188.152 65.8811 187.648 65.6411 187.204C65.4011 186.76 65.0771 186.418 64.6691 186.178C64.2611 185.926 63.7931 185.8 63.2651 185.8C62.7251 185.8 62.2511 185.926 61.8431 186.178C61.4351 186.418 61.1171 186.76 60.8891 187.204C60.6611 187.648 60.5471 188.158 60.5471 188.734C60.5471 189.298 60.6551 189.802 60.8711 190.246C61.0991 190.678 61.4171 191.02 61.8251 191.272C62.2451 191.524 62.7191 191.65 63.2471 191.65ZM76.8558 193.18C76.0638 193.18 75.3558 192.988 74.7318 192.604C74.1078 192.208 73.6098 191.674 73.2378 191.002C72.8778 190.33 72.6978 189.574 72.6978 188.734C72.6978 187.894 72.8778 187.138 73.2378 186.466C73.6098 185.794 74.1078 185.26 74.7318 184.864C75.3558 184.468 76.0638 184.27 76.8558 184.27C77.4918 184.27 78.0678 184.408 78.5838 184.684C79.0998 184.948 79.5138 185.32 79.8258 185.8C80.1498 186.268 80.3298 186.814 80.3658 187.438V190.012C80.3298 190.624 80.1558 191.17 79.8438 191.65C79.5318 192.13 79.1178 192.508 78.6018 192.784C78.0858 193.048 77.5038 193.18 76.8558 193.18ZM77.1258 191.65C77.6658 191.65 78.1338 191.524 78.5298 191.272C78.9378 191.02 79.2558 190.678 79.4838 190.246C79.7118 189.802 79.8258 189.298 79.8258 188.734C79.8258 188.146 79.7058 187.636 79.4658 187.204C79.2378 186.772 78.9198 186.43 78.5118 186.178C78.1158 185.926 77.6478 185.8 77.1078 185.8C76.5678 185.8 76.0938 185.926 75.6858 186.178C75.2778 186.43 74.9538 186.778 74.7138 187.222C74.4858 187.654 74.3718 188.152 74.3718 188.716C74.3718 189.292 74.4858 189.802 74.7138 190.246C74.9538 190.678 75.2778 191.02 75.6858 191.272C76.1058 191.524 76.5858 191.65 77.1258 191.65ZM81.3558 193H79.7178V190.696L80.0238 188.608L79.7178 186.538V180.148H81.3558V193ZM87.6744 193.18C86.8224 193.18 86.0544 192.988 85.3704 192.604C84.6864 192.208 84.1464 191.674 83.7504 191.002C83.3544 190.33 83.1564 189.568 83.1564 188.716C83.1564 187.876 83.3484 187.12 83.7324 186.448C84.1284 185.776 84.6564 185.248 85.3164 184.864C85.9884 184.468 86.7384 184.27 87.5664 184.27C88.3584 184.27 89.0544 184.45 89.6544 184.81C90.2664 185.17 90.7404 185.668 91.0764 186.304C91.4244 186.94 91.5984 187.66 91.5984 188.464C91.5984 188.584 91.5924 188.716 91.5804 188.86C91.5684 188.992 91.5444 189.148 91.5084 189.328H84.2904V187.978H90.6444L90.0504 188.5C90.0504 187.924 89.9484 187.438 89.7444 187.042C89.5404 186.634 89.2524 186.322 88.8804 186.106C88.5084 185.878 88.0584 185.764 87.5304 185.764C86.9784 185.764 86.4924 185.884 86.0724 186.124C85.6524 186.364 85.3284 186.7 85.1004 187.132C84.8724 187.564 84.7584 188.074 84.7584 188.662C84.7584 189.262 84.8784 189.79 85.1184 190.246C85.3584 190.69 85.7004 191.038 86.1444 191.29C86.5884 191.53 87.0984 191.65 87.6744 191.65C88.1544 191.65 88.5924 191.566 88.9884 191.398C89.3964 191.23 89.7444 190.978 90.0324 190.642L91.0764 191.704C90.6684 192.184 90.1644 192.55 89.5644 192.802C88.9764 193.054 88.3464 193.18 87.6744 193.18ZM96.1581 193L92.2341 184.45H94.0341L97.1841 191.668H96.1401L99.3081 184.45H101.036L97.1121 193H96.1581ZM106.044 193.18C105.192 193.18 104.424 192.988 103.74 192.604C103.056 192.208 102.516 191.674 102.12 191.002C101.724 190.33 101.526 189.568 101.526 188.716C101.526 187.876 101.718 187.12 102.102 186.448C102.498 185.776 103.026 185.248 103.686 184.864C104.358 184.468 105.108 184.27 105.936 184.27C106.728 184.27 107.424 184.45 108.024 184.81C108.636 185.17 109.11 185.668 109.446 186.304C109.794 186.94 109.968 187.66 109.968 188.464C109.968 188.584 109.962 188.716 109.95 188.86C109.938 188.992 109.914 189.148 109.878 189.328H102.66V187.978H109.014L108.42 188.5C108.42 187.924 108.318 187.438 108.114 187.042C107.91 186.634 107.622 186.322 107.25 186.106C106.878 185.878 106.428 185.764 105.9 185.764C105.348 185.764 104.862 185.884 104.442 186.124C104.022 186.364 103.698 186.7 103.47 187.132C103.242 187.564 103.128 188.074 103.128 188.662C103.128 189.262 103.248 189.79 103.488 190.246C103.728 190.69 104.07 191.038 104.514 191.29C104.958 191.53 105.468 191.65 106.044 191.65C106.524 191.65 106.962 191.566 107.358 191.398C107.766 191.23 108.114 190.978 108.402 190.642L109.446 191.704C109.038 192.184 108.534 192.55 107.934 192.802C107.346 193.054 106.716 193.18 106.044 193.18ZM111.734 193V180.148H113.354V193H111.734ZM119.63 193.18C118.79 193.18 118.034 192.982 117.362 192.586C116.69 192.19 116.156 191.656 115.76 190.984C115.364 190.3 115.166 189.538 115.166 188.698C115.166 187.87 115.364 187.126 115.76 186.466C116.156 185.794 116.69 185.26 117.362 184.864C118.034 184.468 118.79 184.27 119.63 184.27C120.458 184.27 121.208 184.468 121.88 184.864C122.564 185.248 123.104 185.776 123.5 186.448C123.896 187.12 124.094 187.87 124.094 188.698C124.094 189.538 123.896 190.3 123.5 190.984C123.104 191.656 122.564 192.19 121.88 192.586C121.208 192.982 120.458 193.18 119.63 193.18ZM119.63 191.614C120.17 191.614 120.65 191.488 121.07 191.236C121.49 190.984 121.82 190.642 122.06 190.21C122.3 189.766 122.42 189.262 122.42 188.698C122.42 188.146 122.294 187.654 122.042 187.222C121.802 186.79 121.472 186.454 121.052 186.214C120.644 185.962 120.17 185.836 119.63 185.836C119.09 185.836 118.61 185.962 118.19 186.214C117.77 186.454 117.44 186.79 117.2 187.222C116.96 187.654 116.84 188.146 116.84 188.698C116.84 189.262 116.96 189.766 117.2 190.21C117.44 190.642 117.77 190.984 118.19 191.236C118.61 191.488 119.09 191.614 119.63 191.614ZM130.419 193.18C129.771 193.18 129.183 193.048 128.655 192.784C128.139 192.508 127.725 192.13 127.413 191.65C127.101 191.17 126.927 190.624 126.891 190.012V187.438C126.927 186.814 127.101 186.268 127.413 185.8C127.737 185.32 128.157 184.948 128.673 184.684C129.201 184.408 129.783 184.27 130.419 184.27C131.199 184.27 131.901 184.468 132.525 184.864C133.161 185.26 133.659 185.794 134.019 186.466C134.379 187.138 134.559 187.894 134.559 188.734C134.559 189.574 134.379 190.33 134.019 191.002C133.659 191.674 133.161 192.208 132.525 192.604C131.901 192.988 131.199 193.18 130.419 193.18ZM125.919 196.582V184.45H127.539V186.7L127.233 188.77L127.539 190.858V196.582H125.919ZM130.149 191.65C130.689 191.65 131.163 191.524 131.571 191.272C131.979 191.02 132.303 190.678 132.543 190.246C132.783 189.802 132.903 189.292 132.903 188.716C132.903 188.152 132.783 187.648 132.543 187.204C132.303 186.76 131.979 186.418 131.571 186.178C131.163 185.926 130.695 185.8 130.167 185.8C129.627 185.8 129.153 185.926 128.745 186.178C128.337 186.418 128.019 186.76 127.791 187.204C127.563 187.648 127.449 188.158 127.449 188.734C127.449 189.298 127.557 189.802 127.773 190.246C128.001 190.678 128.319 191.02 128.727 191.272C129.147 191.524 129.621 191.65 130.149 191.65ZM136.396 193V184.45H138.016V193H136.396ZM142.174 193V187.834C142.174 187.198 141.976 186.7 141.58 186.34C141.196 185.968 140.71 185.782 140.122 185.782C139.726 185.782 139.372 185.866 139.06 186.034C138.748 186.202 138.496 186.436 138.304 186.736C138.112 187.036 138.016 187.396 138.016 187.816L137.35 187.492C137.35 186.844 137.488 186.28 137.764 185.8C138.052 185.32 138.442 184.948 138.934 184.684C139.426 184.408 139.978 184.27 140.59 184.27C141.19 184.27 141.73 184.402 142.21 184.666C142.702 184.93 143.086 185.302 143.362 185.782C143.65 186.262 143.794 186.832 143.794 187.492V193H142.174ZM147.952 193V187.834C147.952 187.198 147.754 186.7 147.358 186.34C146.974 185.968 146.494 185.782 145.918 185.782C145.522 185.782 145.162 185.866 144.838 186.034C144.526 186.202 144.274 186.436 144.082 186.736C143.89 187.036 143.794 187.396 143.794 187.816L142.876 187.492C142.912 186.832 143.086 186.268 143.398 185.8C143.722 185.32 144.136 184.948 144.64 184.684C145.144 184.408 145.696 184.27 146.296 184.27C146.92 184.27 147.478 184.402 147.97 184.666C148.462 184.93 148.852 185.302 149.14 185.782C149.44 186.262 149.59 186.838 149.59 187.51V193H147.952ZM155.754 193.18C154.902 193.18 154.134 192.988 153.45 192.604C152.766 192.208 152.226 191.674 151.83 191.002C151.434 190.33 151.236 189.568 151.236 188.716C151.236 187.876 151.428 187.12 151.812 186.448C152.208 185.776 152.736 185.248 153.396 184.864C154.068 184.468 154.818 184.27 155.646 184.27C156.438 184.27 157.134 184.45 157.734 184.81C158.346 185.17 158.82 185.668 159.156 186.304C159.504 186.94 159.678 187.66 159.678 188.464C159.678 188.584 159.672 188.716 159.66 188.86C159.648 188.992 159.624 189.148 159.588 189.328H152.37V187.978H158.724L158.13 188.5C158.13 187.924 158.028 187.438 157.824 187.042C157.62 186.634 157.332 186.322 156.96 186.106C156.588 185.878 156.138 185.764 155.61 185.764C155.058 185.764 154.572 185.884 154.152 186.124C153.732 186.364 153.408 186.7 153.18 187.132C152.952 187.564 152.838 188.074 152.838 188.662C152.838 189.262 152.958 189.79 153.198 190.246C153.438 190.69 153.78 191.038 154.224 191.29C154.668 191.53 155.178 191.65 155.754 191.65C156.234 191.65 156.672 191.566 157.068 191.398C157.476 191.23 157.824 190.978 158.112 190.642L159.156 191.704C158.748 192.184 158.244 192.55 157.644 192.802C157.056 193.054 156.426 193.18 155.754 193.18ZM167.493 193V188.014C167.493 187.366 167.289 186.832 166.881 186.412C166.473 185.992 165.945 185.782 165.297 185.782C164.865 185.782 164.481 185.878 164.145 186.07C163.809 186.262 163.545 186.526 163.353 186.862C163.161 187.198 163.065 187.582 163.065 188.014L162.399 187.636C162.399 186.988 162.543 186.412 162.831 185.908C163.119 185.404 163.521 185.008 164.037 184.72C164.553 184.42 165.135 184.27 165.783 184.27C166.431 184.27 167.001 184.432 167.493 184.756C167.997 185.08 168.393 185.506 168.681 186.034C168.969 186.55 169.113 187.102 169.113 187.69V193H167.493ZM161.445 193V184.45H163.065V193H161.445ZM172.515 193V180.868H174.135V193H172.515ZM170.409 185.926V184.45H176.241V185.926H170.409ZM185.478 193.18C184.638 193.18 183.876 192.982 183.192 192.586C182.52 192.19 181.986 191.656 181.59 190.984C181.206 190.3 181.014 189.544 181.014 188.716C181.014 187.876 181.206 187.12 181.59 186.448C181.986 185.776 182.52 185.248 183.192 184.864C183.876 184.468 184.638 184.27 185.478 184.27C186.138 184.27 186.75 184.396 187.314 184.648C187.878 184.888 188.364 185.242 188.772 185.71L187.692 186.79C187.428 186.478 187.104 186.244 186.72 186.088C186.348 185.92 185.934 185.836 185.478 185.836C184.938 185.836 184.458 185.962 184.038 186.214C183.618 186.454 183.288 186.79 183.048 187.222C182.808 187.654 182.688 188.152 182.688 188.716C182.688 189.28 182.808 189.778 183.048 190.21C183.288 190.642 183.618 190.984 184.038 191.236C184.458 191.488 184.938 191.614 185.478 191.614C185.934 191.614 186.348 191.536 186.72 191.38C187.104 191.212 187.434 190.972 187.71 190.66L188.772 191.74C188.376 192.196 187.89 192.55 187.314 192.802C186.75 193.054 186.138 193.18 185.478 193.18ZM194.109 193.18C193.269 193.18 192.513 192.982 191.841 192.586C191.169 192.19 190.635 191.656 190.239 190.984C189.843 190.3 189.645 189.538 189.645 188.698C189.645 187.87 189.843 187.126 190.239 186.466C190.635 185.794 191.169 185.26 191.841 184.864C192.513 184.468 193.269 184.27 194.109 184.27C194.937 184.27 195.687 184.468 196.359 184.864C197.043 185.248 197.583 185.776 197.979 186.448C198.375 187.12 198.573 187.87 198.573 188.698C198.573 189.538 198.375 190.3 197.979 190.984C197.583 191.656 197.043 192.19 196.359 192.586C195.687 192.982 194.937 193.18 194.109 193.18ZM194.109 191.614C194.649 191.614 195.129 191.488 195.549 191.236C195.969 190.984 196.299 190.642 196.539 190.21C196.779 189.766 196.899 189.262 196.899 188.698C196.899 188.146 196.773 187.654 196.521 187.222C196.281 186.79 195.951 186.454 195.531 186.214C195.123 185.962 194.649 185.836 194.109 185.836C193.569 185.836 193.089 185.962 192.669 186.214C192.249 186.454 191.919 186.79 191.679 187.222C191.439 187.654 191.319 188.146 191.319 188.698C191.319 189.262 191.439 189.766 191.679 190.21C191.919 190.642 192.249 190.984 192.669 191.236C193.089 191.488 193.569 191.614 194.109 191.614ZM203.836 193.18C203.14 193.18 202.51 193.024 201.946 192.712C201.394 192.388 200.962 191.944 200.65 191.38C200.338 190.816 200.182 190.162 200.182 189.418V184.45H201.802V189.346C201.802 189.814 201.88 190.222 202.036 190.57C202.204 190.906 202.444 191.164 202.756 191.344C203.068 191.524 203.434 191.614 203.854 191.614C204.49 191.614 204.988 191.416 205.348 191.02C205.708 190.612 205.888 190.054 205.888 189.346V184.45H207.508V189.418C207.508 190.162 207.352 190.816 207.04 191.38C206.728 191.944 206.296 192.388 205.744 192.712C205.204 193.024 204.568 193.18 203.836 193.18ZM209.679 193V184.45H211.299V193H209.679ZM211.299 188.122L210.687 187.852C210.687 186.76 210.939 185.89 211.443 185.242C211.947 184.594 212.673 184.27 213.621 184.27C214.053 184.27 214.443 184.348 214.791 184.504C215.139 184.648 215.463 184.894 215.763 185.242L214.701 186.34C214.521 186.148 214.323 186.01 214.107 185.926C213.891 185.842 213.639 185.8 213.351 185.8C212.751 185.8 212.259 185.992 211.875 186.376C211.491 186.76 211.299 187.342 211.299 188.122ZM219.428 193.18C218.948 193.18 218.492 193.12 218.06 193C217.64 192.868 217.25 192.688 216.89 192.46C216.53 192.22 216.218 191.938 215.954 191.614L216.998 190.57C217.31 190.954 217.67 191.242 218.078 191.434C218.486 191.614 218.942 191.704 219.446 191.704C219.95 191.704 220.34 191.62 220.616 191.452C220.892 191.272 221.03 191.026 221.03 190.714C221.03 190.402 220.916 190.162 220.688 189.994C220.472 189.814 220.19 189.67 219.842 189.562C219.494 189.442 219.122 189.328 218.726 189.22C218.342 189.1 217.976 188.95 217.628 188.77C217.28 188.59 216.992 188.344 216.764 188.032C216.548 187.72 216.44 187.306 216.44 186.79C216.44 186.274 216.566 185.83 216.818 185.458C217.07 185.074 217.418 184.78 217.862 184.576C218.318 184.372 218.864 184.27 219.5 184.27C220.172 184.27 220.766 184.39 221.282 184.63C221.81 184.858 222.242 185.206 222.578 185.674L221.534 186.718C221.294 186.406 220.994 186.166 220.634 185.998C220.286 185.83 219.89 185.746 219.446 185.746C218.978 185.746 218.618 185.83 218.366 185.998C218.126 186.154 218.006 186.376 218.006 186.664C218.006 186.952 218.114 187.174 218.33 187.33C218.546 187.486 218.828 187.618 219.176 187.726C219.536 187.834 219.908 187.948 220.292 188.068C220.676 188.176 221.042 188.326 221.39 188.518C221.738 188.71 222.02 188.968 222.236 189.292C222.464 189.616 222.578 190.042 222.578 190.57C222.578 191.374 222.29 192.01 221.714 192.478C221.15 192.946 220.388 193.18 219.428 193.18ZM228.352 193.18C227.5 193.18 226.732 192.988 226.048 192.604C225.364 192.208 224.824 191.674 224.428 191.002C224.032 190.33 223.834 189.568 223.834 188.716C223.834 187.876 224.026 187.12 224.41 186.448C224.806 185.776 225.334 185.248 225.994 184.864C226.666 184.468 227.416 184.27 228.244 184.27C229.036 184.27 229.732 184.45 230.332 184.81C230.944 185.17 231.418 185.668 231.754 186.304C232.102 186.94 232.276 187.66 232.276 188.464C232.276 188.584 232.27 188.716 232.258 188.86C232.246 188.992 232.222 189.148 232.186 189.328H224.968V187.978H231.322L230.728 188.5C230.728 187.924 230.626 187.438 230.422 187.042C230.218 186.634 229.93 186.322 229.558 186.106C229.186 185.878 228.736 185.764 228.208 185.764C227.656 185.764 227.17 185.884 226.75 186.124C226.33 186.364 226.006 186.7 225.778 187.132C225.55 187.564 225.436 188.074 225.436 188.662C225.436 189.262 225.556 189.79 225.796 190.246C226.036 190.69 226.378 191.038 226.822 191.29C227.266 191.53 227.776 191.65 228.352 191.65C228.832 191.65 229.27 191.566 229.666 191.398C230.074 191.23 230.422 190.978 230.71 190.642L231.754 191.704C231.346 192.184 230.842 192.55 230.242 192.802C229.654 193.054 229.024 193.18 228.352 193.18ZM235.464 193.18C235.128 193.18 234.846 193.066 234.618 192.838C234.402 192.598 234.294 192.316 234.294 191.992C234.294 191.656 234.402 191.38 234.618 191.164C234.846 190.936 235.128 190.822 235.464 190.822C235.8 190.822 236.076 190.936 236.292 191.164C236.52 191.38 236.634 191.656 236.634 191.992C236.634 192.316 236.52 192.598 236.292 192.838C236.076 193.066 235.8 193.18 235.464 193.18Z" fill="black" fill-opacity="0.5"/>
<defs>
<clipPath id="clip0_6247_24271">
<rect width="16" height="16" fill="white" transform="translate(128.5 40)"/>
</clipPath>
</defs>
</svg>
