<svg width="32" height="32" viewBox="0 0 32 32" fill="none" xmlns="http://www.w3.org/2000/svg">
<path d="M16 3.09375C14.75 3.09375 13 3.3125 12 3.75V4.875H8V8.3125H24V4.875H20V3.75C19 3.3125 17.25 3.09375 16 3.09375ZM13 5.625C13.55 5.625 14 6.0725 14 6.625C14 7.175 13.55 7.625 13 7.625C12.45 7.625 12 7.175 12 6.625C12 6.0725 12.45 5.625 13 5.625ZM19 5.625C19.55 5.625 20 6.0725 20 6.625C20 7.175 19.55 7.625 19 7.625C18.45 7.625 18 7.175 18 6.625C18 6.0725 18.45 5.625 19 5.625ZM7 9.4375V10.5625H6V11.6875H26V10.5625H25V9.4375H7ZM5 12.6875V13.8125H27V12.6875H5ZM6 14.9375V19.4375H13.0437C13.55 16.1875 18.45 16.1875 18.9562 19.4375H26V14.9375H6ZM6 20.5625V22.4375H12V23.5625H6V31H13V20.5625H6ZM19 20.5625V31H26V23.5625H20V22.4375H26V20.5625H19Z" fill="black"/>
</svg>
