<svg width="34" height="35" viewBox="0 0 34 35" fill="none" xmlns="http://www.w3.org/2000/svg">
<rect y="0.453125" width="34" height="34" rx="17" fill="white"/>
<g clip-path="url(#clip0_6247_21354)">
<path d="M12.6327 24.4531V14.3327H9.20239V24.4531H12.6327ZM10.918 12.95C12.1142 12.95 12.8588 12.1729 12.8588 11.2017C12.8365 10.2087 12.1142 9.45312 10.9407 9.45312C9.76731 9.45312 9 10.2087 9 11.2017C9 12.173 9.7444 12.95 10.8956 12.95H10.9179H10.918ZM14.5313 24.4531H17.9617V18.8014C17.9617 18.4989 17.9839 18.1967 18.0745 17.9805C18.3225 17.3762 18.8869 16.7502 19.8345 16.7502C21.0758 16.7502 21.5724 17.6783 21.5724 19.0388V24.4531H25.0025V18.6501C25.0025 15.5415 23.3101 14.0951 21.0532 14.0951C19.2027 14.0951 18.3902 15.1094 17.9388 15.8002H17.9617V14.3324H14.5314C14.5764 15.2821 14.5314 24.4529 14.5314 24.4529L14.5313 24.4531Z" fill="black"/>
</g>
<defs>
<clipPath id="clip0_6247_21354">
<rect width="16" height="15" fill="white" transform="translate(9 9.45312)"/>
</clipPath>
</defs>
</svg>
