<svg width="180" height="24" viewBox="0 0 180 24" fill="none" xmlns="http://www.w3.org/2000/svg">
<path d="M7.248 21.288C6.32 21.288 5.456 21.128 4.656 20.808C3.872 20.488 3.184 20.032 2.592 19.44C2 18.848 1.552 18.144 1.248 17.328L2.712 16.608C3.08 17.536 3.68 18.272 4.512 18.816C5.36 19.344 6.272 19.608 7.248 19.608C8.032 19.608 8.728 19.424 9.336 19.056C9.96 18.688 10.448 18.192 10.8 17.568C11.152 16.928 11.328 16.216 11.328 15.432C11.328 14.616 11.144 13.896 10.776 13.272C10.424 12.648 9.944 12.16 9.336 11.808C8.728 11.44 8.04 11.256 7.272 11.256C6.488 11.256 5.76 11.44 5.088 11.808C4.432 12.16 3.952 12.592 3.648 13.104L2.136 12.816L3.48 3.12H12.528V4.8H4.176L4.92 4.152L3.84 11.784L3.096 11.448C3.656 10.76 4.312 10.272 5.064 9.984C5.816 9.68 6.584 9.528 7.368 9.528C8.52 9.528 9.536 9.8 10.416 10.344C11.296 10.872 11.984 11.584 12.48 12.48C12.992 13.36 13.248 14.344 13.248 15.432C13.248 16.536 12.984 17.536 12.456 18.432C11.944 19.312 11.232 20.008 10.32 20.52C9.424 21.032 8.4 21.288 7.248 21.288ZM21.9891 21.288C20.8691 21.288 19.8771 21.04 19.0131 20.544C18.1491 20.032 17.4691 19.336 16.9731 18.456C16.4771 17.56 16.2291 16.536 16.2291 15.384C16.2291 14.744 16.3011 14.112 16.4451 13.488C16.6051 12.864 16.8371 12.248 17.1411 11.64C17.4611 11.032 17.8451 10.424 18.2931 9.816L23.3331 3.12H25.6371L19.4211 11.256L19.0611 11.472C19.3011 11.072 19.5811 10.768 19.9011 10.56C20.2211 10.336 20.5731 10.176 20.9571 10.08C21.3571 9.984 21.7811 9.936 22.2291 9.936C23.2691 9.936 24.2051 10.184 25.0371 10.68C25.8691 11.16 26.5251 11.824 27.0051 12.672C27.5011 13.52 27.7491 14.504 27.7491 15.624C27.7491 16.696 27.4931 17.664 26.9811 18.528C26.4851 19.376 25.8051 20.048 24.9411 20.544C24.0771 21.04 23.0931 21.288 21.9891 21.288ZM21.9891 19.608C22.7251 19.608 23.3811 19.44 23.9571 19.104C24.5331 18.752 24.9891 18.272 25.3251 17.664C25.6611 17.056 25.8291 16.376 25.8291 15.624C25.8291 14.856 25.6611 14.176 25.3251 13.584C25.0051 12.992 24.5571 12.528 23.9811 12.192C23.4051 11.84 22.7411 11.664 21.9891 11.664C21.2531 11.664 20.5891 11.84 19.9971 12.192C19.4211 12.528 18.9651 12.992 18.6291 13.584C18.3091 14.176 18.1491 14.856 18.1491 15.624C18.1491 16.376 18.3171 17.056 18.6531 17.664C18.9891 18.272 19.4451 18.752 20.0211 19.104C20.5971 19.44 21.2531 19.608 21.9891 19.608ZM35.4934 21V15.888H30.3814V14.088H35.4934V9H37.2934V14.088H42.3814V15.888H37.2934V21H35.4934Z" fill="#57736A"/>
<path d="M72 0L74.6942 8.2918H83.4127L76.3593 13.4164L79.0534 21.7082L72 16.5836L64.9466 21.7082L67.6407 13.4164L60.5873 8.2918H69.3058L72 0Z" fill="#FCBD06"/>
<path d="M136 0L138.694 8.2918H147.413L140.359 13.4164L143.053 21.7082L136 16.5836L128.947 21.7082L131.641 13.4164L124.587 8.2918H133.306L136 0Z" fill="#FCBD06"/>
<path d="M104 0L106.694 8.2918H115.413L108.359 13.4164L111.053 21.7082L104 16.5836L96.9466 21.7082L99.6407 13.4164L92.5873 8.2918H101.306L104 0Z" fill="#FCBD06"/>
<path d="M168 0L170.694 8.2918H179.413L172.359 13.4164L175.053 21.7082L168 16.5836L160.947 21.7082L163.641 13.4164L156.587 8.2918H165.306L168 0Z" fill="#FCBD06"/>
</svg>
