<svg width="71" height="23" viewBox="0 0 71 23" fill="none" xmlns="http://www.w3.org/2000/svg">
<g clip-path="url(#clip0_4361_8501)">
<path d="M8.6785 0H9.30512C11.4806 0.0472924 13.6206 0.922202 15.1576 2.47103C14.5901 3.05036 14.0107 3.60605 13.455 4.18538C12.5919 3.40505 11.5515 2.80208 10.4165 2.58926C8.73762 2.23457 6.92868 2.55379 5.52173 3.51146C3.98473 4.51643 2.9443 6.21895 2.71966 8.03971C2.47137 9.83682 2.97977 11.7285 4.15025 13.1236C5.27345 14.4833 6.9878 15.3346 8.76126 15.3937C10.4165 15.4883 12.1427 14.9799 13.3486 13.8212C14.2945 13.0054 14.7319 11.764 14.8738 10.558C12.9112 10.558 10.9485 10.5699 8.9859 10.558V8.12247H17.2502C17.6759 10.7354 17.0611 13.6793 15.0748 15.5474C13.7506 16.8716 11.918 17.6519 10.05 17.8056C8.24105 17.9829 6.373 17.6401 4.76505 16.7652C2.83789 15.7365 1.30089 13.9986 0.544207 11.9532C-0.165179 10.0733 -0.177002 7.94512 0.485091 6.05343C1.08807 4.32726 2.24673 2.80208 3.73644 1.738C5.16704 0.68574 6.90504 0.106408 8.6785 0Z" fill="#3780FF"/>
<path d="M56.0879 0.617188H58.618V17.5006C57.7786 17.5006 56.9273 17.5124 56.0879 17.4888C56.0997 11.8728 56.0879 6.24498 56.0879 0.617188Z" fill="#38B137"/>
<path d="M22.8769 6.47207C24.4375 6.17649 26.1282 6.50754 27.4169 7.44156C28.5874 8.26918 29.4032 9.56972 29.6515 10.9885C29.9707 12.6319 29.5687 14.429 28.5047 15.7296C27.3578 17.1838 25.4779 17.9641 23.6454 17.8459C21.9665 17.7513 20.3349 16.9119 19.3417 15.5404C18.2186 14.027 17.9466 11.9462 18.5614 10.1727C19.1762 8.26918 20.9142 6.81494 22.8769 6.47207ZM23.2315 8.71846C22.5931 8.88398 22.0019 9.2505 21.5763 9.77071C20.4295 11.1422 20.5004 13.3768 21.7655 14.6537C22.4867 15.3867 23.5744 15.7296 24.5794 15.5286C25.5134 15.363 26.3292 14.7364 26.7785 13.9088C27.5588 12.5018 27.3342 10.5629 26.14 9.46331C25.3715 8.75393 24.2483 8.45835 23.2315 8.71846Z" fill="#FA3913"/>
<path d="M35.4103 6.47294C37.1955 6.13007 39.1463 6.62664 40.4824 7.87989C42.6578 9.8307 42.8943 13.484 41.038 15.7304C39.9149 17.1492 38.0941 17.9295 36.297 17.8468C34.5826 17.7995 32.8919 16.9482 31.8751 15.5413C30.7283 13.9924 30.48 11.8643 31.1303 10.0553C31.7806 8.21093 33.4831 6.80398 35.4103 6.47294ZM35.7649 8.71933C35.1265 8.88485 34.5353 9.25137 34.1097 9.75976C32.9747 11.1076 33.022 13.3067 34.2398 14.5954C34.961 15.3639 36.0842 15.7423 37.1246 15.5294C38.0468 15.3521 38.8744 14.7373 39.3237 13.9097C40.0922 12.4909 39.8676 10.5519 38.6616 9.45236C37.8931 8.74297 36.7699 8.45922 35.7649 8.71933Z" fill="#FCBD06"/>
<path d="M46.0388 7.15123C47.3984 6.29997 49.2074 6.06351 50.6734 6.79654C51.1345 6.99753 51.5129 7.3404 51.8794 7.68327C51.8912 7.36405 51.8794 7.033 51.8912 6.70195C52.6834 6.71378 53.4755 6.70195 54.2795 6.71378V17.1418C54.2676 18.7142 53.8657 20.3813 52.7306 21.5281C51.4892 22.7932 49.5857 23.1834 47.8713 22.9233C46.0388 22.6513 44.4426 21.3153 43.7333 19.6246C44.4426 19.2817 45.1875 19.0098 45.9205 18.6906C46.3343 19.6601 47.1738 20.4877 48.226 20.6769C49.2783 20.866 50.4961 20.6059 51.1818 19.731C51.9148 18.8325 51.9148 17.6029 51.8794 16.5033C51.3355 17.0353 50.7089 17.5083 49.9522 17.6856C48.3088 18.1467 46.4999 17.5792 45.2348 16.4678C43.9579 15.3565 43.2012 13.6421 43.2722 11.9396C43.3076 10.0124 44.3954 8.1562 46.0388 7.15123ZM48.4862 8.66459C47.7649 8.78282 47.091 9.18481 46.6299 9.74049C45.5186 11.0647 45.5186 13.181 46.6417 14.4816C47.2802 15.2501 48.3088 15.6757 49.3019 15.5693C50.236 15.4747 51.0991 14.8835 51.5602 14.0677C52.3405 12.6844 52.2104 10.8046 51.1582 9.59861C50.5079 8.85376 49.4675 8.48724 48.4862 8.66459Z" fill="#3780FF"/>
<path d="M61.6579 7.76159C63.0766 6.4374 65.2639 5.98813 67.0847 6.68569C68.8108 7.33596 69.9104 8.97937 70.4661 10.6701C67.9005 11.7342 65.3467 12.7864 62.7811 13.8505C63.1357 14.5244 63.6796 15.1392 64.4126 15.3875C65.4413 15.754 66.6709 15.624 67.5339 14.9382C67.8768 14.6781 68.1487 14.3352 68.4088 14.0042C69.0591 14.4416 69.7094 14.8673 70.3597 15.3047C69.4375 16.688 67.8886 17.6575 66.2216 17.8112C64.3772 18.0359 62.4145 17.3265 61.2204 15.8841C59.2578 13.614 59.4469 9.80699 61.6579 7.76159ZM62.9229 9.94886C62.5209 10.5282 62.3554 11.2376 62.3672 11.9351C64.0816 11.2258 65.7959 10.5164 67.5103 9.79516C67.2265 9.13307 66.5408 8.73109 65.8432 8.62468C64.72 8.42368 63.5496 9.02666 62.9229 9.94886Z" fill="#FA3913"/>
</g>
<defs>
<clipPath id="clip0_4361_8501">
<rect width="70.4657" height="23" fill="white"/>
</clipPath>
</defs>
</svg>
