<svg width="34" height="35" viewBox="0 0 34 35" fill="none" xmlns="http://www.w3.org/2000/svg">
<rect y="0.453125" width="34" height="34" rx="17" fill="white"/>
<g clip-path="url(#clip0_6247_21358)">
<path d="M17.0033 13.4104C14.7319 13.4104 12.8997 15.214 12.8997 17.4499C12.8997 19.6858 14.7319 21.4893 17.0033 21.4893C19.2747 21.4893 21.1069 19.6858 21.1069 17.4499C21.1069 15.214 19.2747 13.4104 17.0033 13.4104ZM17.0033 20.0761C15.5355 20.0761 14.3355 18.8983 14.3355 17.4499C14.3355 16.0015 15.5319 14.8237 17.0033 14.8237C18.4747 14.8237 19.6712 16.0015 19.6712 17.4499C19.6712 18.8983 18.4712 20.0761 17.0033 20.0761ZM22.2319 13.2452C22.2319 13.769 21.8033 14.1874 21.2747 14.1874C20.7426 14.1874 20.3176 13.7655 20.3176 13.2452C20.3176 12.7249 20.7462 12.303 21.2747 12.303C21.8033 12.303 22.2319 12.7249 22.2319 13.2452ZM24.9497 14.2015C24.889 12.9394 24.5962 11.8214 23.6569 10.9003C22.7212 9.9792 21.5855 9.69092 20.3033 9.62764C18.9819 9.55381 15.0212 9.55381 13.6997 9.62764C12.4212 9.6874 11.2855 9.97568 10.3462 10.8968C9.40689 11.8179 9.11761 12.9358 9.05332 14.1979C8.97832 15.4987 8.97832 19.3976 9.05332 20.6983C9.11403 21.9604 9.40689 23.0784 10.3462 23.9995C11.2855 24.9206 12.4176 25.2089 13.6997 25.2722C15.0212 25.346 18.9819 25.346 20.3033 25.2722C21.5855 25.2124 22.7212 24.9241 23.6569 23.9995C24.5926 23.0784 24.8855 21.9604 24.9497 20.6983C25.0247 19.3976 25.0247 15.5022 24.9497 14.2015ZM23.2426 22.094C22.964 22.7831 22.4247 23.314 21.7212 23.5917C20.6676 24.003 18.1676 23.9081 17.0033 23.9081C15.839 23.9081 13.3355 23.9995 12.2855 23.5917C11.5855 23.3175 11.0462 22.7866 10.764 22.094C10.3462 21.0569 10.4426 18.596 10.4426 17.4499C10.4426 16.3038 10.3497 13.8394 10.764 12.8058C11.0426 12.1167 11.5819 11.5858 12.2855 11.3081C13.339 10.8968 15.839 10.9917 17.0033 10.9917C18.1676 10.9917 20.6712 10.9003 21.7212 11.3081C22.4212 11.5823 22.9605 12.1132 23.2426 12.8058C23.6605 13.8429 23.564 16.3038 23.564 17.4499C23.564 18.596 23.6605 21.0604 23.2426 22.094Z" fill="black"/>
</g>
<defs>
<clipPath id="clip0_6247_21358">
<rect width="16" height="18" fill="white" transform="translate(9 8.45312)"/>
</clipPath>
</defs>
</svg>
