<svg width="34" height="35" viewBox="0 0 34 35" fill="none" xmlns="http://www.w3.org/2000/svg">
<rect y="0.453125" width="34" height="34" rx="17" fill="white"/>
<g clip-path="url(#clip0_6247_21350)">
<path d="M26 12.1575C25.326 12.442 24.611 12.6287 23.879 12.7115C24.6415 12.2761 25.227 11.5866 25.5027 10.7651C24.7778 11.1749 23.9847 11.4636 23.1577 11.6188C22.484 10.9351 21.5243 10.5078 20.4621 10.5078C18.4226 10.5078 16.7691 12.083 16.7691 14.0259C16.7691 14.3017 16.8018 14.5702 16.8647 14.8277C13.7956 14.6809 11.0745 13.2803 9.25304 11.1518C8.93523 11.6714 8.75312 12.2758 8.75312 12.9205C8.75312 14.1411 9.40513 15.2179 10.396 15.8488C9.80953 15.8313 9.23599 15.6804 8.72323 15.4087C8.72302 15.4235 8.72302 15.4382 8.72302 15.453C8.72302 17.1576 9.99596 18.5796 11.6853 18.9028C11.1415 19.0437 10.5711 19.0643 10.0176 18.9631C10.4875 20.3608 11.8514 21.3779 13.4673 21.4064C12.2034 22.3499 10.6111 22.9124 8.88095 22.9124C8.58282 22.9124 8.28891 22.8957 8 22.8632C9.63427 23.8615 11.5754 24.4439 13.6609 24.4439C20.4535 24.4439 24.1679 19.083 24.1679 14.4339C24.1679 14.2813 24.1644 14.1296 24.1573 13.9787C24.8802 13.4808 25.5042 12.8641 26 12.1575Z" fill="black"/>
</g>
<defs>
<clipPath id="clip0_6247_21350">
<rect width="18" height="14" fill="white" transform="translate(8 10.4531)"/>
</clipPath>
</defs>
</svg>
