<svg width="53" height="52" viewBox="0 0 53 52" fill="none" xmlns="http://www.w3.org/2000/svg">
<path d="M24.3332 12.7443V41.6867C24.3325 42.5847 24.015 43.4537 23.4365 44.1405C22.858 44.8274 22.0556 45.288 21.1708 45.4413C20.286 45.5946 19.3754 45.4307 18.5996 44.9785C17.8237 44.5263 17.2324 43.8148 16.9297 42.9693L12.2778 29.6443M12.2778 29.6443C10.4388 28.8624 8.92642 27.4713 7.99658 25.7024C7.06674 23.9336 6.77659 21.8978 7.17521 19.9396C7.57383 17.9814 8.63675 16.2211 10.1841 14.9565C11.7314 13.6919 13.6682 13.0008 15.6665 13H19.6358C28.5192 13 36.1567 10.3263 39.4998 6.5V36.8333C36.1567 33.007 28.5213 30.3333 19.6358 30.3333H15.6665C14.5023 30.3343 13.3498 30.0986 12.2778 29.6443ZM39.4998 28.1667C41.2238 28.1667 42.8771 27.4818 44.096 26.2629C45.315 25.0439 45.9998 23.3906 45.9998 21.6667C45.9998 19.9428 45.315 18.2895 44.096 17.0705C42.8771 15.8515 41.2238 15.1667 39.4998 15.1667" stroke="black" stroke-width="2" stroke-linecap="round" stroke-linejoin="round"/>
</svg>
