<svg width="24" height="24" viewBox="0 0 24 24" fill="none" xmlns="http://www.w3.org/2000/svg">
<path d="M5.28613 14.1644L10.5162 14.214C10.5788 14.2152 10.6401 14.2322 10.6943 14.2635C10.7485 14.2948 10.7939 14.3394 10.8263 14.393L13.4843 18.8976C13.5251 18.9657 13.5871 19.0187 13.6607 19.0485C13.7344 19.0783 13.8157 19.0833 13.8925 19.0628C13.9692 19.0422 14.0372 18.9972 14.0861 18.9345C14.135 18.8719 14.1621 18.795 14.1634 18.7156L14.213 13.4855C14.2142 13.4229 14.2313 13.3616 14.2626 13.3074C14.2939 13.2532 14.3384 13.2078 14.392 13.1755L18.8966 10.5175C18.9648 10.4766 19.0178 10.4147 19.0476 10.341C19.0774 10.2674 19.0824 10.186 19.0618 10.1092C19.0412 10.0325 18.9962 9.96453 18.9336 9.91565C18.8709 9.86676 18.7941 9.83961 18.7146 9.8383L13.4845 9.7887C13.4219 9.7875 13.3607 9.77045 13.3065 9.73915C13.2522 9.70785 13.2069 9.66332 13.1745 9.60971L10.5165 5.1051C10.4757 5.03695 10.4137 4.98397 10.3401 4.95417C10.2664 4.92436 10.185 4.91937 10.1083 4.93993C10.0315 4.9605 9.96357 5.0055 9.91469 5.06814C9.8658 5.13078 9.83865 5.20764 9.83734 5.28708L9.78774 10.5172C9.78654 10.5798 9.7695 10.6411 9.7382 10.6953C9.7069 10.7495 9.66236 10.7949 9.60876 10.8272L5.10415 13.4852C5.036 13.5261 4.98301 13.588 4.95321 13.6617C4.92341 13.7353 4.91841 13.8167 4.93897 13.8934C4.95954 13.9702 5.00455 14.0382 5.06719 14.087C5.12982 14.1359 5.20668 14.1631 5.28613 14.1644Z" fill="#666666" stroke="#666666" stroke-width="0.125" stroke-linecap="round" stroke-linejoin="round"/>
</svg>
