<svg width="36" height="36" viewBox="0 0 36 36" fill="none" xmlns="http://www.w3.org/2000/svg">
<path d="M18.0014 27C18.6514 27 19.1889 26.7875 19.6139 26.3625C20.0389 25.9375 20.2514 25.4 20.2514 24.75C20.2514 24.1 20.0389 23.5625 19.6139 23.1375C19.1889 22.7125 18.6514 22.5 18.0014 22.5C17.3514 22.5 16.8139 22.7125 16.3889 23.1375C15.9639 23.5625 15.7514 24.1 15.7514 24.75C15.7514 25.4 15.9639 25.9375 16.3889 26.3625C16.8139 26.7875 17.3514 27 18.0014 27ZM18.0014 20.25C18.6514 20.25 19.1889 20.0375 19.6139 19.6125C20.0389 19.1875 20.2514 18.65 20.2514 18C20.2514 17.35 20.0389 16.8125 19.6139 16.3875C19.1889 15.9625 18.6514 15.75 18.0014 15.75C17.3514 15.75 16.8139 15.9625 16.3889 16.3875C15.9639 16.8125 15.7514 17.35 15.7514 18C15.7514 18.65 15.9639 19.1875 16.3889 19.6125C16.8139 20.0375 17.3514 20.25 18.0014 20.25ZM18.0014 13.5C18.6514 13.5 19.1889 13.2875 19.6139 12.8625C20.0389 12.4375 20.2514 11.9 20.2514 11.25C20.2514 10.6 20.0389 10.0625 19.6139 9.6375C19.1889 9.2125 18.6514 9 18.0014 9C17.3514 9 16.8139 9.2125 16.3889 9.6375C15.9639 10.0625 15.7514 10.6 15.7514 11.25C15.7514 11.9 15.9639 12.4375 16.3889 12.8625C16.8139 13.2875 17.3514 13.5 18.0014 13.5ZM10.5014 22.5V20.775C9.47638 20.5 8.57638 19.994 7.80138 19.257C7.02638 18.52 6.50138 17.6385 6.22638 16.6125C6.17638 16.1875 6.28888 15.8125 6.56388 15.4875C6.83888 15.1625 7.18888 15 7.61388 15H10.5014V13.275C9.47638 13 8.57638 12.494 7.80138 11.757C7.02638 11.02 6.50138 10.1385 6.22638 9.1125C6.17638 8.6875 6.28888 8.3125 6.56388 7.9875C6.83888 7.6625 7.18888 7.5 7.61388 7.5H10.5014C10.5014 6.675 10.7954 5.969 11.3834 5.382C11.9714 4.795 12.6774 4.501 13.5014 4.5H22.5014C23.3264 4.5 24.0329 4.794 24.6209 5.382C25.2089 5.97 25.5024 6.676 25.5014 7.5H28.3889C28.8139 7.5 29.1639 7.6625 29.4389 7.9875C29.7139 8.3125 29.8264 8.6875 29.7764 9.1125C29.5014 10.1375 28.9764 11.019 28.2014 11.757C27.4264 12.495 26.5264 13.001 25.5014 13.275V15H28.3889C28.8139 15 29.1639 15.1625 29.4389 15.4875C29.7139 15.8125 29.8264 16.1875 29.7764 16.6125C29.5014 17.6375 28.9764 18.519 28.2014 19.257C27.4264 19.995 26.5264 20.501 25.5014 20.775V22.5H28.3889C28.8139 22.5 29.1639 22.6625 29.4389 22.9875C29.7139 23.3125 29.8264 23.6875 29.7764 24.1125C29.5014 25.1375 28.9764 26.019 28.2014 26.757C27.4264 27.495 26.5264 28.001 25.5014 28.275V28.5C25.5014 29.325 25.2079 30.0315 24.6209 30.6195C24.0339 31.2075 23.3274 31.501 22.5014 31.5H13.5014C12.6764 31.5 11.9704 31.2065 11.3834 30.6195C10.7964 30.0325 10.5024 29.326 10.5014 28.5V28.275C9.47638 28 8.57638 27.494 7.80138 26.757C7.02638 26.02 6.50138 25.1385 6.22638 24.1125C6.17638 23.6875 6.28888 23.3125 6.56388 22.9875C6.83888 22.6625 7.18888 22.5 7.61388 22.5H10.5014ZM13.5014 28.5H22.5014V7.5H13.5014V28.5Z" fill="black"/>
</svg>
