<svg width="28" height="28" viewBox="0 0 28 28" fill="none" xmlns="http://www.w3.org/2000/svg">
<g clip-path="url(#clip0_7256_24145)">
<path fill-rule="evenodd" clip-rule="evenodd" d="M14.6039 18.6057C14.3851 18.8244 14.0884 18.9473 13.7791 18.9473C13.4697 18.9473 13.173 18.8244 12.9543 18.6057L6.35442 12.0058C6.24299 11.8982 6.15411 11.7695 6.09297 11.6271C6.03182 11.4848 5.99964 11.3317 5.99829 11.1768C5.99695 11.0219 6.02646 10.8683 6.08513 10.7249C6.14379 10.5815 6.23042 10.4512 6.33996 10.3417C6.4495 10.2322 6.57976 10.1455 6.72314 10.0869C6.86652 10.0282 7.02014 9.9987 7.17505 10C7.32996 10.0014 7.48305 10.0336 7.62539 10.0947C7.76773 10.1559 7.89646 10.2447 8.00408 10.3562L13.7791 16.1312L19.5541 10.3562C19.7741 10.1437 20.0688 10.0261 20.3747 10.0287C20.6806 10.0314 20.9732 10.1541 21.1895 10.3704C21.4059 10.5867 21.5285 10.8793 21.5312 11.1852C21.5339 11.4911 21.4163 11.7858 21.2038 12.0058L14.6039 18.6057Z" fill="#666666"/>
</g>
<defs>
<clipPath id="clip0_7256_24145">
<rect width="28" height="28" fill="white" transform="matrix(0 1 -1 0 28 0)"/>
</clipPath>
</defs>
</svg>
