<svg width="36" height="36" viewBox="0 0 36 36" fill="none" xmlns="http://www.w3.org/2000/svg">
<path d="M18 31.875C25.663 31.875 31.875 25.663 31.875 18C31.875 10.337 25.663 4.125 18 4.125C10.337 4.125 4.125 10.337 4.125 18C4.125 25.663 10.337 31.875 18 31.875Z" stroke="black" stroke-opacity="0.9" stroke-width="2.3" stroke-linecap="round" stroke-linejoin="round"/>
<path d="M13.5 15.375C14.5355 15.375 15.375 14.5355 15.375 13.5C15.375 12.4645 14.5355 11.625 13.5 11.625C12.4645 11.625 11.625 12.4645 11.625 13.5C11.625 14.5355 12.4645 15.375 13.5 15.375Z" fill="black" fill-opacity="0.9"/>
<path d="M22.5 15.375C23.5355 15.375 24.375 14.5355 24.375 13.5C24.375 12.4645 23.5355 11.625 22.5 11.625C21.4645 11.625 20.625 12.4645 20.625 13.5C20.625 14.5355 21.4645 15.375 22.5 15.375Z" fill="black" fill-opacity="0.9"/>
<path d="M24.7512 19.125C25.1652 19.125 25.5057 19.461 25.4637 19.875C25.2975 21.5379 24.5806 23.0977 23.4268 24.3067C22.2729 25.5157 20.7483 26.3046 19.0949 26.5481C17.4415 26.7916 15.7542 26.4758 14.3007 25.6508C12.8473 24.8258 11.7112 23.5389 11.0727 21.9945C10.792 21.3174 10.6121 20.6028 10.5387 19.8735C10.4967 19.461 10.8372 19.125 11.2512 19.125H24.7512Z" stroke="black" stroke-opacity="0.9" stroke-width="2.3" stroke-linecap="round" stroke-linejoin="round"/>
</svg>
