<svg width="32" height="32" viewBox="0 0 32 32" fill="none" xmlns="http://www.w3.org/2000/svg">
<path d="M15.767 8.60659L15.755 8.59859L14.6977 7.88792C13.9719 7.39978 13.1061 7.16298 12.2329 7.21379C11.3597 7.2646 10.5273 7.60022 9.86299 8.16926L7.26699 10.3946C7.08568 10.5496 6.8549 10.6348 6.61633 10.6346H3.66699C3.40178 10.6346 3.14742 10.7399 2.95989 10.9275C2.77235 11.115 2.66699 11.3694 2.66699 11.6346V19.6746C2.66699 20.2266 3.11499 20.6746 3.66699 20.6746H6.45099C6.59299 20.6745 6.73337 20.7047 6.86281 20.7631C6.99224 20.8215 7.10775 20.9067 7.20166 21.0133L10.3203 24.5599C10.8058 25.1117 11.477 25.4661 12.2064 25.5558C12.9359 25.6455 13.6729 25.4643 14.2777 25.0466L15.1897 24.4159L16.1683 24.7493C16.7731 24.9543 17.4275 24.9611 18.0364 24.7685C18.6453 24.576 19.1768 24.1941 19.5537 23.6786L20.1803 22.8226L20.615 22.8813C21.217 22.9624 21.8294 22.8588 22.3713 22.5843C22.9132 22.3098 23.3589 21.8773 23.6497 21.3439L23.715 21.2239H28.3337C28.5989 21.2239 28.8532 21.1186 29.0408 20.931C29.2283 20.7435 29.3337 20.4891 29.3337 20.2239V11.6359C29.3337 11.3707 29.2283 11.1164 29.0408 10.9288C28.8532 10.7413 28.5989 10.6359 28.3337 10.6359H25.3857C25.1458 10.636 24.914 10.5499 24.7323 10.3933L22.4803 8.44792C21.541 7.63623 20.3332 7.20303 19.0921 7.2326C17.851 7.26218 16.6653 7.75241 15.7657 8.60792M13.579 9.54792L14.3283 10.0519L11.715 12.6799C11.4333 12.9632 11.2111 13.2998 11.0613 13.6701C10.9115 14.0404 10.8371 14.4369 10.8426 14.8363C10.8481 15.2357 10.9332 15.63 11.0931 15.996C11.253 16.3621 11.4844 16.6925 11.7737 16.9679L11.8643 17.0533C12.9443 18.0813 14.6137 18.1613 15.7857 17.2399L18.5577 15.0639L22.1003 18.4706C22.2586 18.6226 22.3625 18.8224 22.396 19.0392C22.4295 19.2561 22.3907 19.4779 22.2857 19.6706L22.2523 19.7293L22.2337 19.7639L21.8937 20.3866C21.7967 20.5641 21.6483 20.7081 21.4678 20.7995C21.2874 20.8909 21.0835 20.9255 20.883 20.8986L19.8577 20.7613C19.6795 20.7373 19.4981 20.7618 19.3327 20.8322C19.1673 20.9026 19.0239 21.0162 18.9177 21.1613L17.939 22.4973C17.8135 22.6691 17.6364 22.7964 17.4335 22.8607C17.2306 22.9249 17.0126 22.9228 16.811 22.8546L15.3577 22.3613C15.2098 22.3109 15.0523 22.296 14.8976 22.3175C14.7429 22.339 14.5955 22.3965 14.467 22.4853L13.1417 23.4013C12.94 23.5407 12.6941 23.6012 12.4507 23.5712C12.2073 23.5412 11.9835 23.4228 11.8217 23.2386L8.70299 19.6919C8.42125 19.372 8.07455 19.1158 7.686 18.9403C7.29745 18.7649 6.87597 18.6743 6.44966 18.6746H4.66699V12.6346H6.61499C7.33088 12.6348 8.02323 12.3789 8.56699 11.9133L11.1643 9.68792C11.4964 9.40331 11.9126 9.23537 12.3492 9.20985C12.7858 9.18432 13.2187 9.30261 13.5817 9.54659M24.4083 19.2253C24.4131 18.8156 24.334 18.4093 24.1758 18.0314C24.0175 17.6535 23.7836 17.312 23.4883 17.0279L20.127 13.7959C20.2779 13.6036 20.353 13.3627 20.3384 13.1187C20.3237 12.8747 20.2201 12.6445 20.0473 12.4716C19.8744 12.2988 19.6443 12.1952 19.4003 12.1806C19.1563 12.1659 18.9153 12.2411 18.723 12.3919L18.0483 12.9213L17.9683 12.9839L14.5523 15.6679C14.3632 15.8165 14.1269 15.892 13.8866 15.8805C13.6464 15.869 13.4184 15.7713 13.2443 15.6053L13.1537 15.5186C13.0572 15.4268 12.98 15.3167 12.9267 15.1947C12.8734 15.0727 12.8449 14.9413 12.8431 14.8081C12.8412 14.675 12.866 14.5428 12.9159 14.4194C12.9658 14.2959 13.0398 14.1837 13.1337 14.0893L17.087 10.1159C17.6224 9.57768 18.3419 9.26243 19.1005 9.23372C19.8592 9.20502 20.6005 9.465 21.175 9.96126L23.4243 11.9053C23.9697 12.3762 24.6664 12.6351 25.387 12.6346H27.3337V19.2253H24.4083Z" fill="black"/>
</svg>
