<svg width="17" height="16" viewBox="0 0 17 16" fill="none" xmlns="http://www.w3.org/2000/svg">
<path d="M2.83297 13.6666C3.3863 14.22 4.27964 14.22 4.83297 13.6666L13.4996 4.99996C14.053 4.44663 14.053 3.55329 13.4996 2.99996C12.9463 2.44663 12.053 2.44663 11.4996 2.99996L2.83297 11.6666C2.27964 12.22 2.27964 13.1133 2.83297 13.6666Z" stroke="black" stroke-opacity="0.79" stroke-width="1.5" stroke-linecap="round" stroke-linejoin="round"/>
<path d="M12.5059 5.99316L10.5059 3.99316" stroke="black" stroke-opacity="0.79" stroke-width="1.5" stroke-linecap="round" stroke-linejoin="round"/>
<path d="M6.16602 1.62683L7.16602 1.3335L6.87268 2.3335L7.16602 3.3335L6.16602 3.04016L5.16602 3.3335L5.45935 2.3335L5.16602 1.3335L6.16602 1.62683Z" stroke="black" stroke-opacity="0.79" stroke-linecap="round" stroke-linejoin="round"/>
<path d="M3.5 5.62683L4.5 5.3335L4.20667 6.3335L4.5 7.3335L3.5 7.04016L2.5 7.3335L2.79333 6.3335L2.5 5.3335L3.5 5.62683Z" stroke="black" stroke-opacity="0.79" stroke-linecap="round" stroke-linejoin="round"/>
<path d="M13.5 8.95984L14.5 8.6665L14.2067 9.6665L14.5 10.6665L13.5 10.3732L12.5 10.6665L12.7933 9.6665L12.5 8.6665L13.5 8.95984Z" stroke="black" stroke-opacity="0.79" stroke-linecap="round" stroke-linejoin="round"/>
</svg>
