<svg width="32" height="33" viewBox="0 0 32 33" fill="none" xmlns="http://www.w3.org/2000/svg">
<path d="M25.6007 27.4193C23.1989 27.4193 20.7909 26.8664 18.3767 25.7606C15.9624 24.6548 13.738 23.0846 11.7033 21.0499C9.68554 19.0153 8.11976 16.7837 7.00598 14.3553C5.89132 11.9259 5.33398 9.52505 5.33398 7.1526V6.08594H11.2527L12.3833 11.5299L8.78865 14.8766C9.39665 15.9308 10.0264 16.8939 10.678 17.7659C11.3295 18.6379 12.0082 19.4242 12.714 20.1246C13.4269 20.8713 14.2304 21.569 15.1247 22.2179C16.0189 22.8668 17.0393 23.5068 18.186 24.1379L21.6673 20.5273L26.6673 21.5353V27.4193H25.6007Z" fill="black"/>
</svg>
