<svg width="53" height="52" viewBox="0 0 53 52" fill="none" xmlns="http://www.w3.org/2000/svg">
<path d="M41.5153 43.3332C37.8638 43.3332 34.1198 42.4188 30.2833 40.5902C26.4469 38.7615 22.8762 36.194 19.5713 32.8877C16.2924 29.5828 13.7387 26.0186 11.91 22.1952C10.0813 18.3717 9.16699 14.6349 9.16699 10.9848C9.16699 10.3348 9.38366 9.78595 9.81699 9.33817C10.2503 8.89039 10.792 8.6665 11.442 8.6665H16.8002C17.3895 8.6665 17.9037 8.85211 18.3428 9.22334C18.7819 9.59456 19.0788 10.0705 19.2333 10.6512L20.308 15.8165C20.4091 16.4232 20.391 16.9526 20.2538 17.4047C20.1166 17.8568 19.8761 18.2273 19.5323 18.5162L14.7787 22.9492C15.6684 24.5626 16.6514 26.0619 17.7275 27.4472C18.8036 28.8324 19.9519 30.1447 21.1725 31.384C22.4292 32.6407 23.7826 33.8107 25.2328 34.894C26.683 35.9759 28.2748 36.9971 30.0082 37.9577L34.6427 33.2408C34.9951 32.8609 35.3916 32.6103 35.8322 32.489C36.2713 32.3691 36.7581 32.3453 37.2925 32.4175L41.849 33.3492C42.4383 33.4936 42.9164 33.7905 43.2833 34.2397C43.6502 34.6889 43.8337 35.2031 43.8337 35.7823V41.0582C43.8337 41.7082 43.6098 42.2498 43.162 42.6832C42.7142 43.1165 42.1653 43.3332 41.5153 43.3332Z" fill="#116390"/>
</svg>
