<svg width="53" height="52" viewBox="0 0 53 52" fill="none" xmlns="http://www.w3.org/2000/svg">
<path d="M16.7497 32.5H19.9997V23.8333H16.7497V26.5417H13.4997V29.7917H16.7497V32.5ZM22.1663 29.7917H39.4997V26.5417H22.1663V29.7917ZM32.9997 23.8333H36.2497V21.125H39.4997V17.875H36.2497V15.1667H32.9997V23.8333ZM13.4997 21.125H30.833V17.875H13.4997V21.125ZM17.833 45.5V41.1667H9.16634C7.97467 41.1667 6.9549 40.7427 6.10701 39.8948C5.25912 39.0469 4.83445 38.0264 4.83301 36.8333V10.8333C4.83301 9.64167 5.25767 8.62189 6.10701 7.774C6.95634 6.92611 7.97612 6.50144 9.16634 6.5H43.833C45.0247 6.5 46.0452 6.92467 46.8945 7.774C47.7438 8.62333 48.1678 9.64311 48.1663 10.8333V36.8333C48.1663 38.025 47.7424 39.0455 46.8945 39.8948C46.0466 40.7442 45.0261 41.1681 43.833 41.1667H35.1663V45.5H17.833ZM9.16634 36.8333H43.833V10.8333H9.16634V36.8333Z" fill="black"/>
</svg>
