<svg width="32" height="32" viewBox="0 0 32 32" fill="none" xmlns="http://www.w3.org/2000/svg">
<path d="M16.0003 29.3332C14.2494 29.3332 12.5156 28.9883 10.8979 28.3182C9.2802 27.6482 7.81035 26.666 6.57223 25.4279C4.07175 22.9274 2.66699 19.5361 2.66699 15.9998C2.66699 12.4636 4.07175 9.07223 6.57223 6.57175C9.07272 4.07126 12.4641 2.6665 16.0003 2.6665C23.3337 2.6665 29.3337 7.99984 29.3337 14.6665C29.3337 16.7882 28.4908 18.8231 26.9905 20.3234C25.4902 21.8236 23.4554 22.6665 21.3337 22.6665H18.9337C18.5337 22.6665 18.267 22.9332 18.267 23.3332C18.267 23.4665 18.4003 23.5998 18.4003 23.7332C18.9337 24.3998 19.2003 25.1998 19.2003 25.9998C19.3337 27.8665 17.867 29.3332 16.0003 29.3332ZM16.0003 5.33317C13.1713 5.33317 10.4582 6.45698 8.45785 8.45736C6.45747 10.4578 5.33366 13.1709 5.33366 15.9998C5.33366 18.8288 6.45747 21.5419 8.45785 23.5423C10.4582 25.5427 13.1713 26.6665 16.0003 26.6665C16.4003 26.6665 16.667 26.3998 16.667 25.9998C16.667 25.7332 16.5337 25.5998 16.5337 25.4665C16.0003 24.7998 15.7337 24.1332 15.7337 23.3332C15.7337 21.4665 17.2003 19.9998 19.067 19.9998H21.3337C22.7481 19.9998 24.1047 19.4379 25.1049 18.4377C26.1051 17.4375 26.667 16.081 26.667 14.6665C26.667 9.4665 21.867 5.33317 16.0003 5.33317ZM8.66699 13.3332C9.73366 13.3332 10.667 14.2665 10.667 15.3332C10.667 16.3998 9.73366 17.3332 8.66699 17.3332C7.60033 17.3332 6.66699 16.3998 6.66699 15.3332C6.66699 14.2665 7.60033 13.3332 8.66699 13.3332ZM12.667 7.99984C13.7337 7.99984 14.667 8.93317 14.667 9.99984C14.667 11.0665 13.7337 11.9998 12.667 11.9998C11.6003 11.9998 10.667 11.0665 10.667 9.99984C10.667 8.93317 11.6003 7.99984 12.667 7.99984ZM19.3337 7.99984C20.4003 7.99984 21.3337 8.93317 21.3337 9.99984C21.3337 11.0665 20.4003 11.9998 19.3337 11.9998C18.267 11.9998 17.3337 11.0665 17.3337 9.99984C17.3337 8.93317 18.267 7.99984 19.3337 7.99984ZM23.3337 13.3332C24.4003 13.3332 25.3337 14.2665 25.3337 15.3332C25.3337 16.3998 24.4003 17.3332 23.3337 17.3332C22.267 17.3332 21.3337 16.3998 21.3337 15.3332C21.3337 14.2665 22.267 13.3332 23.3337 13.3332Z" fill="black"/>
</svg>
