<svg width="32" height="32" viewBox="0 0 32 32" fill="none" xmlns="http://www.w3.org/2000/svg">
<rect width="32" height="32" rx="6" fill="#C4926D"/>
<path d="M9.50003 19.5C8.70891 19.5 7.93555 19.7346 7.27775 20.1741C6.61996 20.6136 6.10727 21.2384 5.80452 21.9693C5.50177 22.7002 5.42255 23.5044 5.57689 24.2804C5.73123 25.0563 6.1122 25.769 6.67161 26.3284C7.23102 26.8878 7.94375 27.2688 8.71967 27.4231C9.4956 27.5775 10.2999 27.4983 11.0308 27.1955C11.7617 26.8928 12.3864 26.3801 12.8259 25.7223C13.2654 25.0645 13.5 24.2911 13.5 23.5C13.5 22.4391 13.0786 21.4217 12.3285 20.6716C11.5783 19.9214 10.5609 19.5 9.50003 19.5ZM9.50003 26.5C8.90669 26.5 8.32667 26.3241 7.83332 25.9944C7.33998 25.6648 6.95546 25.1962 6.7284 24.6481C6.50133 24.0999 6.44192 23.4967 6.55768 22.9147C6.67343 22.3328 6.95916 21.7982 7.37871 21.3787C7.79827 20.9591 8.33282 20.6734 8.91476 20.5576C9.49671 20.4419 10.0999 20.5013 10.6481 20.7284C11.1963 20.9554 11.6648 21.3399 11.9944 21.8333C12.3241 22.3266 12.5 22.9067 12.5 23.5C12.5 24.2956 12.184 25.0587 11.6214 25.6213C11.0587 26.1839 10.2957 26.5 9.50003 26.5ZM5.64628 13.6462L7.79253 11.5L5.64628 9.35375C5.55246 9.25993 5.49976 9.13268 5.49976 9C5.49976 8.86732 5.55246 8.74007 5.64628 8.64625C5.7401 8.55243 5.86735 8.49972 6.00003 8.49972C6.13272 8.49972 6.25996 8.55243 6.35378 8.64625L8.50003 10.7925L10.6463 8.64625C10.7401 8.55243 10.8674 8.49972 11 8.49972C11.1327 8.49972 11.26 8.55243 11.3538 8.64625C11.4476 8.74007 11.5003 8.86732 11.5003 9C11.5003 9.13268 11.4476 9.25993 11.3538 9.35375L9.20753 11.5L11.3538 13.6462C11.4002 13.6927 11.4371 13.7479 11.4622 13.8086C11.4874 13.8692 11.5003 13.9343 11.5003 14C11.5003 14.0657 11.4874 14.1308 11.4622 14.1914C11.4371 14.2521 11.4002 14.3073 11.3538 14.3538C11.3073 14.4002 11.2522 14.4371 11.1915 14.4622C11.1308 14.4873 11.0657 14.5003 11 14.5003C10.9343 14.5003 10.8693 14.4873 10.8086 14.4622C10.7479 14.4371 10.6927 14.4002 10.6463 14.3538L8.50003 12.2075L6.35378 14.3538C6.30733 14.4002 6.25218 14.4371 6.19148 14.4622C6.13079 14.4873 6.06573 14.5003 6.00003 14.5003C5.93434 14.5003 5.86928 14.4873 5.80859 14.4622C5.74789 14.4371 5.69274 14.4002 5.64628 14.3538C5.59983 14.3073 5.56298 14.2521 5.53784 14.1914C5.5127 14.1308 5.49976 14.0657 5.49976 14C5.49976 13.9343 5.5127 13.8692 5.53784 13.8086C5.56298 13.7479 5.59983 13.6927 5.64628 13.6462ZM28.3538 25.6462C28.4476 25.7401 28.5003 25.8673 28.5003 26C28.5003 26.1327 28.4476 26.2599 28.3538 26.3538C28.26 26.4476 28.1327 26.5003 28 26.5003C27.8674 26.5003 27.7401 26.4476 27.6463 26.3538L25.5 24.2075L23.3538 26.3538C23.26 26.4476 23.1327 26.5003 23 26.5003C22.8674 26.5003 22.7401 26.4476 22.6463 26.3538C22.5525 26.2599 22.4998 26.1327 22.4998 26C22.4998 25.8673 22.5525 25.7401 22.6463 25.6462L24.7925 23.5L22.6463 21.3538C22.5525 21.2599 22.4998 21.1327 22.4998 21C22.4998 20.8673 22.5525 20.7401 22.6463 20.6462C22.7401 20.5524 22.8674 20.4997 23 20.4997C23.1327 20.4997 23.26 20.5524 23.3538 20.6462L25.5 22.7925L27.6463 20.6462C27.6927 20.5998 27.7479 20.5629 27.8086 20.5378C27.8693 20.5127 27.9343 20.4997 28 20.4997C28.0657 20.4997 28.1308 20.5127 28.1915 20.5378C28.2522 20.5629 28.3073 20.5998 28.3538 20.6462C28.4002 20.6927 28.4371 20.7479 28.4622 20.8086C28.4874 20.8692 28.5003 20.9343 28.5003 21C28.5003 21.0657 28.4874 21.1308 28.4622 21.1914C28.4371 21.2521 28.4002 21.3073 28.3538 21.3538L26.2075 23.5L28.3538 25.6462ZM22.5775 13.97C21.85 16.595 19.6063 18.8638 17.1213 19.485C17.0804 19.4952 17.0384 19.5003 16.9963 19.5C16.874 19.5009 16.7556 19.4569 16.6636 19.3763C16.5715 19.2958 16.5122 19.1843 16.4968 19.063C16.4814 18.9416 16.511 18.8189 16.58 18.7179C16.649 18.6169 16.7526 18.5447 16.8713 18.515C18.9888 17.985 20.98 15.9625 21.6063 13.7037C22.04 12.1375 22.05 9.765 19.6388 7.35375L18.5 6.2075V10C18.5 10.1326 18.4474 10.2598 18.3536 10.3536C18.2598 10.4473 18.1326 10.5 18 10.5C17.8674 10.5 17.7402 10.4473 17.6465 10.3536C17.5527 10.2598 17.5 10.1326 17.5 10V5C17.5 4.86739 17.5527 4.74021 17.6465 4.64645C17.7402 4.55268 17.8674 4.5 18 4.5H23C23.1326 4.5 23.2598 4.55268 23.3536 4.64645C23.4474 4.74021 23.5 4.86739 23.5 5C23.5 5.13261 23.4474 5.25979 23.3536 5.35355C23.2598 5.44732 23.1326 5.5 23 5.5H19.2075L20.3538 6.64625C22.5 8.79375 23.2913 11.395 22.5775 13.97Z" fill="white"/>
</svg>
