<svg width="493" height="405" viewBox="0 0 493 405" fill="none" xmlns="http://www.w3.org/2000/svg">
<g filter="url(#filter0_dddd_6247_24294)">
<rect x="25" y="4" width="443" height="313.523" rx="16" fill="white"/>
<rect x="25.25" y="4.25" width="442.5" height="313.023" rx="15.75" stroke="#D9D9D9" stroke-width="0.5"/>
<path d="M52.09 56.7617H49.7818L56.4579 38.5799H58.7306L65.4068 56.7617H63.0985L57.6653 41.4563H57.5233L52.09 56.7617ZM52.9423 49.6594H62.2463V51.6126H52.9423V49.6594ZM77.3963 43.1254L72.3537 56.7617H70.223L65.1804 43.1254H67.4531L71.2173 53.9918H71.3594L75.1236 43.1254H77.3963ZM85.1777 62.1594C84.1657 62.1594 83.2956 62.0292 82.5676 61.7688C81.8397 61.5143 81.233 61.177 80.7477 60.7567C80.2683 60.3424 79.8865 59.8986 79.6025 59.4251L81.2715 58.2532C81.4609 58.5018 81.7006 58.7859 81.9906 59.1055C82.2806 59.431 82.6771 59.7121 83.1802 59.9489C83.6892 60.1915 84.3551 60.3129 85.1777 60.3129C86.2786 60.3129 87.1871 60.0465 87.9032 59.5138C88.6194 58.9812 88.9775 58.1467 88.9775 57.0103V54.2404H88.7999C88.646 54.489 88.427 54.7968 88.1429 55.1637C87.8648 55.5247 87.4623 55.8473 86.9355 56.1314C86.4147 56.4096 85.7104 56.5487 84.8226 56.5487C83.7218 56.5487 82.7334 56.2882 81.8574 55.7674C80.9874 55.2466 80.2979 54.489 79.7889 53.4947C79.2858 52.5004 79.0343 51.293 79.0343 49.8725C79.0343 48.4757 79.2799 47.2595 79.7711 46.2237C80.2624 45.1821 80.946 44.3771 81.8219 43.8089C82.6979 43.2348 83.7099 42.9478 84.8581 42.9478C85.7459 42.9478 86.4502 43.0958 86.9711 43.3917C87.4978 43.6817 87.9003 44.0131 88.1784 44.386C88.4625 44.753 88.6815 45.0548 88.8354 45.2915H89.0485V43.1254H91.0726V57.1523C91.0726 58.3242 90.8063 59.2771 90.2736 60.011C89.7469 60.7508 89.0366 61.2924 88.1429 61.6357C87.2551 61.9848 86.2667 62.1594 85.1777 62.1594ZM85.1067 54.6665C85.9471 54.6665 86.6574 54.4742 87.2374 54.0895C87.8174 53.7048 88.2583 53.1514 88.5602 52.4293C88.862 51.7073 89.013 50.8432 89.013 49.837C89.013 48.8545 88.865 47.9875 88.5691 47.2358C88.2731 46.4841 87.8352 45.8952 87.2551 45.4691C86.6751 45.043 85.959 44.8299 85.1067 44.8299C84.2189 44.8299 83.4791 45.0548 82.8873 45.5046C82.3013 45.9544 81.8604 46.5581 81.5645 47.3157C81.2744 48.0733 81.1294 48.9137 81.1294 49.837C81.1294 50.784 81.2774 51.6214 81.5733 52.3494C81.8752 53.0715 82.3191 53.6397 82.905 54.054C83.4969 54.4624 84.2308 54.6665 85.1067 54.6665ZM96.4348 56.9038C95.9969 56.9038 95.621 56.7469 95.3074 56.4332C94.9937 56.1196 94.8368 55.7437 94.8368 55.3058C94.8368 54.8678 94.9937 54.492 95.3074 54.1783C95.621 53.8646 95.9969 53.7077 96.4348 53.7077C96.8728 53.7077 97.2486 53.8646 97.5623 54.1783C97.876 54.492 98.0328 54.8678 98.0328 55.3058C98.0328 55.5958 97.9589 55.8621 97.8109 56.1048C97.6689 56.3474 97.4765 56.5427 97.2338 56.6907C96.9971 56.8327 96.7308 56.9038 96.4348 56.9038ZM109.108 56.7617V38.5799H115.251C116.672 38.5799 117.838 38.8226 118.749 39.3079C119.661 39.7873 120.335 40.4472 120.773 41.2876C121.211 42.1281 121.43 43.0839 121.43 44.1552C121.43 45.2264 121.211 46.1764 120.773 47.005C120.335 47.8336 119.664 48.4846 118.758 48.9581C117.853 49.4257 116.696 49.6594 115.287 49.6594H110.315V47.6708H115.216C116.187 47.6708 116.968 47.5288 117.56 47.2447C118.157 46.9606 118.589 46.5581 118.856 46.0373C119.128 45.5105 119.264 44.8832 119.264 44.1552C119.264 43.4272 119.128 42.791 118.856 42.2464C118.584 41.7019 118.149 41.2817 117.551 40.9858C116.953 40.6839 116.163 40.533 115.18 40.533H111.31V56.7617H109.108ZM117.666 48.5941L122.141 56.7617H119.584L115.18 48.5941H117.666ZM128.828 57.0813C127.964 57.0813 127.18 56.9186 126.475 56.593C125.771 56.2616 125.212 55.7852 124.797 55.1637C124.383 54.5363 124.176 53.7788 124.176 52.891C124.176 52.1097 124.33 51.4764 124.638 50.9911C124.945 50.4999 125.357 50.1152 125.872 49.837C126.386 49.5588 126.955 49.3517 127.576 49.2156C128.203 49.0735 128.834 48.9611 129.467 48.8782C130.296 48.7717 130.967 48.6918 131.482 48.6385C132.003 48.5793 132.382 48.4817 132.619 48.3455C132.861 48.2094 132.983 47.9727 132.983 47.6353V47.5643C132.983 46.6883 132.743 46.0077 132.264 45.5224C131.79 45.0371 131.071 44.7944 130.106 44.7944C129.106 44.7944 128.322 45.0134 127.754 45.4513C127.185 45.8893 126.786 46.3569 126.555 46.854L124.566 46.1438C124.922 45.3152 125.395 44.6701 125.987 44.2085C126.585 43.7409 127.236 43.4154 127.94 43.2319C128.65 43.0425 129.349 42.9478 130.035 42.9478C130.473 42.9478 130.976 43.0011 131.544 43.1076C132.119 43.2082 132.672 43.4183 133.205 43.7379C133.743 44.0575 134.19 44.5399 134.545 45.185C134.9 45.8301 135.078 46.6942 135.078 47.7773V56.7617H132.983V54.9151H132.876C132.734 55.2111 132.497 55.5277 132.166 55.8651C131.834 56.2024 131.394 56.4895 130.843 56.7262C130.293 56.9629 129.621 57.0813 128.828 57.0813ZM129.147 55.1992C129.976 55.1992 130.674 55.0365 131.243 54.7109C131.817 54.3854 132.249 53.9652 132.539 53.4503C132.835 52.9354 132.983 52.3938 132.983 51.8256V49.908C132.894 50.0146 132.699 50.1122 132.397 50.201C132.101 50.2839 131.758 50.3578 131.367 50.4229C130.982 50.4821 130.606 50.5354 130.239 50.5827C129.878 50.6242 129.585 50.6597 129.361 50.6893C128.816 50.7603 128.307 50.8757 127.834 51.0355C127.366 51.1894 126.987 51.4232 126.697 51.7369C126.413 52.0446 126.271 52.4648 126.271 52.9975C126.271 53.7255 126.54 54.2759 127.079 54.6488C127.623 55.0157 128.313 55.1992 129.147 55.1992ZM144.832 43.1254V44.9009H137.766V43.1254H144.832ZM139.825 39.8583H141.92V52.8555C141.92 53.4473 142.006 53.8912 142.178 54.1871C142.355 54.4772 142.58 54.6725 142.853 54.7731C143.131 54.8678 143.424 54.9151 143.732 54.9151C143.962 54.9151 144.152 54.9033 144.3 54.8796C144.448 54.85 144.566 54.8263 144.655 54.8086L145.081 56.6907C144.939 56.744 144.741 56.7972 144.486 56.8505C144.232 56.9097 143.909 56.9393 143.518 56.9393C142.927 56.9393 142.347 56.812 141.778 56.5575C141.216 56.303 140.749 55.9154 140.376 55.3945C140.009 54.8737 139.825 54.2167 139.825 53.4237V39.8583ZM147.984 56.7617V43.1254H150.079V56.7617H147.984ZM149.049 40.8526C148.641 40.8526 148.289 40.7135 147.993 40.4354C147.703 40.1572 147.558 39.8228 147.558 39.4322C147.558 39.0415 147.703 38.7071 147.993 38.429C148.289 38.1508 148.641 38.0117 149.049 38.0117C149.458 38.0117 149.807 38.1508 150.097 38.429C150.393 38.7071 150.541 39.0415 150.541 39.4322C150.541 39.8228 150.393 40.1572 150.097 40.4354C149.807 40.7135 149.458 40.8526 149.049 40.8526ZM156.012 48.5586V56.7617H153.917V43.1254H155.941V45.256H156.118C156.438 44.5636 156.923 44.0072 157.574 43.587C158.225 43.1609 159.066 42.9478 160.096 42.9478C161.019 42.9478 161.827 43.1372 162.519 43.516C163.212 43.8888 163.75 44.457 164.135 45.2205C164.52 45.9781 164.712 46.9369 164.712 48.0969V56.7617H162.617V48.239C162.617 47.1677 162.339 46.3332 161.782 45.7354C161.226 45.1317 160.463 44.8299 159.492 44.8299C158.823 44.8299 158.225 44.9749 157.699 45.2649C157.178 45.5549 156.766 45.9781 156.465 46.5344C156.163 47.0908 156.012 47.7655 156.012 48.5586ZM174.045 62.1594C173.033 62.1594 172.163 62.0292 171.435 61.7688C170.707 61.5143 170.1 61.177 169.615 60.7567C169.135 60.3424 168.754 59.8986 168.47 59.4251L170.139 58.2532C170.328 58.5018 170.568 58.7859 170.858 59.1055C171.148 59.431 171.544 59.7121 172.047 59.9489C172.556 60.1915 173.222 60.3129 174.045 60.3129C175.146 60.3129 176.054 60.0465 176.77 59.5138C177.487 58.9812 177.845 58.1467 177.845 57.0103V54.2404H177.667C177.513 54.489 177.294 54.7968 177.01 55.1637C176.732 55.5247 176.329 55.8473 175.803 56.1314C175.282 56.4096 174.578 56.5487 173.69 56.5487C172.589 56.5487 171.601 56.2882 170.725 55.7674C169.855 55.2466 169.165 54.489 168.656 53.4947C168.153 52.5004 167.901 51.293 167.901 49.8725C167.901 48.4757 168.147 47.2595 168.638 46.2237C169.13 45.1821 169.813 44.3771 170.689 43.8089C171.565 43.2348 172.577 42.9478 173.725 42.9478C174.613 42.9478 175.317 43.0958 175.838 43.3917C176.365 43.6817 176.767 44.0131 177.046 44.386C177.33 44.753 177.549 45.0548 177.703 45.2915H177.916V43.1254H179.94V57.1523C179.94 58.3242 179.673 59.2771 179.141 60.011C178.614 60.7508 177.904 61.2924 177.01 61.6357C176.122 61.9848 175.134 62.1594 174.045 62.1594ZM173.974 54.6665C174.814 54.6665 175.525 54.4742 176.105 54.0895C176.685 53.7048 177.126 53.1514 177.427 52.4293C177.729 51.7073 177.88 50.8432 177.88 49.837C177.88 48.8545 177.732 47.9875 177.436 47.2358C177.14 46.4841 176.702 45.8952 176.122 45.4691C175.542 45.043 174.826 44.8299 173.974 44.8299C173.086 44.8299 172.346 45.0548 171.754 45.5046C171.169 45.9544 170.728 46.5581 170.432 47.3157C170.142 48.0733 169.997 48.9137 169.997 49.837C169.997 50.784 170.145 51.6214 170.441 52.3494C170.742 53.0715 171.186 53.6397 171.772 54.054C172.364 54.4624 173.098 54.6665 173.974 54.6665Z" fill="black"/>
<path d="M218.426 56.7617H216.118L222.794 38.5799H225.067L231.743 56.7617H229.434L224.001 41.4563H223.859L218.426 56.7617ZM219.278 49.6594H228.582V51.6126H219.278V49.6594ZM236.386 38.5799V56.7617H234.291V38.5799H236.386ZM242.318 38.5799V56.7617H240.223V38.5799H242.318ZM252.477 40.533V38.5799H266.113V40.533H260.396V56.7617H258.194V40.533H252.477ZM269.227 56.7617V43.1254H271.322V56.7617H269.227ZM270.293 40.8526C269.884 40.8526 269.532 40.7135 269.236 40.4354C268.946 40.1572 268.801 39.8228 268.801 39.4322C268.801 39.0415 268.946 38.7071 269.236 38.429C269.532 38.1508 269.884 38.0117 270.293 38.0117C270.701 38.0117 271.05 38.1508 271.34 38.429C271.636 38.7071 271.784 39.0415 271.784 39.4322C271.784 39.8228 271.636 40.1572 271.34 40.4354C271.05 40.7135 270.701 40.8526 270.293 40.8526ZM275.16 56.7617V43.1254H277.184V45.256H277.362C277.646 44.5281 278.104 43.9628 278.738 43.5604C279.371 43.152 280.131 42.9478 281.019 42.9478C281.919 42.9478 282.667 43.152 283.265 43.5604C283.869 43.9628 284.339 44.5281 284.677 45.256H284.819C285.168 44.5517 285.692 43.9924 286.39 43.5781C287.089 43.1579 287.926 42.9478 288.903 42.9478C290.122 42.9478 291.119 43.3295 291.895 44.093C292.67 44.8506 293.058 46.0314 293.058 47.6353V56.7617H290.962V47.6353C290.962 46.6291 290.687 45.91 290.137 45.478C289.586 45.0459 288.938 44.8299 288.192 44.8299C287.234 44.8299 286.491 45.1199 285.964 45.6999C285.437 46.274 285.174 47.002 285.174 47.8839V56.7617H283.043V47.4222C283.043 46.6469 282.792 46.0225 282.289 45.549C281.786 45.0696 281.138 44.8299 280.344 44.8299C279.8 44.8299 279.291 44.9749 278.817 45.2649C278.35 45.5549 277.971 45.9574 277.681 46.4723C277.397 46.9813 277.255 47.5702 277.255 48.239V56.7617H275.16ZM302.606 57.0458C301.292 57.0458 300.158 56.7558 299.205 56.1758C298.258 55.5898 297.528 54.7731 297.013 53.7255C296.504 52.672 296.249 51.4469 296.249 50.0501C296.249 48.6533 296.504 47.4222 297.013 46.3569C297.528 45.2856 298.244 44.4511 299.161 43.8533C300.084 43.2496 301.162 42.9478 302.393 42.9478C303.103 42.9478 303.804 43.0662 304.497 43.3029C305.189 43.5397 305.819 43.9244 306.388 44.457C306.956 44.9838 307.409 45.6822 307.746 46.5522C308.083 47.4222 308.252 48.4935 308.252 49.766V50.6538H297.741V48.8427H306.121C306.121 48.0733 305.967 47.3867 305.66 46.783C305.358 46.1793 304.926 45.7029 304.363 45.3537C303.807 45.0045 303.15 44.8299 302.393 44.8299C301.558 44.8299 300.836 45.037 300.226 45.4513C299.623 45.8597 299.158 46.3924 298.833 47.0494C298.507 47.7063 298.344 48.4106 298.344 49.1623V50.3697C298.344 51.3995 298.522 52.2725 298.877 52.9886C299.238 53.6989 299.738 54.2404 300.377 54.6133C301.017 54.9802 301.759 55.1637 302.606 55.1637C303.156 55.1637 303.653 55.0868 304.097 54.9329C304.547 54.7731 304.935 54.5363 305.26 54.2227C305.586 53.9031 305.837 53.5065 306.015 53.033L308.039 53.6012C307.826 54.2878 307.468 54.8915 306.965 55.4123C306.462 55.9272 305.84 56.3297 305.1 56.6197C304.36 56.9038 303.529 57.0458 302.606 57.0458Z" fill="#A0A0A0"/>
<g clip-path="url(#clip0_6247_24294)">
<path d="M427.003 38.2433C427.003 36.519 428.87 35.4413 430.363 36.3034C431.857 37.1656 431.857 39.3211 430.363 40.1832C430.023 40.3798 429.637 40.4833 429.243 40.4833C428.006 40.4834 427.003 39.4805 427.003 38.2433ZM429.243 45.5233C427.519 45.5233 426.441 47.3899 427.303 48.8832C428.166 50.3766 430.321 50.3767 431.183 48.8834C431.38 48.5429 431.483 48.1566 431.483 47.7633C431.483 46.5263 430.48 45.5234 429.243 45.5233ZM429.243 55.0433C427.519 55.0433 426.441 56.9099 427.303 58.4033C428.166 59.8966 430.321 59.8967 431.183 58.4034C431.38 58.0629 431.483 57.6766 431.483 57.2833C431.483 56.0463 430.48 55.0434 429.243 55.0433Z" fill="black"/>
</g>
<line x1="49" y1="88.0234" x2="441" y2="88.0234" stroke="black"/>
<path d="M53.0174 159.425V155.006L72.5131 124.16H75.7191V131.005H73.5529L58.8228 154.313V154.66H85.0771V159.425H53.0174ZM73.8995 168.523V158.082V156.025V124.16H79.0117V168.523H73.8995ZM94.9224 168.87C93.8538 168.87 92.9367 168.487 92.1713 167.722C91.406 166.957 91.0233 166.04 91.0233 164.971C91.0233 163.902 91.406 162.985 92.1713 162.22C92.9367 161.454 93.8538 161.072 94.9224 161.072C95.9911 161.072 96.9081 161.454 97.6735 162.22C98.4389 162.985 98.8216 163.902 98.8216 164.971C98.8216 165.679 98.641 166.328 98.28 166.92C97.9334 167.513 97.4641 167.989 96.872 168.35C96.2943 168.697 95.6445 168.87 94.9224 168.87ZM120.879 169.13C118.337 169.13 116.048 168.625 114.012 167.614C111.976 166.603 110.344 165.216 109.116 163.455C107.889 161.693 107.217 159.685 107.102 157.433H112.301C112.503 159.44 113.413 161.101 115.03 162.415C116.662 163.714 118.612 164.364 120.879 164.364C122.698 164.364 124.316 163.938 125.731 163.086C127.161 162.234 128.28 161.065 129.089 159.577C129.912 158.075 130.323 156.378 130.323 154.487C130.323 152.551 129.897 150.826 129.045 149.309C128.208 147.779 127.052 146.573 125.579 145.692C124.106 144.811 122.424 144.363 120.532 144.349C119.175 144.334 117.781 144.544 116.351 144.977C114.922 145.396 113.745 145.937 112.821 146.602L107.795 145.995L110.481 124.16H133.529V128.925H114.987L113.427 142.009H113.687C114.597 141.287 115.738 140.688 117.11 140.211C118.482 139.735 119.911 139.496 121.399 139.496C124.114 139.496 126.533 140.146 128.655 141.446C130.793 142.731 132.468 144.493 133.681 146.732C134.909 148.97 135.522 151.526 135.522 154.4C135.522 157.23 134.887 159.758 133.616 161.982C132.36 164.191 130.627 165.938 128.417 167.224C126.208 168.495 123.695 169.13 120.879 169.13Z" fill="black"/>
<path d="M187 125.523L191.715 140.034H206.972L194.629 149.002L199.343 163.513L187 154.545L174.657 163.513L179.371 149.002L167.028 140.034H182.285L187 125.523Z" fill="#FCBD06"/>
<path d="M229 125.523L233.715 140.034H248.972L236.629 149.002L241.343 163.513L229 154.545L216.657 163.513L221.371 149.002L209.028 140.034H224.285L229 125.523Z" fill="#FCBD06"/>
<path d="M271 125.523L275.715 140.034H290.972L278.629 149.002L283.343 163.513L271 154.545L258.657 163.513L263.371 149.002L251.028 140.034H266.285L271 125.523Z" fill="#FCBD06"/>
<path d="M313 125.523L317.715 140.034H332.972L320.629 149.002L325.343 163.513L313 154.545L300.657 163.513L305.371 149.002L293.028 140.034H308.285L313 125.523Z" fill="#FCBD06"/>
<path d="M360 141.023L355 126.523V154.023L366.5 162.523L362 149.023L373 141.023H360Z" fill="#FCBD06"/>
<path d="M359.239 140.188L359.352 140.534H373.434L362.335 148.598L362.041 148.812L362.153 149.156L366.393 162.203L355.294 154.141L355 153.927L354.706 154.141L343.606 162.203L347.847 149.156L347.959 148.812L347.665 148.598L336.566 140.534H350.648L350.761 140.188L355 127.141L359.239 140.188Z" stroke="#FCBD06"/>
<path d="M51.2017 228.523V210.342H53.4034V226.57H61.8551V228.523H51.2017ZM68.9929 228.843C68.1288 228.843 67.3446 228.68 66.6403 228.355C65.936 228.023 65.3767 227.547 64.9624 226.925C64.5481 226.298 64.3409 225.54 64.3409 224.653C64.3409 223.871 64.4948 223.238 64.8026 222.753C65.1103 222.262 65.5217 221.877 66.0366 221.599C66.5515 221.321 67.1197 221.113 67.7411 220.977C68.3685 220.835 68.9988 220.723 69.6321 220.64C70.4607 220.533 71.1325 220.453 71.6474 220.4C72.1682 220.341 72.547 220.243 72.7837 220.107C73.0264 219.971 73.1477 219.734 73.1477 219.397V219.326C73.1477 218.45 72.908 217.769 72.4286 217.284C71.9551 216.799 71.236 216.556 70.2713 216.556C69.2711 216.556 68.4869 216.775 67.9187 217.213C67.3505 217.651 66.951 218.119 66.7202 218.616L64.7315 217.906C65.0866 217.077 65.5601 216.432 66.152 215.97C66.7498 215.503 67.4008 215.177 68.1051 214.994C68.8153 214.804 69.5137 214.71 70.2003 214.71C70.6383 214.71 71.1413 214.763 71.7095 214.869C72.2836 214.97 72.837 215.18 73.3697 215.5C73.9083 215.819 74.3551 216.302 74.7102 216.947C75.0653 217.592 75.2429 218.456 75.2429 219.539V228.523H73.1477V226.677H73.0412C72.8991 226.973 72.6624 227.289 72.331 227.627C71.9995 227.964 71.5586 228.251 71.0082 228.488C70.4577 228.725 69.786 228.843 68.9929 228.843ZM69.3125 226.961C70.1411 226.961 70.8395 226.798 71.4077 226.473C71.9818 226.147 72.4138 225.727 72.7038 225.212C72.9998 224.697 73.1477 224.156 73.1477 223.587V221.67C73.0589 221.776 72.8636 221.874 72.5618 221.963C72.2659 222.046 71.9226 222.12 71.532 222.185C71.1473 222.244 70.7714 222.297 70.4045 222.344C70.0434 222.386 69.7505 222.421 69.5256 222.451C68.9811 222.522 68.4721 222.637 67.9986 222.797C67.531 222.951 67.1522 223.185 66.8622 223.499C66.5781 223.806 66.4361 224.227 66.4361 224.759C66.4361 225.487 66.7054 226.038 67.244 226.411C67.7885 226.777 68.478 226.961 69.3125 226.961ZM88.7261 217.941L86.844 218.474C86.7256 218.16 86.551 217.855 86.3202 217.559C86.0953 217.257 85.7876 217.009 85.3969 216.814C85.0063 216.618 84.5062 216.521 83.8966 216.521C83.0621 216.521 82.3666 216.713 81.8103 217.098C81.2599 217.476 80.9846 217.959 80.9846 218.545C80.9846 219.066 81.174 219.477 81.5528 219.779C81.9316 220.081 82.5235 220.332 83.3284 220.533L85.3525 221.031C86.5718 221.326 87.4803 221.779 88.078 222.389C88.6758 222.993 88.9747 223.771 88.9747 224.724C88.9747 225.505 88.7498 226.203 88.3 226.819C87.8561 227.434 87.2346 227.92 86.4356 228.275C85.6366 228.63 84.7074 228.808 83.648 228.808C82.2571 228.808 81.106 228.506 80.1945 227.902C79.2831 227.298 78.706 226.416 78.4633 225.256L80.452 224.759C80.6414 225.493 80.9994 226.044 81.5262 226.411C82.0589 226.777 82.7543 226.961 83.6125 226.961C84.589 226.961 85.3644 226.754 85.9385 226.339C86.5185 225.919 86.8085 225.416 86.8085 224.83C86.8085 224.357 86.6428 223.96 86.3113 223.641C85.9799 223.315 85.4709 223.072 84.7844 222.913L82.5116 222.38C81.2628 222.084 80.3454 221.625 79.7595 221.004C79.1795 220.377 78.8895 219.592 78.8895 218.651C78.8895 217.882 79.1055 217.201 79.5376 216.609C79.9755 216.018 80.5703 215.553 81.322 215.216C82.0796 214.878 82.9378 214.71 83.8966 214.71C85.246 214.71 86.3054 215.005 87.0748 215.597C87.8502 216.189 88.4006 216.97 88.7261 217.941ZM98.0589 214.887V216.663H90.9922V214.887H98.0589ZM93.0518 211.62H95.147V224.617C95.147 225.209 95.2328 225.653 95.4045 225.949C95.582 226.239 95.8069 226.434 96.0792 226.535C96.3574 226.629 96.6503 226.677 96.9581 226.677C97.1889 226.677 97.3783 226.665 97.5263 226.641C97.6742 226.612 97.7926 226.588 97.8814 226.57L98.3075 228.452C98.1655 228.506 97.9672 228.559 97.7127 228.612C97.4582 228.671 97.1357 228.701 96.745 228.701C96.1532 228.701 95.5732 228.574 95.005 228.319C94.4427 228.065 93.9751 227.677 93.6023 227.156C93.2353 226.635 93.0518 225.978 93.0518 225.185V211.62ZM114.598 210.342V228.523H112.397V212.65H112.29L107.851 215.597V213.36L112.397 210.342H114.598ZM128.244 233.637C127.888 233.637 127.572 233.607 127.294 233.548C127.016 233.495 126.823 233.442 126.717 233.388L127.249 231.542C127.758 231.672 128.208 231.719 128.599 231.684C128.989 231.648 129.336 231.474 129.637 231.16C129.945 230.852 130.226 230.352 130.481 229.66L130.871 228.594L125.829 214.887H128.102L131.866 225.754H132.008L135.772 214.887H138.045L132.256 230.512C131.996 231.216 131.673 231.799 131.289 232.261C130.904 232.729 130.457 233.075 129.948 233.3C129.445 233.525 128.877 233.637 128.244 233.637ZM146.039 228.808C144.725 228.808 143.592 228.518 142.639 227.938C141.692 227.352 140.961 226.535 140.446 225.487C139.937 224.434 139.683 223.209 139.683 221.812C139.683 220.415 139.937 219.184 140.446 218.119C140.961 217.047 141.677 216.213 142.595 215.615C143.518 215.011 144.595 214.71 145.826 214.71C146.536 214.71 147.238 214.828 147.93 215.065C148.623 215.301 149.253 215.686 149.821 216.219C150.389 216.746 150.842 217.444 151.18 218.314C151.517 219.184 151.686 220.255 151.686 221.528V222.415H141.174V220.604H149.555C149.555 219.835 149.401 219.148 149.093 218.545C148.791 217.941 148.359 217.465 147.797 217.115C147.241 216.766 146.584 216.592 145.826 216.592C144.992 216.592 144.27 216.799 143.66 217.213C143.056 217.621 142.592 218.154 142.266 218.811C141.941 219.468 141.778 220.172 141.778 220.924V222.131C141.778 223.161 141.955 224.034 142.311 224.75C142.672 225.461 143.172 226.002 143.811 226.375C144.45 226.742 145.193 226.925 146.039 226.925C146.59 226.925 147.087 226.848 147.531 226.695C147.981 226.535 148.368 226.298 148.694 225.984C149.019 225.665 149.271 225.268 149.448 224.795L151.472 225.363C151.259 226.049 150.901 226.653 150.398 227.174C149.895 227.689 149.274 228.091 148.534 228.381C147.794 228.665 146.963 228.808 146.039 228.808ZM158.885 228.843C158.021 228.843 157.237 228.68 156.533 228.355C155.829 228.023 155.269 227.547 154.855 226.925C154.441 226.298 154.233 225.54 154.233 224.653C154.233 223.871 154.387 223.238 154.695 222.753C155.003 222.262 155.414 221.877 155.929 221.599C156.444 221.321 157.012 221.113 157.634 220.977C158.261 220.835 158.891 220.723 159.525 220.64C160.353 220.533 161.025 220.453 161.54 220.4C162.061 220.341 162.44 220.243 162.676 220.107C162.919 219.971 163.04 219.734 163.04 219.397V219.326C163.04 218.45 162.801 217.769 162.321 217.284C161.848 216.799 161.129 216.556 160.164 216.556C159.164 216.556 158.379 216.775 157.811 217.213C157.243 217.651 156.844 218.119 156.613 218.616L154.624 217.906C154.979 217.077 155.453 216.432 156.045 215.97C156.642 215.503 157.293 215.177 157.998 214.994C158.708 214.804 159.406 214.71 160.093 214.71C160.531 214.71 161.034 214.763 161.602 214.869C162.176 214.97 162.73 215.18 163.262 215.5C163.801 215.819 164.248 216.302 164.603 216.947C164.958 217.592 165.135 218.456 165.135 219.539V228.523H163.04V226.677H162.934C162.792 226.973 162.555 227.289 162.224 227.627C161.892 227.964 161.451 228.251 160.901 228.488C160.35 228.725 159.679 228.843 158.885 228.843ZM159.205 226.961C160.034 226.961 160.732 226.798 161.3 226.473C161.874 226.147 162.306 225.727 162.596 225.212C162.892 224.697 163.04 224.156 163.04 223.587V221.67C162.952 221.776 162.756 221.874 162.454 221.963C162.158 222.046 161.815 222.12 161.425 222.185C161.04 222.244 160.664 222.297 160.297 222.344C159.936 222.386 159.643 222.421 159.418 222.451C158.874 222.522 158.365 222.637 157.891 222.797C157.424 222.951 157.045 223.185 156.755 223.499C156.471 223.806 156.329 224.227 156.329 224.759C156.329 225.487 156.598 226.038 157.137 226.411C157.681 226.777 158.371 226.961 159.205 226.961ZM168.96 228.523V214.887H170.984V216.947H171.126C171.374 216.272 171.824 215.725 172.475 215.304C173.126 214.884 173.86 214.674 174.677 214.674C174.831 214.674 175.023 214.677 175.254 214.683C175.485 214.689 175.659 214.698 175.778 214.71V216.84C175.707 216.822 175.544 216.796 175.29 216.76C175.041 216.719 174.778 216.698 174.499 216.698C173.837 216.698 173.245 216.837 172.724 217.115C172.209 217.388 171.801 217.766 171.499 218.252C171.203 218.731 171.055 219.279 171.055 219.894V228.523H168.96ZM187.92 217.941L186.038 218.474C185.92 218.16 185.745 217.855 185.515 217.559C185.29 217.257 184.982 217.009 184.591 216.814C184.201 216.618 183.701 216.521 183.091 216.521C182.256 216.521 181.561 216.713 181.005 217.098C180.454 217.476 180.179 217.959 180.179 218.545C180.179 219.066 180.368 219.477 180.747 219.779C181.126 220.081 181.718 220.332 182.523 220.533L184.547 221.031C185.766 221.326 186.675 221.779 187.272 222.389C187.87 222.993 188.169 223.771 188.169 224.724C188.169 225.505 187.944 226.203 187.494 226.819C187.05 227.434 186.429 227.92 185.63 228.275C184.831 228.63 183.902 228.808 182.842 228.808C181.451 228.808 180.3 228.506 179.389 227.902C178.477 227.298 177.9 226.416 177.658 225.256L179.646 224.759C179.836 225.493 180.194 226.044 180.721 226.411C181.253 226.777 181.949 226.961 182.807 226.961C183.783 226.961 184.559 226.754 185.133 226.339C185.713 225.919 186.003 225.416 186.003 224.83C186.003 224.357 185.837 223.96 185.506 223.641C185.174 223.315 184.665 223.072 183.979 222.913L181.706 222.38C180.457 222.084 179.54 221.625 178.954 221.004C178.374 220.377 178.084 219.592 178.084 218.651C178.084 217.882 178.3 217.201 178.732 216.609C179.17 216.018 179.765 215.553 180.516 215.216C181.274 214.878 182.132 214.71 183.091 214.71C184.44 214.71 185.5 215.005 186.269 215.597C187.045 216.189 187.595 216.97 187.92 217.941ZM203.858 233.921C202.846 233.921 201.976 233.791 201.248 233.531C200.52 233.276 199.914 232.939 199.428 232.518C198.949 232.104 198.567 231.66 198.283 231.187L199.952 230.015C200.142 230.263 200.381 230.548 200.671 230.867C200.961 231.193 201.358 231.474 201.861 231.711C202.37 231.953 203.036 232.075 203.858 232.075C204.959 232.075 205.868 231.808 206.584 231.276C207.3 230.743 207.658 229.908 207.658 228.772V226.002H207.481C207.327 226.251 207.108 226.558 206.824 226.925C206.545 227.286 206.143 227.609 205.616 227.893C205.095 228.171 204.391 228.31 203.503 228.31C202.402 228.31 201.414 228.05 200.538 227.529C199.668 227.008 198.979 226.251 198.47 225.256C197.966 224.262 197.715 223.055 197.715 221.634C197.715 220.237 197.961 219.021 198.452 217.985C198.943 216.944 199.627 216.139 200.503 215.571C201.379 214.997 202.391 214.71 203.539 214.71C204.427 214.71 205.131 214.857 205.652 215.153C206.178 215.443 206.581 215.775 206.859 216.148C207.143 216.515 207.362 216.817 207.516 217.053H207.729V214.887H209.753V228.914C209.753 230.086 209.487 231.039 208.954 231.773C208.428 232.513 207.717 233.054 206.824 233.397C205.936 233.747 204.947 233.921 203.858 233.921ZM203.787 226.428C204.628 226.428 205.338 226.236 205.918 225.851C206.498 225.467 206.939 224.913 207.241 224.191C207.543 223.469 207.694 222.605 207.694 221.599C207.694 220.616 207.546 219.749 207.25 218.998C206.954 218.246 206.516 217.657 205.936 217.231C205.356 216.805 204.64 216.592 203.787 216.592C202.9 216.592 202.16 216.817 201.568 217.266C200.982 217.716 200.541 218.32 200.245 219.077C199.955 219.835 199.81 220.675 199.81 221.599C199.81 222.546 199.958 223.383 200.254 224.111C200.556 224.833 201 225.401 201.586 225.816C202.178 226.224 202.911 226.428 203.787 226.428ZM219.128 228.808C217.897 228.808 216.817 228.515 215.888 227.929C214.965 227.343 214.243 226.523 213.722 225.469C213.207 224.416 212.949 223.185 212.949 221.776C212.949 220.356 213.207 219.116 213.722 218.056C214.243 216.997 214.965 216.174 215.888 215.588C216.817 215.002 217.897 214.71 219.128 214.71C220.359 214.71 221.437 215.002 222.36 215.588C223.289 216.174 224.011 216.997 224.526 218.056C225.047 219.116 225.307 220.356 225.307 221.776C225.307 223.185 225.047 224.416 224.526 225.469C224.011 226.523 223.289 227.343 222.36 227.929C221.437 228.515 220.359 228.808 219.128 228.808ZM219.128 226.925C220.063 226.925 220.833 226.686 221.437 226.206C222.04 225.727 222.487 225.097 222.777 224.315C223.067 223.534 223.212 222.688 223.212 221.776C223.212 220.865 223.067 220.016 222.777 219.228C222.487 218.441 222.04 217.805 221.437 217.32C220.833 216.834 220.063 216.592 219.128 216.592C218.193 216.592 217.424 216.834 216.82 217.32C216.216 217.805 215.77 218.441 215.479 219.228C215.189 220.016 215.044 220.865 215.044 221.776C215.044 222.688 215.189 223.534 215.479 224.315C215.77 225.097 216.216 225.727 216.82 226.206C217.424 226.686 218.193 226.925 219.128 226.925ZM234.045 228.808C232.814 228.808 231.734 228.515 230.805 227.929C229.882 227.343 229.16 226.523 228.639 225.469C228.124 224.416 227.866 223.185 227.866 221.776C227.866 220.356 228.124 219.116 228.639 218.056C229.16 216.997 229.882 216.174 230.805 215.588C231.734 215.002 232.814 214.71 234.045 214.71C235.276 214.71 236.354 215.002 237.277 215.588C238.206 216.174 238.928 216.997 239.443 218.056C239.964 219.116 240.224 220.356 240.224 221.776C240.224 223.185 239.964 224.416 239.443 225.469C238.928 226.523 238.206 227.343 237.277 227.929C236.354 228.515 235.276 228.808 234.045 228.808ZM234.045 226.925C234.98 226.925 235.75 226.686 236.354 226.206C236.957 225.727 237.404 225.097 237.694 224.315C237.984 223.534 238.129 222.688 238.129 221.776C238.129 220.865 237.984 220.016 237.694 219.228C237.404 218.441 236.957 217.805 236.354 217.32C235.75 216.834 234.98 216.592 234.045 216.592C233.11 216.592 232.341 216.834 231.737 217.32C231.133 217.805 230.686 218.441 230.396 219.228C230.106 220.016 229.961 220.865 229.961 221.776C229.961 222.688 230.106 223.534 230.396 224.315C230.686 225.097 231.133 225.727 231.737 226.206C232.341 226.686 233.11 226.925 234.045 226.925ZM248.927 233.921C247.915 233.921 247.045 233.791 246.317 233.531C245.589 233.276 244.982 232.939 244.497 232.518C244.017 232.104 243.636 231.66 243.351 231.187L245.021 230.015C245.21 230.263 245.45 230.548 245.74 230.867C246.03 231.193 246.426 231.474 246.929 231.711C247.438 231.953 248.104 232.075 248.927 232.075C250.028 232.075 250.936 231.808 251.652 231.276C252.368 230.743 252.726 229.908 252.726 228.772V226.002H252.549C252.395 226.251 252.176 226.558 251.892 226.925C251.614 227.286 251.211 227.609 250.685 227.893C250.164 228.171 249.459 228.31 248.572 228.31C247.471 228.31 246.482 228.05 245.606 227.529C244.736 227.008 244.047 226.251 243.538 225.256C243.035 224.262 242.783 223.055 242.783 221.634C242.783 220.237 243.029 219.021 243.52 217.985C244.011 216.944 244.695 216.139 245.571 215.571C246.447 214.997 247.459 214.71 248.607 214.71C249.495 214.71 250.199 214.857 250.72 215.153C251.247 215.443 251.649 215.775 251.927 216.148C252.212 216.515 252.431 216.817 252.584 217.053H252.797V214.887H254.822V228.914C254.822 230.086 254.555 231.039 254.023 231.773C253.496 232.513 252.786 233.054 251.892 233.397C251.004 233.747 250.016 233.921 248.927 233.921ZM248.856 226.428C249.696 226.428 250.406 226.236 250.986 225.851C251.566 225.467 252.007 224.913 252.309 224.191C252.611 223.469 252.762 222.605 252.762 221.599C252.762 220.616 252.614 219.749 252.318 218.998C252.022 218.246 251.584 217.657 251.004 217.231C250.424 216.805 249.708 216.592 248.856 216.592C247.968 216.592 247.228 216.817 246.636 217.266C246.05 217.716 245.609 218.32 245.313 219.077C245.023 219.835 244.878 220.675 244.878 221.599C244.878 222.546 245.026 223.383 245.322 224.111C245.624 224.833 246.068 225.401 246.654 225.816C247.246 226.224 247.98 226.428 248.856 226.428ZM260.752 210.342V228.523H258.657V210.342H260.752ZM270.307 228.808C268.993 228.808 267.859 228.518 266.907 227.938C265.96 227.352 265.229 226.535 264.714 225.487C264.205 224.434 263.95 223.209 263.95 221.812C263.95 220.415 264.205 219.184 264.714 218.119C265.229 217.047 265.945 216.213 266.862 215.615C267.786 215.011 268.863 214.71 270.094 214.71C270.804 214.71 271.505 214.828 272.198 215.065C272.89 215.301 273.521 215.686 274.089 216.219C274.657 216.746 275.11 217.444 275.447 218.314C275.784 219.184 275.953 220.255 275.953 221.528V222.415H265.442V220.604H273.822C273.822 219.835 273.669 219.148 273.361 218.545C273.059 217.941 272.627 217.465 272.065 217.115C271.508 216.766 270.851 216.592 270.094 216.592C269.259 216.592 268.537 216.799 267.928 217.213C267.324 217.621 266.859 218.154 266.534 218.811C266.208 219.468 266.045 220.172 266.045 220.924V222.131C266.045 223.161 266.223 224.034 266.578 224.75C266.939 225.461 267.439 226.002 268.078 226.375C268.718 226.742 269.46 226.925 270.307 226.925C270.857 226.925 271.354 226.848 271.798 226.695C272.248 226.535 272.636 226.298 272.961 225.984C273.287 225.665 273.538 225.268 273.716 224.795L275.74 225.363C275.527 226.049 275.169 226.653 274.666 227.174C274.163 227.689 273.541 228.091 272.801 228.381C272.062 228.665 271.23 228.808 270.307 228.808ZM286.172 228.523V214.887H288.196V216.947H288.338C288.586 216.272 289.036 215.725 289.687 215.304C290.338 214.884 291.072 214.674 291.889 214.674C292.043 214.674 292.235 214.677 292.466 214.683C292.697 214.689 292.871 214.698 292.99 214.71V216.84C292.919 216.822 292.756 216.796 292.501 216.76C292.253 216.719 291.989 216.698 291.711 216.698C291.048 216.698 290.457 216.837 289.936 217.115C289.421 217.388 289.012 217.766 288.711 218.252C288.415 218.731 288.267 219.279 288.267 219.894V228.523H286.172ZM299.486 228.843C298.622 228.843 297.838 228.68 297.133 228.355C296.429 228.023 295.87 227.547 295.456 226.925C295.041 226.298 294.834 225.54 294.834 224.653C294.834 223.871 294.988 223.238 295.296 222.753C295.603 222.262 296.015 221.877 296.53 221.599C297.045 221.321 297.613 221.113 298.234 220.977C298.862 220.835 299.492 220.723 300.125 220.64C300.954 220.533 301.626 220.453 302.141 220.4C302.661 220.341 303.04 220.243 303.277 220.107C303.52 219.971 303.641 219.734 303.641 219.397V219.326C303.641 218.45 303.401 217.769 302.922 217.284C302.448 216.799 301.729 216.556 300.764 216.556C299.764 216.556 298.98 216.775 298.412 217.213C297.844 217.651 297.444 218.119 297.213 218.616L295.225 217.906C295.58 217.077 296.053 216.432 296.645 215.97C297.243 215.503 297.894 215.177 298.598 214.994C299.309 214.804 300.007 214.71 300.693 214.71C301.131 214.71 301.634 214.763 302.203 214.869C302.777 214.97 303.33 215.18 303.863 215.5C304.401 215.819 304.848 216.302 305.203 216.947C305.559 217.592 305.736 218.456 305.736 219.539V228.523H303.641V226.677H303.534C303.392 226.973 303.156 227.289 302.824 227.627C302.493 227.964 302.052 228.251 301.501 228.488C300.951 228.725 300.279 228.843 299.486 228.843ZM299.806 226.961C300.634 226.961 301.333 226.798 301.901 226.473C302.475 226.147 302.907 225.727 303.197 225.212C303.493 224.697 303.641 224.156 303.641 223.587V221.67C303.552 221.776 303.357 221.874 303.055 221.963C302.759 222.046 302.416 222.12 302.025 222.185C301.64 222.244 301.265 222.297 300.898 222.344C300.537 222.386 300.244 222.421 300.019 222.451C299.474 222.522 298.965 222.637 298.492 222.797C298.024 222.951 297.645 223.185 297.355 223.499C297.071 223.806 296.929 224.227 296.929 224.759C296.929 225.487 297.199 226.038 297.737 226.411C298.282 226.777 298.971 226.961 299.806 226.961ZM315.491 214.887V216.663H308.424V214.887H315.491ZM310.483 211.62H312.579V224.617C312.579 225.209 312.664 225.653 312.836 225.949C313.014 226.239 313.239 226.434 313.511 226.535C313.789 226.629 314.082 226.677 314.39 226.677C314.621 226.677 314.81 226.665 314.958 226.641C315.106 226.612 315.224 226.588 315.313 226.57L315.739 228.452C315.597 228.506 315.399 228.559 315.144 228.612C314.89 228.671 314.567 228.701 314.177 228.701C313.585 228.701 313.005 228.574 312.437 228.319C311.874 228.065 311.407 227.677 311.034 227.156C310.667 226.635 310.483 225.978 310.483 225.185V211.62ZM318.642 228.523V214.887H320.737V228.523H318.642ZM319.708 212.614C319.299 212.614 318.947 212.475 318.651 212.197C318.361 211.919 318.216 211.585 318.216 211.194C318.216 210.803 318.361 210.469 318.651 210.191C318.947 209.913 319.299 209.773 319.708 209.773C320.116 209.773 320.465 209.913 320.755 210.191C321.051 210.469 321.199 210.803 321.199 211.194C321.199 211.585 321.051 211.919 320.755 212.197C320.465 212.475 320.116 212.614 319.708 212.614ZM326.67 220.32V228.523H324.575V214.887H326.599V217.018H326.777C327.096 216.325 327.581 215.769 328.233 215.349C328.884 214.923 329.724 214.71 330.754 214.71C331.677 214.71 332.485 214.899 333.177 215.278C333.87 215.651 334.409 216.219 334.793 216.982C335.178 217.74 335.37 218.699 335.37 219.859V228.523H333.275V220.001C333.275 218.929 332.997 218.095 332.441 217.497C331.884 216.893 331.121 216.592 330.15 216.592C329.481 216.592 328.884 216.737 328.357 217.027C327.836 217.317 327.425 217.74 327.123 218.296C326.821 218.853 326.67 219.527 326.67 220.32ZM344.703 233.921C343.691 233.921 342.821 233.791 342.093 233.531C341.365 233.276 340.758 232.939 340.273 232.518C339.794 232.104 339.412 231.66 339.128 231.187L340.797 230.015C340.986 230.263 341.226 230.548 341.516 230.867C341.806 231.193 342.203 231.474 342.706 231.711C343.215 231.953 343.88 232.075 344.703 232.075C345.804 232.075 346.712 231.808 347.429 231.276C348.145 230.743 348.503 229.908 348.503 228.772V226.002H348.325C348.171 226.251 347.952 226.558 347.668 226.925C347.39 227.286 346.988 227.609 346.461 227.893C345.94 228.171 345.236 228.31 344.348 228.31C343.247 228.31 342.259 228.05 341.383 227.529C340.513 227.008 339.823 226.251 339.314 225.256C338.811 224.262 338.56 223.055 338.56 221.634C338.56 220.237 338.805 219.021 339.297 217.985C339.788 216.944 340.471 216.139 341.347 215.571C342.223 214.997 343.235 214.71 344.384 214.71C345.271 214.71 345.976 214.857 346.496 215.153C347.023 215.443 347.426 215.775 347.704 216.148C347.988 216.515 348.207 216.817 348.361 217.053H348.574V214.887H350.598V228.914C350.598 230.086 350.332 231.039 349.799 231.773C349.272 232.513 348.562 233.054 347.668 233.397C346.781 233.747 345.792 233.921 344.703 233.921ZM344.632 226.428C345.473 226.428 346.183 226.236 346.763 225.851C347.343 225.467 347.784 224.913 348.086 224.191C348.387 223.469 348.538 222.605 348.538 221.599C348.538 220.616 348.39 219.749 348.094 218.998C347.799 218.246 347.361 217.657 346.781 217.231C346.201 216.805 345.484 216.592 344.632 216.592C343.744 216.592 343.004 216.817 342.413 217.266C341.827 217.716 341.386 218.32 341.09 219.077C340.8 219.835 340.655 220.675 340.655 221.599C340.655 222.546 340.803 223.383 341.099 224.111C341.401 224.833 341.844 225.401 342.43 225.816C343.022 226.224 343.756 226.428 344.632 226.428Z" fill="#A0A0A0"/>
<path d="M49 276.523H373" stroke="#21DC1F" stroke-width="4" stroke-linecap="round"/>
<path d="M395.392 285.523V283.542L402.834 275.396C403.708 274.442 404.427 273.612 404.992 272.908C405.557 272.196 405.975 271.528 406.247 270.904C406.526 270.273 406.665 269.612 406.665 268.923C406.665 268.13 406.474 267.444 406.093 266.864C405.718 266.284 405.205 265.837 404.551 265.521C403.898 265.205 403.164 265.048 402.35 265.048C401.484 265.048 400.728 265.227 400.082 265.587C399.444 265.939 398.948 266.435 398.596 267.073C398.251 267.712 398.078 268.46 398.078 269.319H395.48C395.48 267.998 395.785 266.838 396.394 265.84C397.003 264.842 397.833 264.064 398.882 263.506C399.939 262.949 401.124 262.67 402.438 262.67C403.759 262.67 404.929 262.949 405.95 263.506C406.97 264.064 407.77 264.816 408.349 265.763C408.929 266.71 409.219 267.763 409.219 268.923C409.219 269.752 409.069 270.563 408.768 271.355C408.474 272.141 407.96 273.018 407.227 273.987C406.5 274.948 405.491 276.122 404.199 277.509L399.135 282.925V283.102H409.615V285.523H395.392ZM421.78 285.832C420.327 285.832 419.031 285.582 417.894 285.083C416.764 284.584 415.865 283.891 415.197 283.002C414.536 282.107 414.177 281.069 414.118 279.887H416.892C416.951 280.614 417.2 281.241 417.641 281.77C418.081 282.291 418.657 282.694 419.369 282.98C420.081 283.267 420.87 283.41 421.736 283.41C422.705 283.41 423.563 283.241 424.312 282.903C425.06 282.566 425.647 282.096 426.073 281.494C426.499 280.893 426.712 280.195 426.712 279.403C426.712 278.573 426.506 277.843 426.095 277.212C425.684 276.574 425.082 276.074 424.29 275.715C423.497 275.355 422.528 275.175 421.384 275.175H419.578V272.754H421.384C422.279 272.754 423.064 272.592 423.739 272.269C424.422 271.946 424.954 271.491 425.336 270.904C425.725 270.317 425.919 269.627 425.919 268.835C425.919 268.071 425.75 267.407 425.413 266.842C425.075 266.277 424.598 265.837 423.982 265.521C423.372 265.205 422.653 265.048 421.824 265.048C421.046 265.048 420.312 265.191 419.622 265.477C418.94 265.756 418.382 266.163 417.949 266.699C417.516 267.227 417.281 267.866 417.244 268.614H414.602C414.646 267.433 415.002 266.398 415.67 265.51C416.338 264.615 417.211 263.917 418.29 263.418C419.376 262.919 420.569 262.67 421.868 262.67C423.262 262.67 424.459 262.952 425.457 263.517C426.455 264.075 427.222 264.813 427.757 265.73C428.293 266.647 428.561 267.638 428.561 268.702C428.561 269.972 428.227 271.055 427.559 271.95C426.899 272.845 426 273.465 424.862 273.81V273.987C426.286 274.221 427.398 274.827 428.198 275.803C428.998 276.772 429.398 277.972 429.398 279.403C429.398 280.628 429.064 281.729 428.396 282.705C427.735 283.674 426.833 284.437 425.688 284.995C424.543 285.553 423.24 285.832 421.78 285.832ZM441.254 285.832C439.595 285.832 438.183 285.38 437.016 284.478C435.849 283.568 434.957 282.25 434.341 280.526C433.724 278.794 433.416 276.702 433.416 274.251C433.416 271.814 433.724 269.734 434.341 268.009C434.964 266.277 435.86 264.956 437.027 264.046C438.201 263.128 439.61 262.67 441.254 262.67C442.898 262.67 444.303 263.128 445.47 264.046C446.644 264.956 447.54 266.277 448.156 268.009C448.78 269.734 449.092 271.814 449.092 274.251C449.092 276.702 448.784 278.794 448.167 280.526C447.551 282.25 446.659 283.568 445.492 284.478C444.325 285.38 442.913 285.832 441.254 285.832ZM441.254 283.41C442.898 283.41 444.175 282.617 445.085 281.032C445.995 279.447 446.45 277.186 446.45 274.251C446.45 272.299 446.241 270.636 445.822 269.264C445.411 267.891 444.817 266.846 444.039 266.126C443.268 265.407 442.34 265.048 441.254 265.048C439.625 265.048 438.351 265.851 437.434 267.458C436.517 269.058 436.058 271.322 436.058 274.251C436.058 276.203 436.263 277.862 436.674 279.227C437.085 280.592 437.676 281.63 438.447 282.342C439.225 283.054 440.16 283.41 441.254 283.41Z" fill="black"/>
</g>
<defs>
<filter id="filter0_dddd_6247_24294" x="0" y="0" width="493" height="404.523" filterUnits="userSpaceOnUse" color-interpolation-filters="sRGB">
<feFlood flood-opacity="0" result="BackgroundImageFix"/>
<feColorMatrix in="SourceAlpha" type="matrix" values="0 0 0 0 0 0 0 0 0 0 0 0 0 0 0 0 0 0 127 0" result="hardAlpha"/>
<feOffset dy="4"/>
<feGaussianBlur stdDeviation="4"/>
<feColorMatrix type="matrix" values="0 0 0 0 0.8 0 0 0 0 0.8 0 0 0 0 0.8 0 0 0 0.1 0"/>
<feBlend mode="normal" in2="BackgroundImageFix" result="effect1_dropShadow_6247_24294"/>
<feColorMatrix in="SourceAlpha" type="matrix" values="0 0 0 0 0 0 0 0 0 0 0 0 0 0 0 0 0 0 127 0" result="hardAlpha"/>
<feOffset dy="15"/>
<feGaussianBlur stdDeviation="7.5"/>
<feColorMatrix type="matrix" values="0 0 0 0 0.8 0 0 0 0 0.8 0 0 0 0 0.8 0 0 0 0.09 0"/>
<feBlend mode="normal" in2="effect1_dropShadow_6247_24294" result="effect2_dropShadow_6247_24294"/>
<feColorMatrix in="SourceAlpha" type="matrix" values="0 0 0 0 0 0 0 0 0 0 0 0 0 0 0 0 0 0 127 0" result="hardAlpha"/>
<feOffset dy="35"/>
<feGaussianBlur stdDeviation="10.5"/>
<feColorMatrix type="matrix" values="0 0 0 0 0.8 0 0 0 0 0.8 0 0 0 0 0.8 0 0 0 0.05 0"/>
<feBlend mode="normal" in2="effect2_dropShadow_6247_24294" result="effect3_dropShadow_6247_24294"/>
<feColorMatrix in="SourceAlpha" type="matrix" values="0 0 0 0 0 0 0 0 0 0 0 0 0 0 0 0 0 0 127 0" result="hardAlpha"/>
<feOffset dy="62"/>
<feGaussianBlur stdDeviation="12.5"/>
<feColorMatrix type="matrix" values="0 0 0 0 0.8 0 0 0 0 0.8 0 0 0 0 0.8 0 0 0 0.01 0"/>
<feBlend mode="normal" in2="effect3_dropShadow_6247_24294" result="effect4_dropShadow_6247_24294"/>
<feBlend mode="normal" in="SourceGraphic" in2="effect4_dropShadow_6247_24294" result="shape"/>
</filter>
<clipPath id="clip0_6247_24294">
<rect width="24.4834" height="23.5233" fill="white" transform="translate(417 36)"/>
</clipPath>
</defs>
</svg>
