<svg width="53" height="12" viewBox="0 0 53 12" fill="none" xmlns="http://www.w3.org/2000/svg">
<path d="M0.316 11V0.569999H3.816C4.47867 0.569999 5.062 0.700666 5.566 0.962C6.07 1.22333 6.462 1.592 6.742 2.068C7.03133 2.544 7.176 3.09467 7.176 3.72C7.176 4.46667 6.97067 5.106 6.56 5.638C6.15867 6.16067 5.61733 6.52 4.936 6.716L7.4 11H6.322L3.732 6.436L4.488 6.87H1.226V11H0.316ZM1.226 6.03H3.844C4.32 6.03 4.74 5.93667 5.104 5.75C5.468 5.554 5.75267 5.28333 5.958 4.938C6.16333 4.58333 6.266 4.17267 6.266 3.706C6.266 3.23933 6.16333 2.838 5.958 2.502C5.75267 2.15667 5.468 1.89067 5.104 1.704C4.74 1.508 4.32 1.41 3.844 1.41H1.226V6.03ZM12.0679 11.168C11.3679 11.168 10.7379 11 10.1779 10.664C9.61791 10.3187 9.17457 9.852 8.84791 9.264C8.52124 8.66667 8.35791 7.99933 8.35791 7.262C8.35791 6.52467 8.51657 5.86667 8.83391 5.288C9.15124 4.7 9.58057 4.238 10.1219 3.902C10.6632 3.566 11.2699 3.398 11.9419 3.398C12.4552 3.398 12.9172 3.49133 13.3279 3.678C13.7479 3.86467 14.1072 4.126 14.4059 4.462C14.7139 4.78867 14.9472 5.16667 15.1059 5.596C15.2739 6.016 15.3579 6.45933 15.3579 6.926C15.3579 7.01933 15.3532 7.11733 15.3439 7.22C15.3346 7.32267 15.3206 7.43 15.3019 7.542H8.84791V6.772H14.8259L14.4479 7.066C14.5039 6.52467 14.4246 6.03933 14.2099 5.61C13.9952 5.17133 13.6872 4.826 13.2859 4.574C12.8939 4.31267 12.4459 4.182 11.9419 4.182C11.4379 4.182 10.9759 4.31733 10.5559 4.588C10.1359 4.84933 9.80457 5.21333 9.56191 5.68C9.31924 6.13733 9.20724 6.66933 9.22591 7.276C9.20724 7.88267 9.32391 8.41933 9.57591 8.886C9.82791 9.35267 10.1732 9.72133 10.6119 9.992C11.0506 10.2533 11.5359 10.384 12.0679 10.384C12.6092 10.384 13.0806 10.258 13.4819 10.006C13.8832 9.74467 14.2099 9.39933 14.4619 8.97L15.1759 9.348C15.0079 9.69333 14.7699 10.006 14.4619 10.286C14.1539 10.5567 13.7946 10.7713 13.3839 10.93C12.9826 11.0887 12.5439 11.168 12.0679 11.168ZM19.2405 11L16.3005 3.566H17.2385L19.8425 10.258H19.5205L22.1245 3.566H23.0905L20.1085 11H19.2405ZM24.4706 11V3.566H25.3106V11H24.4706ZM24.4706 2.11V0.569999H25.3106V2.11H24.4706ZM31.0171 11.168C30.3171 11.168 29.6871 11 29.1271 10.664C28.5671 10.3187 28.1238 9.852 27.7971 9.264C27.4705 8.66667 27.3071 7.99933 27.3071 7.262C27.3071 6.52467 27.4658 5.86667 27.7831 5.288C28.1005 4.7 28.5298 4.238 29.0711 3.902C29.6125 3.566 30.2191 3.398 30.8911 3.398C31.4045 3.398 31.8665 3.49133 32.2771 3.678C32.6971 3.86467 33.0565 4.126 33.3551 4.462C33.6631 4.78867 33.8965 5.16667 34.0551 5.596C34.2231 6.016 34.3071 6.45933 34.3071 6.926C34.3071 7.01933 34.3025 7.11733 34.2931 7.22C34.2838 7.32267 34.2698 7.43 34.2511 7.542H27.7971V6.772H33.7751L33.3971 7.066C33.4531 6.52467 33.3738 6.03933 33.1591 5.61C32.9445 5.17133 32.6365 4.826 32.2351 4.574C31.8431 4.31267 31.3951 4.182 30.8911 4.182C30.3871 4.182 29.9251 4.31733 29.5051 4.588C29.0851 4.84933 28.7538 5.21333 28.5111 5.68C28.2685 6.13733 28.1565 6.66933 28.1751 7.276C28.1565 7.88267 28.2731 8.41933 28.5251 8.886C28.7771 9.35267 29.1225 9.72133 29.5611 9.992C29.9998 10.2533 30.4851 10.384 31.0171 10.384C31.5585 10.384 32.0298 10.258 32.4311 10.006C32.8325 9.74467 33.1591 9.39933 33.4111 8.97L34.1251 9.348C33.9571 9.69333 33.7191 10.006 33.4111 10.286C33.1031 10.5567 32.7438 10.7713 32.3331 10.93C31.9318 11.0887 31.4931 11.168 31.0171 11.168ZM37.9344 11L35.3864 3.566H36.3244L38.5504 10.3H38.1864L40.2024 3.566H41.0564L43.0724 10.3H42.7084L44.9484 3.566H45.8864L43.3244 11H42.4704L40.5244 4.504H40.7344L38.7884 11H37.9344ZM49.7813 11.168C49.0906 11.168 48.4839 10.9953 47.9613 10.65C47.4386 10.3047 47.0559 9.83333 46.8133 9.236L47.5413 8.9C47.7746 9.35733 48.0873 9.72133 48.4793 9.992C48.8713 10.2533 49.3053 10.384 49.7813 10.384C50.2666 10.384 50.6726 10.2673 50.9993 10.034C51.3353 9.79133 51.5033 9.474 51.5033 9.082C51.5033 8.83933 51.4379 8.634 51.3073 8.466C51.1859 8.298 51.0273 8.16267 50.8313 8.06C50.6353 7.948 50.4253 7.864 50.2013 7.808L49.0533 7.486C48.4093 7.30867 47.9333 7.04733 47.6253 6.702C47.3266 6.35667 47.1773 5.95067 47.1773 5.484C47.1773 5.064 47.2846 4.7 47.4993 4.392C47.7139 4.07467 48.0033 3.832 48.3673 3.664C48.7313 3.48667 49.1326 3.398 49.5713 3.398C50.1873 3.398 50.7473 3.55667 51.2513 3.874C51.7553 4.19133 52.1099 4.62067 52.3153 5.162L51.5593 5.512C51.3633 5.092 51.0879 4.76533 50.7333 4.532C50.3786 4.28933 49.9866 4.168 49.5573 4.168C49.1093 4.168 48.7453 4.28933 48.4653 4.532C48.1853 4.76533 48.0453 5.064 48.0453 5.428C48.0453 5.66133 48.1013 5.85733 48.2133 6.016C48.3253 6.16533 48.4699 6.29133 48.6473 6.394C48.8339 6.48733 49.0253 6.562 49.2213 6.618L50.4673 6.982C51.0739 7.15 51.5406 7.416 51.8673 7.78C52.2033 8.144 52.3713 8.57333 52.3713 9.068C52.3713 9.46933 52.2593 9.82867 52.0353 10.146C51.8113 10.4633 51.5033 10.7153 51.1113 10.902C50.7193 11.0793 50.2759 11.168 49.7813 11.168Z" fill="#57736A"/>
</svg>
