<svg width="24" height="24" viewBox="0 0 24 24" fill="none" xmlns="http://www.w3.org/2000/svg">
<path d="M7.89037 7.84622C7.97363 7.78963 8.04464 7.71685 8.09917 7.63224C8.15371 7.54762 8.19064 7.45289 8.20779 7.35369C8.22494 7.25449 8.22193 7.15286 8.19897 7.05485C8.176 6.95683 8.13354 6.86445 8.07411 6.78319C8.01468 6.70194 7.9395 6.63348 7.85305 6.5819C7.7666 6.53031 7.67065 6.49666 7.57092 6.48295C7.47119 6.46923 7.36972 6.47574 7.27256 6.50207C7.1754 6.5284 7.08453 6.57403 7.00537 6.63622L7.89037 7.84622ZM4.25037 18.0002L3.50937 18.1182C3.53608 18.2833 3.61722 18.4348 3.73988 18.5485C3.86254 18.6622 4.0197 18.7316 4.18636 18.7458C4.35302 18.7599 4.51962 18.7179 4.65969 18.6265C4.79975 18.5351 4.90524 18.3995 4.95937 18.2412L4.25037 18.0002ZM10.5324 13.4392C10.7209 13.3756 10.8765 13.2396 10.9648 13.0613C11.0532 12.8829 11.067 12.6768 11.0034 12.4882C10.9397 12.2997 10.8038 12.1441 10.6254 12.0558C10.4471 11.9674 10.2409 11.9536 10.0524 12.0172L10.5324 13.4392ZM13.8744 4.16122L14.1174 4.46722L15.2934 3.53622L15.0504 3.23022L13.8744 4.16122ZM16.0444 5.48622L16.4244 5.50922L16.5174 4.01222L16.1374 3.98922L16.0444 5.48622ZM17.3614 7.44222L17.1584 7.77222L18.4354 8.55922L18.6394 8.22922L17.3614 7.44222ZM16.8414 9.94222L16.9404 10.3222L18.3914 9.94322L18.2914 9.56222L16.8414 9.94222ZM15.5354 11.8352L15.1674 11.7332L14.7674 13.1792L15.1344 13.2812L15.5354 11.8352ZM13.0224 12.0772L12.7044 12.2892L13.5364 13.5372L13.8544 13.3252L13.0224 12.0772ZM10.8984 11.2912L10.8744 10.8982L9.37637 10.9902L9.40137 11.3832L10.8984 11.2912ZM9.89537 8.93722L9.59937 8.68722L8.63137 9.83222L8.92737 10.0822L9.89537 8.93722ZM9.88837 6.55722L10.2414 6.41622L9.68437 5.02322L9.33137 5.16422L9.88837 6.55722ZM11.7544 4.84722L11.8894 4.48022L10.4814 3.96222L10.3474 4.32822L11.7544 4.84722ZM10.2414 6.41622C10.5684 6.28622 10.9474 6.15022 11.2274 5.85922L10.1454 4.81922C10.1544 4.81122 10.1504 4.82122 10.0824 4.85522C9.95177 4.91598 9.81901 4.97202 9.68437 5.02322L10.2414 6.41622ZM10.3474 4.32822C10.2978 4.46891 10.2438 4.60798 10.1854 4.74522C10.1504 4.82022 10.1384 4.82722 10.1454 4.81922L11.2274 5.85922C11.5044 5.57122 11.6294 5.18722 11.7544 4.84722L10.3474 4.32822ZM9.59937 8.68622C9.00837 8.18622 8.63137 7.86622 8.40037 7.60422C8.33227 7.53334 8.27499 7.45281 8.23037 7.36522C8.22371 7.34922 8.22137 7.34255 8.22337 7.34522V7.35122L6.73937 7.13522C6.64937 7.74522 6.94937 8.22622 7.27537 8.59722C7.59637 8.96022 8.07737 9.36422 8.63137 9.83222L9.59937 8.68622ZM9.33037 5.16422C8.67237 5.42722 8.09637 5.65422 7.68337 5.89822C7.25837 6.14822 6.82937 6.51822 6.73937 7.13522L8.22337 7.35122L8.21937 7.36122L8.22637 7.35222C8.29043 7.2875 8.36393 7.23288 8.44437 7.19022C8.73437 7.02022 9.18237 6.83922 9.88837 6.55722L9.33037 5.16422ZM10.8724 10.8982C10.8504 10.5292 10.8394 10.1302 10.6624 9.77522L9.31937 10.4432L9.32437 10.4582C9.32904 10.4702 9.33404 10.4969 9.33937 10.5382C9.35337 10.6342 9.36137 10.7632 9.37537 10.9902L10.8724 10.8982ZM8.92637 10.0822C9.09637 10.2272 9.19237 10.3082 9.25937 10.3752C9.28804 10.4039 9.30571 10.4229 9.31237 10.4322L9.31937 10.4432L10.6624 9.77522C10.4844 9.41722 10.1724 9.17122 9.89437 8.93722L8.92637 10.0822ZM12.7024 12.2892C12.0664 12.7132 11.6624 12.9792 11.3584 13.1222C11.0624 13.2602 11.0664 13.1822 11.1334 13.2172L10.4304 14.5422C10.9924 14.8402 11.5504 14.6872 11.9924 14.4822C12.4254 14.2792 12.9424 13.9322 13.5344 13.5372L12.7024 12.2892ZM9.40037 11.3832C9.44537 12.1192 9.48337 12.7532 9.58137 13.2322C9.68037 13.7122 9.88037 14.2512 10.4304 14.5422L11.1334 13.2172C11.1894 13.2472 11.1214 13.2742 11.0504 12.9292C10.9784 12.5812 10.9474 12.0762 10.8984 11.2912L9.40037 11.3832ZM15.1674 11.7332C14.8294 11.6402 14.4404 11.5152 14.0414 11.5792L14.2794 13.0602C14.2634 13.0632 14.2704 13.0562 14.3464 13.0702C14.4344 13.0882 14.5524 13.1202 14.7664 13.1792L15.1674 11.7332ZM13.8534 13.3252C14.0374 13.2022 14.1394 13.1352 14.2184 13.0912C14.2854 13.0542 14.2944 13.0582 14.2784 13.0612L14.0414 11.5792C13.6424 11.6432 13.3134 11.8822 13.0214 12.0772L13.8534 13.3252ZM16.9394 10.3232C17.1374 11.0832 17.2644 11.5732 17.3044 11.9262C17.3444 12.2762 17.2704 12.2712 17.3144 12.2262L18.3954 13.2662C18.8264 12.8172 18.8504 12.2422 18.7954 11.7562C18.7394 11.2712 18.5764 10.6562 18.3904 9.94322L16.9394 10.3232ZM15.1334 13.2822C15.8194 13.4722 16.4194 13.6392 16.8934 13.6962C17.3784 13.7542 17.9554 13.7242 18.3954 13.2662L17.3144 12.2262C17.3664 12.1722 17.3944 12.2452 17.0714 12.2062C16.7374 12.1662 16.2714 12.0392 15.5344 11.8362L15.1334 13.2822ZM17.1574 7.77222C16.9674 8.08222 16.7474 8.41222 16.6894 8.80822L18.1734 9.02522L18.1774 9.01122L18.2094 8.94122C18.28 8.81114 18.3554 8.68372 18.4354 8.55922L17.1574 7.77222ZM18.2914 9.56222C18.251 9.41675 18.2143 9.27 18.1834 9.12222L18.1734 9.04022V9.02522L16.6894 8.80822C16.6314 9.20122 16.7464 9.58422 16.8394 9.94122L18.2914 9.56222ZM16.4244 5.50922C17.1834 5.55722 17.6634 5.58922 17.9914 5.66022C18.0809 5.67575 18.1675 5.70475 18.2484 5.74622C18.259 5.75355 18.2624 5.75555 18.2584 5.75222L18.2524 5.74322L19.5944 5.07522C19.3164 4.51622 18.7924 4.30022 18.3104 4.19522C17.8424 4.09322 17.2244 4.05622 16.5174 4.01222L16.4244 5.50922ZM18.6394 8.22922C19.0194 7.61122 19.3484 7.07722 19.5404 6.63122C19.7354 6.17722 19.8704 5.62822 19.5944 5.07522L18.2514 5.74322L18.2504 5.73822V5.75922C18.235 5.85637 18.2053 5.95072 18.1624 6.03922C18.0244 6.35922 17.7674 6.78322 17.3614 7.44222L18.6394 8.22922ZM14.1174 4.46722C14.3414 4.75122 14.5804 5.07722 14.9324 5.26522L15.6354 3.94022C15.6454 3.94522 15.6324 3.94222 15.5754 3.88222C15.4774 3.76993 15.383 3.65454 15.2924 3.53622L14.1174 4.46722ZM16.1374 3.98922C15.9937 3.98271 15.8492 3.97104 15.7064 3.95422C15.6324 3.94322 15.6244 3.93422 15.6354 3.94022L14.9324 5.26522C15.2894 5.45522 15.6934 5.46422 16.0434 5.48522L16.1374 3.98922ZM15.0504 3.23022C14.5984 2.65822 14.2074 2.16122 13.8554 1.83022C13.5024 1.49722 13.0204 1.16822 12.3944 1.26822L12.6314 2.74922C12.5514 2.76222 12.5754 2.68422 12.8264 2.92222C13.0794 3.16022 13.3904 3.55022 13.8744 4.16222L15.0504 3.23022ZM11.8904 4.48022C12.1604 3.74822 12.3344 3.28022 12.5004 2.97422C12.6654 2.67022 12.7124 2.73622 12.6314 2.74922L12.3944 1.26822C11.7684 1.36822 11.4134 1.83222 11.1814 2.25822C10.9514 2.68322 10.7344 3.27822 10.4824 3.96222L11.8904 4.48022ZM7.00437 6.63522C4.39737 8.54222 2.54837 12.1152 3.50837 18.1182L4.98937 17.8822C4.09937 12.3162 5.82737 9.35522 7.89037 7.84622L7.00437 6.63522ZM4.95937 18.2412C5.67537 16.1312 7.90337 14.3252 10.5324 13.4392L10.0514 12.0172C7.16737 12.9902 4.45937 15.0472 3.53837 17.7592L4.95937 18.2412Z" fill="#116390"/>
<path opacity="0.5" d="M10.28 16C10.28 16 10.914 17.39 11.694 17.87C12.474 18.347 14 18.28 14 18.28C14 18.28 12.61 18.913 12.13 19.693C11.652 20.473 11.72 22 11.72 22C11.72 22 11.086 20.61 10.306 20.13C9.527 19.654 8 19.72 8 19.72C8 19.72 9.39 19.087 9.87 18.307C10.348 17.527 10.28 16 10.28 16ZM18.48 15C18.48 15 18.058 15.927 17.538 16.246C17.018 16.565 16 16.52 16 16.52C16 16.52 16.927 16.942 17.246 17.462C17.565 17.982 17.52 19 17.52 19C17.52 19 17.942 18.073 18.462 17.754C18.982 17.435 20 17.48 20 17.48C20 17.48 19.073 17.058 18.754 16.538C18.435 16.018 18.48 15 18.48 15Z" stroke="#116390" stroke-linejoin="round"/>
</svg>
