<svg width="136" height="24" viewBox="0 0 136 24" fill="none" xmlns="http://www.w3.org/2000/svg">
<path d="M7.32831 18.9246L8.56831 13.6116L4.44531 10.0396L9.87631 9.56959L12.0033 4.55859L14.1303 9.56859L19.5603 10.0386L15.4373 13.6106L16.6783 18.9236L12.0033 16.1036L7.32831 18.9246Z" fill="#FCBD06"/>
<path d="M35.3283 18.9246L36.5683 13.6116L32.4453 10.0396L37.8763 9.56959L40.0033 4.55859L42.1303 9.56859L47.5603 10.0386L43.4373 13.6106L44.6783 18.9236L40.0033 16.1036L35.3283 18.9246Z" fill="#FCBD06"/>
<path d="M63.3283 18.9246L64.5683 13.6116L60.4453 10.0396L65.8763 9.56959L68.0033 4.55859L70.1303 9.56859L75.5603 10.0386L71.4373 13.6106L72.6783 18.9236L68.0033 16.1036L63.3283 18.9246Z" fill="#FCBD06"/>
<path d="M91.3283 18.9246L92.5683 13.6116L88.4453 10.0396L93.8763 9.56959L96.0033 4.55859L98.1303 9.56859L103.56 10.0386L99.4373 13.6106L100.678 18.9236L96.0033 16.1036L91.3283 18.9246Z" fill="#FCBD06"/>
<path d="M120.846 16.8243L123.996 14.9243L127.146 16.8493L126.321 13.2493L129.096 10.8493L125.446 10.5243L123.996 7.12428L122.546 10.4993L118.896 10.8243L121.671 13.2493L120.846 16.8243ZM123.996 16.1013L120.366 18.2933C120.26 18.3459 120.161 18.3673 120.069 18.3573C119.979 18.3466 119.89 18.3153 119.804 18.2633C119.718 18.2099 119.652 18.1346 119.608 18.0373C119.564 17.9399 119.56 17.8336 119.596 17.7183L120.562 13.6083L117.367 10.8383C117.277 10.7649 117.218 10.6773 117.189 10.5753C117.161 10.4733 117.167 10.3756 117.208 10.2823C117.25 10.1889 117.305 10.1123 117.373 10.0523C117.443 9.99428 117.536 9.95495 117.653 9.93428L121.869 9.56628L123.513 5.67428C123.559 5.56428 123.624 5.48495 123.709 5.43628C123.795 5.38761 123.89 5.36328 123.996 5.36328C124.102 5.36328 124.198 5.38761 124.284 5.43628C124.37 5.48495 124.435 5.56428 124.479 5.67428L126.123 9.56628L130.338 9.93428C130.456 9.95428 130.55 9.99395 130.619 10.0533C130.689 10.1119 130.744 10.1883 130.785 10.2823C130.826 10.3756 130.832 10.4733 130.803 10.5753C130.775 10.6773 130.715 10.7649 130.625 10.8383L127.43 13.6083L128.396 17.7183C128.434 17.8323 128.43 17.9383 128.385 18.0363C128.341 18.1343 128.275 18.2096 128.188 18.2623C128.103 18.3156 128.015 18.3473 127.923 18.3573C127.833 18.3673 127.734 18.3459 127.627 18.2933L123.996 16.1013Z" fill="#FCBD06"/>
</svg>
