<svg width="34" height="34" viewBox="0 0 34 34" fill="none" xmlns="http://www.w3.org/2000/svg">
<path d="M21.7423 12.5078C21.938 12.5409 22.1128 12.6499 22.2285 12.8112C22.3443 12.9725 22.3916 13.1729 22.3604 13.369L21.2137 20.3464C21.2009 20.4463 21.168 20.5426 21.1172 20.6296C21.0664 20.7165 20.9985 20.7923 20.9178 20.8525C20.837 20.9127 20.7449 20.9559 20.6471 20.9798C20.5492 21.0036 20.4475 21.0074 20.3481 20.9911C20.2488 20.9747 20.1537 20.9386 20.0686 20.8847C19.9835 20.8308 19.9101 20.7603 19.8528 20.6775C19.7956 20.5946 19.7556 20.5011 19.7352 20.4025C19.7149 20.3038 19.7146 20.2021 19.7344 20.1033L20.5876 14.9121L12.3091 20.8537C12.1475 20.9697 11.9464 21.0167 11.7501 20.9844C11.5539 20.9522 11.3784 20.8433 11.2624 20.6817C11.1465 20.5201 11.0994 20.319 11.1317 20.1228C11.1639 19.9265 11.2728 19.751 11.4344 19.6351L19.713 13.6935L14.5217 12.8404C14.3312 12.8021 14.163 12.6914 14.0524 12.5315C13.9419 12.3717 13.8978 12.1752 13.9293 11.9834C13.9608 11.7917 14.0655 11.6196 14.2214 11.5035C14.3772 11.3875 14.5721 11.3364 14.7648 11.3611L21.7423 12.5078Z" fill="#125401"/>
</svg>
