<svg width="32" height="32" viewBox="0 0 32 32" fill="none" xmlns="http://www.w3.org/2000/svg">
<path d="M11.3337 18.6668C11.7757 18.6668 12.1996 18.4912 12.5122 18.1787C12.8247 17.8661 13.0003 17.4422 13.0003 17.0002C13.0003 16.5581 12.8247 16.1342 12.5122 15.8217C12.1996 15.5091 11.7757 15.3335 11.3337 15.3335C10.8916 15.3335 10.4677 15.5091 10.1551 15.8217C9.84259 16.1342 9.66699 16.5581 9.66699 17.0002C9.66699 17.4422 9.84259 17.8661 10.1551 18.1787C10.4677 18.4912 10.8916 18.6668 11.3337 18.6668ZM11.3337 23.3335C11.7757 23.3335 12.1996 23.1579 12.5122 22.8453C12.8247 22.5328 13.0003 22.1089 13.0003 21.6668C13.0003 21.2248 12.8247 20.8009 12.5122 20.4883C12.1996 20.1758 11.7757 20.0002 11.3337 20.0002C10.8916 20.0002 10.4677 20.1758 10.1551 20.4883C9.84259 20.8009 9.66699 21.2248 9.66699 21.6668C9.66699 22.1089 9.84259 22.5328 10.1551 22.8453C10.4677 23.1579 10.8916 23.3335 11.3337 23.3335ZM17.667 17.0002C17.667 17.4422 17.4914 17.8661 17.1788 18.1787C16.8663 18.4912 16.4424 18.6668 16.0003 18.6668C15.5583 18.6668 15.1344 18.4912 14.8218 18.1787C14.5093 17.8661 14.3337 17.4422 14.3337 17.0002C14.3337 16.5581 14.5093 16.1342 14.8218 15.8217C15.1344 15.5091 15.5583 15.3335 16.0003 15.3335C16.4424 15.3335 16.8663 15.5091 17.1788 15.8217C17.4914 16.1342 17.667 16.5581 17.667 17.0002ZM16.0003 23.3335C16.4424 23.3335 16.8663 23.1579 17.1788 22.8453C17.4914 22.5328 17.667 22.1089 17.667 21.6668C17.667 21.2248 17.4914 20.8009 17.1788 20.4883C16.8663 20.1758 16.4424 20.0002 16.0003 20.0002C15.5583 20.0002 15.1344 20.1758 14.8218 20.4883C14.5093 20.8009 14.3337 21.2248 14.3337 21.6668C14.3337 22.1089 14.5093 22.5328 14.8218 22.8453C15.1344 23.1579 15.5583 23.3335 16.0003 23.3335ZM22.3337 17.0002C22.3337 17.4422 22.1581 17.8661 21.8455 18.1787C21.5329 18.4912 21.109 18.6668 20.667 18.6668C20.225 18.6668 19.801 18.4912 19.4885 18.1787C19.1759 17.8661 19.0003 17.4422 19.0003 17.0002C19.0003 16.5581 19.1759 16.1342 19.4885 15.8217C19.801 15.5091 20.225 15.3335 20.667 15.3335C21.109 15.3335 21.5329 15.5091 21.8455 15.8217C22.1581 16.1342 22.3337 16.5581 22.3337 17.0002Z" fill="black"/>
<path fill-rule="evenodd" clip-rule="evenodd" d="M11 4C11.2652 4 11.5196 4.10536 11.7071 4.29289C11.8946 4.48043 12 4.73478 12 5V6H20.6667V5C20.6667 4.73478 20.772 4.48043 20.9596 4.29289C21.1471 4.10536 21.4014 4 21.6667 4C21.9319 4 22.1862 4.10536 22.3738 4.29289C22.5613 4.48043 22.6667 4.73478 22.6667 5V6.01067C22.8693 6.016 23.0582 6.02578 23.2333 6.04C23.74 6.08 24.2147 6.17067 24.664 6.4C25.3541 6.75156 25.9151 7.31259 26.2667 8.00267C26.496 8.452 26.5867 8.92667 26.6267 9.43333C26.6667 9.92 26.6667 10.5133 26.6667 11.2267V21.44C26.6667 22.1533 26.6667 22.7467 26.6267 23.2333C26.5867 23.74 26.496 24.2147 26.2667 24.664C25.9155 25.3539 25.3549 25.9149 24.6653 26.2667C24.2147 26.496 23.74 26.5867 23.2333 26.6267C22.7467 26.6667 22.1533 26.6667 21.4413 26.6667H11.2267C10.5133 26.6667 9.92 26.6667 9.43333 26.6267C8.92667 26.5867 8.452 26.496 8.00267 26.2667C7.313 25.9158 6.75201 25.3557 6.4 24.6667C6.17067 24.216 6.08 23.7413 6.04 23.2347C6 22.748 6 22.1547 6 21.4427V11.2267C6 10.5133 6 9.92 6.04 9.43333C6.08 8.92667 6.17067 8.452 6.4 8.00267C6.75156 7.31259 7.31259 6.75156 8.00267 6.4C8.452 6.17067 8.92667 6.08 9.43333 6.04C9.60844 6.02578 9.79733 6.016 10 6.01067V5C10 4.86868 10.0259 4.73864 10.0761 4.61732C10.1264 4.49599 10.2 4.38575 10.2929 4.29289C10.3858 4.20003 10.496 4.12638 10.6173 4.07612C10.7386 4.02587 10.8687 4 11 4ZM24.6667 13.3333H8V21.4C8 22.1627 8 22.676 8.03333 23.0693C8.064 23.4533 8.12 23.636 8.18133 23.756C8.34133 24.0707 8.596 24.3253 8.91067 24.4853C9.03067 24.5467 9.21333 24.6027 9.596 24.6333C9.99067 24.6653 10.5027 24.6667 11.2667 24.6667H21.4C22.1627 24.6667 22.676 24.6667 23.0693 24.6333C23.4533 24.6027 23.636 24.5467 23.756 24.4853C24.0701 24.3255 24.3255 24.0701 24.4853 23.756C24.5467 23.636 24.6027 23.4533 24.6333 23.0693C24.6653 22.676 24.6667 22.1627 24.6667 21.4V13.3333ZM14.3333 9C14.0681 9 13.8138 9.10536 13.6262 9.29289C13.4387 9.48043 13.3333 9.73478 13.3333 10C13.3333 10.2652 13.4387 10.5196 13.6262 10.7071C13.8138 10.8946 14.0681 11 14.3333 11H18.3333C18.5985 11 18.8529 10.8946 19.0404 10.7071C19.228 10.5196 19.3333 10.2652 19.3333 10C19.3333 9.73478 19.228 9.48043 19.0404 9.29289C18.8529 9.10536 18.5985 9 18.3333 9H14.3333Z" fill="black"/>
</svg>
