<svg width="32" height="32" viewBox="0 0 32 32" fill="none" xmlns="http://www.w3.org/2000/svg">
<path d="M24.4721 16.4722L17.8054 23.1389C17.6803 23.264 17.5105 23.3344 17.3334 23.3344C17.1564 23.3344 16.9866 23.264 16.8614 23.1389C16.7363 23.0137 16.6659 22.8439 16.6659 22.6669C16.6659 22.4898 16.7363 22.32 16.8614 22.1949L22.3908 16.6669L8.00011 16.6669C7.8233 16.6669 7.65373 16.5966 7.52871 16.4716C7.40368 16.3466 7.33344 16.177 7.33344 16.0002C7.33344 15.8234 7.40368 15.6538 7.52871 15.5288C7.65373 15.4038 7.8233 15.3335 8.00011 15.3335L22.3908 15.3335L16.8614 9.80552C16.7363 9.68034 16.6659 9.51056 16.6659 9.33352C16.6659 9.15649 16.7363 8.98671 16.8614 8.86152C16.9866 8.73634 17.1564 8.66602 17.3334 8.66602C17.5105 8.66602 17.6803 8.73634 17.8054 8.86152L24.4721 15.5282C24.5342 15.5901 24.5835 15.6637 24.6171 15.7447C24.6507 15.8257 24.668 15.9125 24.668 16.0002C24.668 16.0879 24.6507 16.1747 24.6171 16.2557C24.5835 16.3367 24.5342 16.4103 24.4721 16.4722Z" fill="#065988"/>
</svg>
