<svg width="53" height="52" viewBox="0 0 53 52" fill="none" xmlns="http://www.w3.org/2000/svg">
<path fill-rule="evenodd" clip-rule="evenodd" d="M14.1194 8.66699H38.8813C40.1947 8.66699 41.4544 9.18876 42.3831 10.1175C43.3119 11.0463 43.8337 12.3059 43.8337 13.6194V38.3813C43.8337 39.6947 43.3119 40.9544 42.3831 41.8831C41.4544 42.8119 40.1947 43.3337 38.8813 43.3337H14.1194C12.8059 43.3337 11.5463 42.8119 10.6175 41.8831C9.68876 40.9544 9.16699 39.6947 9.16699 38.3813V13.6194C9.16699 12.3059 9.68876 11.0463 10.6175 10.1175C11.5463 9.18876 12.8059 8.66699 14.1194 8.66699Z" stroke="black" stroke-linecap="round" stroke-linejoin="round"/>
<path fill-rule="evenodd" clip-rule="evenodd" d="M14.1194 13.6194H38.8813C40.1947 13.6194 41.4544 14.1411 42.3831 15.0699C43.3119 15.9986 43.8337 17.2583 43.8337 18.5718V13.6194C43.8337 11.1432 41.6175 8.66699 38.8813 8.66699H14.1194C11.3832 8.66699 9.16699 11.1432 9.16699 13.6194V18.5718C9.16699 17.2583 9.68876 15.9986 10.6175 15.0699C11.5463 14.1411 12.8059 13.6194 14.1194 13.6194Z" fill="black" stroke="black" stroke-linecap="round" stroke-linejoin="round"/>
<path d="M19.0664 26.0002H21.5426M19.0664 21.0479H28.9637M19.0664 30.9526H33.9161M19.0664 35.905H28.9637" stroke="black" stroke-linecap="round" stroke-linejoin="round"/>
</svg>
