<svg width="24" height="22" viewBox="0 0 24 22" fill="none" xmlns="http://www.w3.org/2000/svg">
<path d="M14.2121 21.1524L23.6658 11.5642C23.8799 11.3468 24 11.0539 24 10.7488C24 10.4437 23.8799 10.1508 23.6658 9.93341L14.2127 0.345199C13.9963 0.125765 13.7017 0.00125216 13.3936 -0.000946934C13.0854 -0.00314602 12.7891 0.117148 12.5696 0.333473C12.3502 0.549797 12.2257 0.844432 12.2235 1.15256C12.2213 1.46069 12.3416 1.75707 12.5579 1.9765L20.0606 9.58708H1.16149C0.853376 9.58708 0.557886 9.70947 0.340019 9.92734C0.122152 10.1452 -0.000244141 10.4407 -0.000244141 10.7488C-0.000244141 11.0569 0.122152 11.3524 0.340019 11.5702C0.557886 11.7881 0.853376 11.9105 1.16149 11.9105H20.06L12.5573 19.5211C12.341 19.7405 12.2207 20.0369 12.2229 20.345C12.2251 20.6532 12.3496 20.9478 12.5691 21.1641C12.7885 21.3804 13.0849 21.5007 13.393 21.4985C13.7012 21.4963 13.9958 21.3718 14.2121 21.1524Z" fill="#3C6E89"/>
</svg>
