<svg width="22" height="28" viewBox="0 0 22 28" fill="none" xmlns="http://www.w3.org/2000/svg">
<path d="M11 0.09375C9.75 0.09375 8 0.3125 7 0.75V1.875H3V5.3125H19V1.875H15V0.75C14 0.3125 12.25 0.09375 11 0.09375ZM8 2.625C8.55 2.625 9 3.0725 9 3.625C9 4.175 8.55 4.625 8 4.625C7.45 4.625 7 4.175 7 3.625C7 3.0725 7.45 2.625 8 2.625ZM14 2.625C14.55 2.625 15 3.0725 15 3.625C15 4.175 14.55 4.625 14 4.625C13.45 4.625 13 4.175 13 3.625C13 3.0725 13.45 2.625 14 2.625ZM2 6.4375V7.5625H1V8.6875H21V7.5625H20V6.4375H2ZM0 9.6875V10.8125H22V9.6875H0ZM1 11.9375V16.4375H8.04375C8.55 13.1875 13.45 13.1875 13.9562 16.4375H21V11.9375H1ZM1 17.5625V19.4375H7V20.5625H1V28H8V17.5625H1ZM14 17.5625V28H21V20.5625H15V19.4375H21V17.5625H14Z" fill="black"/>
</svg>
