<svg width="117" height="82" viewBox="0 0 117 82" fill="none" xmlns="http://www.w3.org/2000/svg">
<path d="M108.635 1.96706C108.183 1.04274 107.067 0.659921 106.143 1.11201L91.08 8.47924C90.1557 8.93133 89.7729 10.0471 90.225 10.9715C90.6771 11.8958 91.7929 12.2786 92.7172 11.8265L106.106 5.27786L112.655 18.6669C113.107 19.5913 114.223 19.9741 115.147 19.522C116.071 19.0699 116.454 17.9541 116.002 17.0298L108.635 1.96706ZM0.764893 80.1041L1.26292 81.8994C51.3899 67.9938 94.7984 43.9778 108.724 3.39026L106.961 2.78564L105.199 2.18103C91.9169 40.8945 50.1928 64.459 0.266865 78.3088L0.764893 80.1041Z" fill="white"/>
</svg>
