<svg width="22" height="19" viewBox="0 0 22 19" fill="none" xmlns="http://www.w3.org/2000/svg">
<path d="M8.64949 18.6921L0.29536 10.2191C0.106095 10.027 0 9.76819 0 9.49854C0 9.22888 0.106095 8.97006 0.29536 8.77799L8.64901 0.304937C8.84018 0.111024 9.10055 0.000992943 9.37284 -0.00095038C9.64514 -0.0028937 9.90705 0.10341 10.101 0.294575C10.2949 0.485739 10.4049 0.746106 10.4069 1.0184C10.4088 1.29069 10.3025 1.5526 10.1113 1.74651L3.48124 8.47194H20.1823C20.4545 8.47194 20.7157 8.5801 20.9082 8.77262C21.1007 8.96515 21.2089 9.22626 21.2089 9.49854C21.2089 9.77081 21.1007 10.0319 20.9082 10.2245C20.7157 10.417 20.4545 10.5251 20.1823 10.5251H3.48172L10.1118 17.2506C10.303 17.4445 10.4093 17.7064 10.4073 17.9787C10.4054 18.251 10.2954 18.5113 10.1015 18.7025C9.90754 18.8937 9.64562 19 9.37333 18.998C9.10103 18.9961 8.84066 18.886 8.64949 18.6921Z" fill="#515151"/>
</svg>
