<svg width="49" height="32" viewBox="0 0 49 32" fill="none" xmlns="http://www.w3.org/2000/svg">
<path d="M5.00033 31.221C3.80866 31.221 2.78888 30.797 1.94099 29.9491C1.0931 29.1012 0.668437 28.0807 0.666992 26.8876V22.5543C0.666992 21.9404 0.874992 21.4262 1.29099 21.0116C1.70699 20.5971 2.22121 20.3891 2.83366 20.3876C3.4461 20.3862 3.96105 20.5942 4.37849 21.0116C4.79594 21.4291 5.00321 21.9433 5.00033 22.5543V26.8876H44.0003V22.5543C44.0003 21.9404 44.2083 21.4255 44.6243 21.0095C45.0403 20.5935 45.5545 20.3862 46.167 20.3876C46.7794 20.3891 47.2944 20.5971 47.7118 21.0116C48.1293 21.4262 48.3365 21.9404 48.3337 22.5543V26.8876C48.3337 28.0793 47.9097 29.0998 47.0618 29.9491C46.2139 30.7985 45.1934 31.2224 44.0003 31.221H5.00033ZM14.4253 22.9876C12.6559 22.9876 11.2656 22.5276 10.2545 21.6075C9.24338 20.6874 8.73782 19.4321 8.73782 17.8418C8.73782 16.3251 9.32499 15.0887 10.4993 14.1325C11.6737 13.1762 13.1809 12.6974 15.0212 12.696C15.8517 12.696 16.6194 12.7595 17.3243 12.8866C18.0292 13.0137 18.6337 13.221 19.1378 13.5085V12.7501C19.1378 11.7751 18.8042 10.9987 18.1368 10.421C17.4695 9.84319 16.5573 9.5543 15.4003 9.5543C14.8587 9.5543 14.3444 9.63591 13.8577 9.79913C13.3709 9.96235 12.9282 10.1877 12.5295 10.4751C12.2045 10.7279 11.8528 10.8724 11.4743 10.9085C11.0959 10.9446 10.7434 10.8362 10.417 10.5835C10.0905 10.3307 9.89194 10.0151 9.82116 9.63663C9.75038 9.25819 9.85871 8.9238 10.1462 8.63346C10.7962 8.01958 11.5639 7.55013 12.4493 7.22513C13.3348 6.90013 14.3365 6.73763 15.4545 6.73763C17.6934 6.73763 19.4087 7.27063 20.6003 8.33663C21.792 9.40263 22.3878 10.946 22.3878 12.9668V20.9293C22.3878 21.3626 22.234 21.7331 21.9263 22.0408C21.6187 22.3485 21.2489 22.5016 20.817 22.5001C20.3475 22.5001 19.9597 22.3463 19.6535 22.0386C19.3473 21.731 19.1934 21.3431 19.192 20.8751V20.6585H19.0295C18.56 21.3807 17.9281 21.9498 17.1337 22.3658C16.3392 22.7818 15.4364 22.9891 14.4253 22.9876ZM15.617 15.2418C14.4614 15.2418 13.5767 15.4679 12.9628 15.92C12.3489 16.3721 12.042 17.0127 12.042 17.8418C12.042 18.564 12.3128 19.1512 12.8545 19.6033C13.3962 20.0554 14.1003 20.2807 14.967 20.2793C16.1225 20.2793 17.1069 19.8734 17.9202 19.0616C18.7334 18.2499 19.1393 17.2655 19.1378 16.1085C18.6323 15.8196 18.0545 15.6029 17.4045 15.4585C16.7545 15.314 16.1587 15.2418 15.617 15.2418ZM33.8712 22.9876C32.3906 22.9876 31.2625 22.6626 30.4868 22.0126C29.7112 21.3626 29.2143 20.8571 28.9962 20.496H28.8337V21.2001C28.8337 21.6335 28.6805 22.004 28.3743 22.3116C28.0681 22.6193 27.6976 22.7724 27.2628 22.771C26.828 22.7695 26.4489 22.607 26.1253 22.2835C25.8018 21.9599 25.6393 21.5807 25.6378 21.146V2.45846C25.6378 1.98902 25.8003 1.5918 26.1253 1.2668C26.4503 0.941797 26.8475 0.779297 27.317 0.779297C27.7864 0.779297 28.1837 0.941797 28.5087 1.2668C28.8337 1.5918 28.9962 1.98902 28.9962 2.45846V6.90013L28.8337 9.0668H28.9962C29.1045 8.88624 29.5378 8.42546 30.2962 7.68446C31.0545 6.94346 32.2462 6.57369 33.8712 6.57513C36.1823 6.57513 38.0059 7.40569 39.342 9.0668C40.6781 10.7279 41.3462 12.6418 41.3462 14.8085C41.3462 16.9751 40.6875 18.8804 39.3702 20.5241C38.0528 22.1679 36.2198 22.9891 33.8712 22.9876ZM33.3837 9.60846C31.9392 9.60846 30.8198 10.1415 30.0253 11.2075C29.2309 12.2735 28.8337 13.4557 28.8337 14.7543C28.8337 16.0904 29.2309 17.2821 30.0253 18.3293C30.8198 19.3765 31.9392 19.9001 33.3837 19.9001C34.8281 19.9001 35.9569 19.3765 36.7702 18.3293C37.5834 17.2821 37.9893 16.0904 37.9878 14.7543C37.9864 13.4182 37.5805 12.2265 36.7702 11.1793C35.9598 10.1321 34.831 9.60846 33.3837 9.60846Z" fill="black"/>
</svg>
