<svg width="45" height="44" viewBox="0 0 45 44" fill="none" xmlns="http://www.w3.org/2000/svg">
<path d="M44.1663 14.4168C44.1663 17.3852 41.7397 19.8335 38.7497 19.8335C35.7597 19.8335 33.333 17.3852 33.333 14.4168C33.333 17.3852 30.9063 19.8335 27.9163 19.8335C24.9263 19.8335 22.4997 17.3852 22.4997 14.4168C22.4997 17.3852 20.073 19.8335 17.083 19.8335C14.093 19.8335 11.6663 17.3852 11.6663 14.4168C11.6663 17.3852 9.23967 19.8335 6.24967 19.8335C3.25967 19.8335 0.833008 17.3852 0.833008 14.4168L3.84467 2.6735C3.84467 2.6735 4.47301 0.333496 6.68301 0.333496H38.3163C40.5263 0.333496 41.1547 2.6735 41.1547 2.6735L44.1663 14.4168ZM41.9997 22.4335V39.3335C41.9997 41.7168 40.0497 43.6668 37.6663 43.6668H7.33301C4.94967 43.6668 2.99967 41.7168 2.99967 39.3335V22.4335C4.42399 23.0216 5.9804 23.2152 7.50541 22.9941C9.03041 22.773 10.4677 22.1453 11.6663 21.1768C13.1613 22.3685 15.0463 23.0835 17.083 23.0835C19.1413 23.0835 21.0263 22.3685 22.4997 21.1768C23.9947 22.3685 25.8797 23.0835 27.9163 23.0835C29.9747 23.0835 31.8597 22.3685 33.333 21.1768C34.8063 22.3685 36.713 23.0835 38.7497 23.0835C39.898 23.0835 41.003 22.8452 41.9997 22.4335ZM37.6663 33.5485C37.6663 33.1152 37.6663 32.6602 37.558 32.1835L37.493 31.8368H31.058V34.3718H34.9797C34.8497 34.8485 34.6763 35.3252 34.308 35.7152C33.593 36.4302 32.618 36.8202 31.578 36.8202C30.4947 36.8202 29.433 36.3652 28.653 35.6068C27.158 34.0685 27.158 31.5768 28.6963 30.0168C30.1913 28.5002 32.6613 28.5002 34.2213 29.9518L34.5247 30.2335L36.3447 28.3918L35.998 28.0885C34.7847 26.9618 33.1813 26.3335 31.4913 26.3335H31.4697C29.7147 26.3335 28.068 27.0052 26.833 28.2185C25.5547 29.4752 24.8397 31.1218 24.8397 32.8335C24.8397 34.5668 25.5113 36.1702 26.7463 37.3618C28.0333 38.618 29.758 39.325 31.5563 39.3335H31.5997C33.333 39.3335 34.8713 38.7052 35.998 37.6002C37.0163 36.5602 37.6663 35.0002 37.6663 33.5485Z" fill="black"/>
</svg>
