<svg width="39" height="36" viewBox="0 0 39 36" fill="none" xmlns="http://www.w3.org/2000/svg">
<path d="M9.08267 23.5013H11.4097C11.6422 23.5013 11.8589 23.4609 12.0597 23.38C12.2619 23.2991 12.4569 23.1641 12.6447 22.9748L23.5257 12.083C23.712 11.8692 23.8514 11.6453 23.9438 11.4113C24.0363 11.1773 24.0832 10.9448 24.0847 10.7137C24.0861 10.4826 24.0392 10.2536 23.9438 10.0268C23.8514 9.8015 23.7163 9.58122 23.5387 9.366L21.5345 7.30767C21.3467 7.12133 21.1315 6.98194 20.8888 6.8895C20.6433 6.79705 20.4013 6.75083 20.163 6.75083C19.9319 6.75083 19.7008 6.79056 19.4697 6.87C19.24 6.948 19.0183 7.09389 18.8045 7.30767L7.8585 18.1887C7.67072 18.3764 7.53639 18.5714 7.4555 18.7737C7.37461 18.9744 7.33417 19.1911 7.33417 19.4237V21.7507C7.33417 22.2533 7.50028 22.6708 7.8325 23.003C8.16472 23.3352 8.58144 23.5013 9.08267 23.5013ZM20.15 12.8262L18.0917 10.7787L20.163 8.7095L22.1672 10.7678L20.15 12.8262ZM19.1013 23.5013H30.5847C30.8923 23.5013 31.1494 23.3973 31.356 23.1893C31.564 22.9828 31.668 22.7257 31.668 22.418C31.668 22.1089 31.564 21.8511 31.356 21.6445C31.1494 21.4379 30.8916 21.3347 30.5825 21.3347H21.2658L19.1013 23.5013ZM6.66683 30.8333L2.97483 34.5253C2.42739 35.0728 1.79472 35.1984 1.07683 34.9023C0.358944 34.6062 0 34.0682 0 33.2882V4.00133C0 3.00322 0.334389 2.1705 1.00317 1.50317C1.67194 0.835833 2.50467 0.501444 3.50133 0.5H35.5008C36.4975 0.5 37.3302 0.834389 37.999 1.50317C38.6678 2.17194 39.0014 3.00467 39 4.00133V27.3342C39 28.3308 38.6663 29.1636 37.999 29.8323C37.3317 30.5011 36.4989 30.8348 35.5008 30.8333H6.66683Z" fill="black"/>
</svg>
