<svg width="28" height="19" viewBox="0 0 28 19" fill="none" xmlns="http://www.w3.org/2000/svg">
<path d="M13.767 1.60659L13.755 1.59859L12.6977 0.887924C11.9719 0.399777 11.1061 0.162977 10.2329 0.213789C9.35972 0.264601 8.52725 0.600222 7.86299 1.16926L5.26699 3.39459C5.08568 3.54965 4.8549 3.63477 4.61633 3.63459H1.66699C1.40178 3.63459 1.14742 3.73995 0.959885 3.92748C0.772349 4.11502 0.666992 4.36937 0.666992 4.63459V12.6746C0.666992 13.2266 1.11499 13.6746 1.66699 13.6746H4.45099C4.59299 13.6745 4.73337 13.7047 4.86281 13.7631C4.99224 13.8215 5.10775 13.9067 5.20166 14.0133L8.32032 17.5599C8.80582 18.1117 9.47698 18.4661 10.2064 18.5558C10.9359 18.6455 11.6729 18.4643 12.2777 18.0466L13.1897 17.4159L14.1683 17.7493C14.7731 17.9543 15.4275 17.9611 16.0364 17.7685C16.6453 17.576 17.1768 17.1941 17.5537 16.6786L18.1803 15.8226L18.615 15.8813C19.217 15.9624 19.8294 15.8588 20.3713 15.5843C20.9132 15.3098 21.3589 14.8773 21.6497 14.3439L21.715 14.2239H26.3337C26.5989 14.2239 26.8532 14.1186 27.0408 13.931C27.2283 13.7435 27.3337 13.4891 27.3337 13.2239V4.63592C27.3337 4.37071 27.2283 4.11635 27.0408 3.92882C26.8532 3.74128 26.5989 3.63592 26.3337 3.63592H23.3857C23.1458 3.636 22.914 3.54987 22.7323 3.39326L20.4803 1.44792C19.541 0.636232 18.3332 0.203027 17.0921 0.232601C15.851 0.262175 14.6653 0.752411 13.7657 1.60792M11.579 2.54792L12.3283 3.05192L9.71499 5.67992C9.43335 5.96317 9.2111 6.29981 9.06129 6.6701C8.91149 7.04038 8.83714 7.43686 8.8426 7.83626C8.84806 8.23566 8.93324 8.62996 9.09312 8.99601C9.253 9.36205 9.48437 9.69249 9.77366 9.96792L9.86432 10.0533C10.9443 11.0813 12.6137 11.1613 13.7857 10.2399L16.5577 8.06392L20.1003 11.4706C20.2586 11.6226 20.3625 11.8224 20.396 12.0392C20.4295 12.2561 20.3907 12.4779 20.2857 12.6706L20.2523 12.7293L20.2337 12.7639L19.8937 13.3866C19.7967 13.5641 19.6483 13.7081 19.4678 13.7995C19.2874 13.8909 19.0835 13.9255 18.883 13.8986L17.8577 13.7613C17.6795 13.7373 17.4981 13.7618 17.3327 13.8322C17.1673 13.9026 17.0239 14.0162 16.9177 14.1613L15.939 15.4973C15.8135 15.6691 15.6364 15.7964 15.4335 15.8607C15.2306 15.9249 15.0126 15.9228 14.811 15.8546L13.3577 15.3613C13.2098 15.3109 13.0523 15.296 12.8976 15.3175C12.7429 15.339 12.5955 15.3965 12.467 15.4853L11.1417 16.4013C10.94 16.5407 10.6941 16.6012 10.4507 16.5712C10.2073 16.5412 9.98347 16.4228 9.82166 16.2386L6.70299 12.6919C6.42125 12.372 6.07455 12.1158 5.686 11.9403C5.29745 11.7649 4.87597 11.6743 4.44966 11.6746H2.66699V5.63459H4.61499C5.33088 5.63475 6.02323 5.3789 6.56699 4.91326L9.16432 2.68792C9.49638 2.40331 9.91257 2.23537 10.3492 2.20985C10.7858 2.18432 11.2187 2.30261 11.5817 2.54659M22.4083 12.2253C22.4131 11.8156 22.334 11.4093 22.1758 11.0314C22.0175 10.6535 21.7836 10.312 21.4883 10.0279L18.127 6.79592C18.2779 6.60359 18.353 6.36266 18.3384 6.11866C18.3237 5.87466 18.2201 5.64449 18.0473 5.47165C17.8744 5.2988 17.6443 5.19525 17.4003 5.18056C17.1563 5.16587 16.9153 5.24106 16.723 5.39192L16.0483 5.92126L15.9683 5.98392L12.5523 8.66792C12.3632 8.81652 12.1269 8.89198 11.8866 8.88047C11.6464 8.86896 11.4184 8.77125 11.2443 8.60526L11.1537 8.51859C11.0572 8.42681 10.98 8.31669 10.9267 8.19469C10.8734 8.07269 10.8449 7.94126 10.8431 7.80813C10.8412 7.67499 10.866 7.54283 10.9159 7.41938C10.9658 7.29594 11.0398 7.1837 11.1337 7.08926L15.087 3.11592C15.6224 2.57768 16.3419 2.26243 17.1005 2.23372C17.8592 2.20502 18.6005 2.465 19.175 2.96126L21.4243 4.90526C21.9697 5.37619 22.6664 5.63508 23.387 5.63459H25.3337V12.2253H22.4083Z" fill="black"/>
</svg>
