<svg width="47" height="34" viewBox="0 0 47 34" fill="none" xmlns="http://www.w3.org/2000/svg">
<path d="M10.5 0.75C5.11521 0.75 0.75 5.11521 0.75 10.5C0.759598 15.7523 4.92793 20.0531 10.1773 20.2269L4 33.25H10.5L19.3092 14.6785C19.9324 13.3647 20.2156 11.9442 20.25 10.5C20.25 5.11521 15.8848 0.75 10.5 0.75ZM36.5 0.75C31.1152 0.75 26.75 5.11521 26.75 10.5C26.7596 15.7523 30.9279 20.0531 36.1773 20.2269L30 33.25H36.5L45.3092 14.6785C45.9324 13.3647 46.2156 11.9442 46.25 10.5C46.25 5.11521 41.8848 0.75 36.5 0.75Z" fill="black"/>
</svg>
