<svg width="53" height="52" viewBox="0 0 53 52" fill="none" xmlns="http://www.w3.org/2000/svg">
<path d="M46.8454 23.075C44.7759 19.5132 41.8076 16.5572 38.2373 14.5024C34.6669 12.4477 30.6198 11.3662 26.5004 11.3662C22.3811 11.3662 18.3339 12.4477 14.7636 14.5024C11.1933 16.5572 8.22494 19.5132 6.15541 23.075C5.64408 23.965 5.375 24.9735 5.375 26C5.375 27.0264 5.64408 28.0349 6.15541 28.925C8.22494 32.4867 11.1933 35.4428 14.7636 37.4975C18.3339 39.5523 22.3811 40.6337 26.5004 40.6337C30.6198 40.6337 34.6669 39.5523 38.2373 37.4975C41.8076 35.4428 44.7759 32.4867 46.8454 28.925C47.3567 28.0349 47.6258 27.0264 47.6258 26C47.6258 24.9735 47.3567 23.965 46.8454 23.075ZM44.0287 27.3C42.2442 30.3667 39.6863 32.9116 36.6105 34.6804C33.5347 36.4493 30.0486 37.3802 26.5004 37.3802C22.9523 37.3802 19.4662 36.4493 16.3904 34.6804C13.3145 32.9116 10.7566 30.3667 8.97208 27.3C8.74804 26.9033 8.63032 26.4555 8.63032 26C8.63032 25.5444 8.74804 25.0966 8.97208 24.7C10.7566 21.6332 13.3145 19.0884 16.3904 17.3195C19.4662 15.5507 22.9523 14.6198 26.5004 14.6198C30.0486 14.6198 33.5347 15.5507 36.6105 17.3195C39.6863 19.0884 42.2442 21.6332 44.0287 24.7C44.2528 25.0966 44.3705 25.5444 44.3705 26C44.3705 26.4555 44.2528 26.9033 44.0287 27.3Z" fill="black"/>
<path d="M26.5 17.875C24.893 17.875 23.3221 18.3515 21.986 19.2443C20.6498 20.1371 19.6084 21.406 18.9935 22.8907C18.3785 24.3753 18.2176 26.009 18.5311 27.5851C18.8446 29.1612 19.6185 30.6089 20.7548 31.7452C21.8911 32.8815 23.3388 33.6554 24.9149 33.9689C26.491 34.2824 28.1247 34.1215 29.6093 33.5065C31.094 32.8916 32.3629 31.8502 33.2557 30.514C34.1485 29.1779 34.625 27.607 34.625 26C34.625 23.8451 33.769 21.7785 32.2452 20.2548C30.7215 18.731 28.6549 17.875 26.5 17.875ZM26.5 30.875C25.5358 30.875 24.5933 30.5891 23.7916 30.0534C22.9899 29.5177 22.3651 28.7564 21.9961 27.8656C21.6271 26.9748 21.5306 25.9946 21.7187 25.0489C21.9068 24.1033 22.3711 23.2346 23.0529 22.5529C23.7346 21.8711 24.6033 21.4068 25.5489 21.2187C26.4946 21.0306 27.4748 21.1271 28.3656 21.4961C29.2564 21.8651 30.0177 22.4899 30.5534 23.2916C31.0891 24.0933 31.375 25.0358 31.375 26C31.375 27.2929 30.8614 28.5329 29.9471 29.4471C29.0329 30.3614 27.7929 30.875 26.5 30.875Z" fill="black"/>
</svg>
